VotoSerifGX-CondensedBoldText.ufo
<glyph name="parenleft" format="2">
  <advance width="318"/>
  <unicode hex="0028"/>
  <outline>
    <contour>
      <point x="296" y="-139" type="curve"/>
      <point x="296" y="-75" type="line"/>
      <point x="213" y="6"/>
      <point x="188" y="158"/>
      <point x="188" y="317" type="curve" smooth="yes"/>
      <point x="188" y="476"/>
      <point x="213" y="626"/>
      <point x="296" y="710" type="curve"/>
      <point x="296" y="771" type="line"/>
      <point x="113" y="683"/>
      <point x="40" y="533"/>
      <point x="40" y="317" type="curve" smooth="yes"/>
      <point x="40" y="101"/>
      <point x="113" y="-49"/>
    </contour>
  </outline>
</glyph>
<glyph name="less" format="2">
  <advance width="329"/>
  <unicode hex="003C"/>
  <outline>
    <contour>
      <point x="312" y="112" type="line"/>
      <point x="312" y="192" type="line"/>
      <point x="100" y="357" type="line"/>
      <point x="312" y="524" type="line"/>
      <point x="312" y="604" type="line"/>
      <point x="17" y="378" type="line"/>
      <point x="17" y="337" type="line"/>
    </contour>
  </outline>
</glyph>
<glyph name="B" format="2">
  <advance width="520"/>
  <unicode hex="0042"/>
  <anchor x="260" y="0" name="bottom"/>
  <anchor x="260" y="714" name="top"/>
  <anchor x="500" y="714" name="topright"/>
  <outline>
    <contour>
      <point x="14" y="0" type="line"/>
      <point x="274" y="0" type="line" smooth="yes"/>
      <point x="426" y="0"/>
      <point x="498" y="64"/>
      <point x="498" y="196" type="curve" smooth="yes"/>
      <point x="498" y="303"/>
      <point x="444" y="361"/>
      <point x="369" y="376" type="curve"/>
      <point x="369" y="381" type="line"/>
      <point x="428" y="403"/>
      <point x="478" y="450"/>
      <point x="478" y="540" type="curve" smooth="yes"/>
      <point x="478" y="664"/>
      <point x="398" y="714"/>
      <point x="252" y="714" type="curve" smooth="yes"/>
      <point x="14" y="714" type="line"/>
      <point x="14" y="661" type="line"/>
      <point x="50" y="661" type="line" smooth="yes"/>
      <point x="64" y="661"/>
      <point x="81" y="651"/>
      <point x="81" y="601" type="curve" smooth="yes"/>
      <point x="81" y="114" type="line" smooth="yes"/>
      <point x="81" y="70"/>
      <point x="73" y="53"/>
      <point x="51" y="53" type="curve" smooth="yes"/>
      <point x="14" y="53" type="line"/>
    </contour>
    <contour>
      <point x="225" y="61" type="line"/>
      <point x="225" y="344" type="line"/>
      <point x="264" y="344" type="line" smooth="yes"/>
      <point x="317" y="344"/>
      <point x="344" y="297"/>
      <point x="344" y="199" type="curve" smooth="yes"/>
      <point x="344" y="96"/>
      <point x="313" y="61"/>
      <point x="262" y="61" type="curve" smooth="yes"/>
    </contour>
    <contour>
      <point x="225" y="405" type="line"/>
      <point x="225" y="653" type="line"/>
      <point x="245" y="653" type="line" smooth="yes"/>
      <point x="296" y="653"/>
      <point x="326" y="624"/>
      <point x="326" y="532" type="curve" smooth="yes"/>
      <point x="326" y="442"/>
      <point x="298" y="405"/>
      <point x="245" y="405" type="curve" smooth="yes"/>
    </contour>
  </outline>
</glyph>
<glyph name="S" format="2">
  <advance width="437"/>
  <unicode hex="0053"/>
  <anchor x="218" y="0" name="bottom"/>
  <anchor x="218" y="714" name="top"/>
  <anchor x="417" y="714" name="topright"/>
  <outline>
    <contour>
      <point x="206" y="-10" type="curve" smooth="yes"/>
      <point x="334" y="-10"/>
      <point x="417" y="72"/>
      <point x="417" y="202" type="curve" smooth="yes"/>
      <point x="417" y="302"/>
      <point x="385" y="365"/>
      <point x="275" y="423" type="curve" smooth="yes"/>
      <point x="168" y="478"/>
      <point x="148" y="517"/>
      <point x="148" y="571" type="curve" smooth="yes"/>
      <point x="148" y="632"/>
      <point x="175" y="665"/>
      <point x="211" y="665" type="curve" smooth="yes"/>
      <point x="262" y="665"/>
      <point x="290" y="593"/>
      <point x="290" y="526" type="curve"/>
      <point x="369" y="526"/>
      <point x="395" y="556"/>
      <point x="395" y="603" type="curve" smooth="yes"/>
      <point x="395" y="662"/>
      <point x="345" y="724"/>
      <point x="228" y="724" type="curve" smooth="yes"/>
      <point x="118" y="724"/>
      <point x="33" y="649"/>
      <point x="33" y="531" type="curve" smooth="yes"/>
      <point x="33" y="434"/>
      <point x="63" y="368"/>
      <point x="172" y="308" type="curve" smooth="yes"/>
      <point x="251" y="264"/>
      <point x="299" y="229"/>
      <point x="299" y="156" type="curve" smooth="yes"/>
      <point x="299" y="95"/>
      <point x="273" y="48"/>
      <point x="223" y="48" type="curve" smooth="yes"/>
      <point x="171" y="48"/>
      <point x="114" y="103"/>
      <point x="114" y="221" type="curve"/>
      <point x="65" y="221"/>
      <point x="17" y="196"/>
      <point x="17" y="127" type="curve" smooth="yes"/>
      <point x="17" y="65"/>
      <point x="49" y="-10"/>
    </contour>
  </outline>
</glyph>
<glyph name="T" format="2">
  <advance width="494"/>
  <unicode hex="0054"/>
  <anchor x="248" y="0" name="bottom"/>
  <anchor x="248" y="357" name="center"/>
  <anchor x="248" y="714" name="top"/>
  <anchor x="474" y="714" name="topright"/>
  <outline>
    <contour>
      <point x="105" y="0" type="line"/>
      <point x="389" y="0" type="line"/>
      <point x="389" y="53" type="line"/>
      <point x="365" y="53" type="line" smooth="yes"/>
      <point x="338" y="53"/>
      <point x="321" y="60"/>
      <point x="321" y="118" type="curve" smooth="yes"/>
      <point x="321" y="653" type="line"/>
      <point x="369" y="653" type="line" smooth="yes"/>
      <point x="413" y="653"/>
      <point x="424" y="626"/>
      <point x="429" y="582" type="curve" smooth="yes"/>
      <point x="435" y="521" type="line"/>
      <point x="492" y="521" type="line"/>
      <point x="488" y="714" type="line"/>
      <point x="5" y="714" type="line"/>
      <point x="1" y="521" type="line"/>
      <point x="58" y="521" type="line"/>
      <point x="65" y="582" type="line" smooth="yes"/>
      <point x="70" y="626"/>
      <point x="81" y="653"/>
      <point x="125" y="653" type="curve" smooth="yes"/>
      <point x="174" y="653" type="line"/>
      <point x="174" y="118" type="line" smooth="yes"/>
      <point x="174" y="61"/>
      <point x="155" y="53"/>
      <point x="129" y="53" type="curve" smooth="yes"/>
      <point x="105" y="53" type="line"/>
    </contour>
  </outline>
</glyph>
<glyph name="e" format="2">
  <advance width="433"/>
  <unicode hex="0065"/>
  <anchor x="227" y="0" name="bottom"/>
  <anchor x="227" y="536" name="top"/>
  <anchor x="413" y="536" name="topright"/>
  <outline>
    <contour>
      <point x="232" y="-10" type="curve" smooth="yes"/>
      <point x="348" y="-10"/>
      <point x="392" y="53"/>
      <point x="392" y="105" type="curve" smooth="yes"/>
      <point x="392" y="128"/>
      <point x="378" y="142"/>
      <point x="361" y="148" type="curve"/>
      <point x="344" y="100"/>
      <point x="318" y="62"/>
      <point x="268" y="62" type="curve" smooth="yes"/>
      <point x="206" y="62"/>
      <point x="173" y="122"/>
      <point x="172" y="259" type="curve"/>
      <point x="406" y="259" type="line"/>
      <point x="406" y="307" type="line" smooth="yes"/>
      <point x="406" y="465"/>
      <point x="337" y="549"/>
      <point x="223" y="549" type="curve" smooth="yes"/>
      <point x="100" y="549"/>
      <point x="29" y="452"/>
      <point x="29" y="264" type="curve" smooth="yes"/>
      <point x="29" y="91"/>
      <point x="94" y="-10"/>
    </contour>
    <contour>
      <point x="174" y="320" type="line"/>
      <point x="174" y="427"/>
      <point x="197" y="486"/>
      <point x="226" y="486" type="curve" smooth="yes"/>
      <point x="255" y="486"/>
      <point x="268" y="422"/>
      <point x="267" y="320" type="curve"/>
    </contour>
  </outline>
</glyph>
<glyph name="v" format="2">
  <advance width="453"/>
  <unicode hex="0076"/>
  <anchor x="236" y="0" name="bottom"/>
  <anchor x="236" y="536" name="top"/>
  <anchor x="463" y="536" name="topright"/>
  <outline>
    <contour>
      <point x="173" y="0" type="line"/>
      <point x="297" y="0" type="line"/>
      <point x="393" y="411" type="line" smooth="yes"/>
      <point x="406" y="468"/>
      <point x="417" y="483"/>
      <point x="435" y="483" type="curve" smooth="yes"/>
      <point x="455" y="483" type="line"/>
      <point x="455" y="536" type="line"/>
      <point x="292" y="536" type="line"/>
      <point x="292" y="483" type="line"/>
      <point x="307" y="483" type="line" smooth="yes"/>
      <point x="328" y="483"/>
      <point x="338" y="471"/>
      <point x="338" y="453" type="curve" smooth="yes"/>
      <point x="338" y="432"/>
      <point x="334" y="418"/>
      <point x="328" y="392" type="curve" smooth="yes"/>
      <point x="285" y="199" type="line" smooth="yes"/>
      <point x="276" y="163"/>
      <point x="275" y="127"/>
      <point x="270" y="101" type="curve"/>
      <point x="268" y="133"/>
      <point x="262" y="175"/>
      <point x="252" y="219" type="curve" smooth="yes"/>
      <point x="207" y="406" type="line" smooth="yes"/>
      <point x="203" y="420"/>
      <point x="199" y="435"/>
      <point x="199" y="452" type="curve" smooth="yes"/>
      <point x="199" y="472"/>
      <point x="207" y="483"/>
      <point x="229" y="483" type="curve" smooth="yes"/>
      <point x="254" y="483" type="line"/>
      <point x="254" y="536" type="line"/>
      <point x="5" y="536" type="line"/>
      <point x="5" y="483" type="line"/>
      <point x="38" y="483"/>
      <point x="48" y="474"/>
      <point x="59" y="436" type="curve" smooth="yes"/>
    </contour>
  </outline>
</glyph>
<glyph name="y" format="2">
  <advance width="426"/>
  <unicode hex="0079"/>
  <anchor x="117" y="-228" name="bottom"/>
  <anchor x="213" y="536" name="top"/>
  <anchor x="436" y="536" name="topright"/>
  <outline>
    <contour>
      <point x="14" y="-228" type="line"/>
      <point x="30" y="-228" type="line" smooth="yes"/>
      <point x="184" y="-228"/>
      <point x="210" y="-180"/>
      <point x="260" y="5" type="curve" smooth="yes"/>
      <point x="366" y="413" type="line" smooth="yes"/>
      <point x="381" y="465"/>
      <point x="397" y="485"/>
      <point x="423" y="483" type="curve" smooth="yes"/>
      <point x="426" y="483" type="line"/>
      <point x="426" y="536" type="line"/>
      <point x="266" y="536" type="line"/>
      <point x="266" y="483" type="line"/>
      <point x="270" y="482" type="line" smooth="yes"/>
      <point x="297" y="478"/>
      <point x="308" y="475"/>
      <point x="308" y="450" type="curve" smooth="yes"/>
      <point x="308" y="434"/>
      <point x="304" y="409"/>
      <point x="300" y="395" type="curve" smooth="yes"/>
      <point x="260" y="205" type="line" smooth="yes"/>
      <point x="254" y="177"/>
      <point x="250" y="149"/>
      <point x="248" y="117" type="curve"/>
      <point x="246" y="144"/>
      <point x="241" y="189"/>
      <point x="230" y="239" type="curve" smooth="yes"/>
      <point x="194" y="397" type="line" smooth="yes"/>
      <point x="189" y="418"/>
      <point x="185" y="436"/>
      <point x="185" y="450" type="curve" smooth="yes"/>
      <point x="185" y="471"/>
      <point x="197" y="483"/>
      <point x="228" y="483" type="curve" smooth="yes"/>
      <point x="232" y="483" type="line"/>
      <point x="232" y="536" type="line"/>
      <point x="-3" y="536" type="line"/>
      <point x="-3" y="483" type="line"/>
      <point x="2" y="483" type="line" smooth="yes"/>
      <point x="22" y="483"/>
      <point x="33" y="477"/>
      <point x="44" y="436" type="curve" smooth="yes"/>
      <point x="170" y="-9" type="line"/>
      <point x="149" y="-106"/>
      <point x="116" y="-170"/>
      <point x="14" y="-170" type="curve"/>
    </contour>
  </outline>
</glyph>
<glyph name="yen" format="2">
  <advance width="397"/>
  <unicode hex="00A5"/>
  <outline>
    <contour>
      <point x="74" y="0" type="line"/>
      <point x="332" y="0" type="line"/>
      <point x="332" y="53" type="line"/>
      <point x="316" y="53" type="line" smooth="yes"/>
      <point x="283" y="53"/>
      <point x="271" y="71"/>
      <point x="271" y="121" type="curve" smooth="yes"/>
      <point x="271" y="162" type="line"/>
      <point x="372" y="162" type="line"/>
      <point x="372" y="220" type="line"/>
      <point x="271" y="220" type="line"/>
      <point x="271" y="283" type="line"/>
      <point x="372" y="283" type="line"/>
      <point x="372" y="341" type="line"/>
      <point x="273" y="341" type="line"/>
      <point x="347" y="585" type="line" smooth="yes"/>
      <point x="364" y="646"/>
      <point x="374" y="661"/>
      <point x="394" y="661" type="curve" smooth="yes"/>
      <point x="395" y="661" type="line"/>
      <point x="395" y="714" type="line"/>
      <point x="256" y="714" type="line"/>
      <point x="256" y="661" type="line"/>
      <point x="257" y="661" type="line" smooth="yes"/>
      <point x="282" y="661"/>
      <point x="298" y="650"/>
      <point x="298" y="623" type="curve" smooth="yes"/>
      <point x="298" y="600"/>
      <point x="290" y="570"/>
      <point x="282" y="541" type="curve" smooth="yes"/>
      <point x="253" y="435" type="line" smooth="yes"/>
      <point x="246" y="407"/>
      <point x="240" y="383"/>
      <point x="235" y="362" type="curve"/>
      <point x="233" y="390"/>
      <point x="225" y="425"/>
      <point x="215" y="468" type="curve" smooth="yes"/>
      <point x="190" y="563" type="line" smooth="yes"/>
      <point x="184" y="587"/>
      <point x="179" y="608"/>
      <point x="179" y="624" type="curve" smooth="yes"/>
      <point x="179" y="651"/>
      <point x="191" y="661"/>
      <point x="217" y="661" type="curve" smooth="yes"/>
      <point x="222" y="661" type="line"/>
      <point x="222" y="714" type="line"/>
      <point x="-1" y="714" type="line"/>
      <point x="-1" y="661" type="line"/>
      <point x="3" y="661" type="line" smooth="yes"/>
      <point x="20" y="661"/>
      <point x="27" y="649"/>
      <point x="40" y="608" type="curve" smooth="yes"/>
      <point x="123" y="341" type="line"/>
      <point x="34" y="341" type="line"/>
      <point x="34" y="283" type="line"/>
      <point x="134" y="283" type="line"/>
      <point x="134" y="220" type="line"/>
      <point x="34" y="220" type="line"/>
      <point x="34" y="162" type="line"/>
      <point x="134" y="162" type="line"/>
      <point x="134" y="119" type="line" smooth="yes"/>
      <point x="134" y="74"/>
      <point x="122" y="53"/>
      <point x="90" y="53" type="curve" smooth="yes"/>
      <point x="74" y="53" type="line"/>
    </contour>
  </outline>
</glyph>
<glyph name="plusminus" format="2">
  <advance width="329"/>
  <unicode hex="00B1"/>
  <outline>
    <contour>
      <point x="17" y="0" type="line"/>
      <point x="312" y="0" type="line"/>
      <point x="312" y="69" type="line"/>
      <point x="17" y="69" type="line"/>
    </contour>
    <component base="plus"/>
  </outline>
</glyph>
<glyph name="threesuperior" format="2">
  <advance width="288"/>
  <unicode hex="00B3"/>
  <outline>
    <contour>
      <point x="128" y="380" type="curve" smooth="yes"/>
      <point x="227" y="380"/>
      <point x="274" y="430"/>
      <point x="274" y="509" type="curve" smooth="yes"/>
      <point x="274" y="578"/>
      <point x="231" y="603"/>
      <point x="188" y="612" type="curve"/>
      <point x="188" y="615" type="line"/>
      <point x="227" y="630"/>
      <point x="262" y="663"/>
      <point x="262" y="723" type="curve" smooth="yes"/>
      <point x="262" y="785"/>
      <point x="228" y="824"/>
      <point x="141" y="824" type="curve" smooth="yes"/>
      <point x="56" y="824"/>
      <point x="22" y="784"/>
      <point x="22" y="738" type="curve" smooth="yes"/>
      <point x="22" y="704"/>
      <point x="46" y="691"/>
      <point x="93" y="691" type="curve"/>
      <point x="93" y="741"/>
      <point x="95" y="778"/>
      <point x="127" y="778" type="curve" smooth="yes"/>
      <point x="147" y="778"/>
      <point x="159" y="756"/>
      <point x="159" y="716" type="curve" smooth="yes"/>
      <point x="159" y="665"/>
      <point x="144" y="634"/>
      <point x="107" y="634" type="curve" smooth="yes"/>
      <point x="80" y="634" type="line"/>
      <point x="80" y="584" type="line"/>
      <point x="107" y="584" type="line" smooth="yes"/>
      <point x="154" y="584"/>
      <point x="168" y="555"/>
      <point x="168" y="512" type="curve" smooth="yes"/>
      <point x="168" y="452"/>
      <point x="145" y="432"/>
      <point x="118" y="432" type="curve" smooth="yes"/>
      <point x="86" y="432"/>
      <point x="70" y="468"/>
      <point x="70" y="517" type="curve"/>
      <point x="30" y="517"/>
      <point x="11" y="500"/>
      <point x="11" y="468" type="curve" smooth="yes"/>
      <point x="11" y="419"/>
      <point x="45" y="380"/>
    </contour>
  </outline>
</glyph>
<glyph name="cedilla" format="2">
  <advance width="240"/>
  <unicode hex="00B8"/>
  <outline>
    <contour>
      <point x="97" y="-237" type="curve" smooth="yes"/>
      <point x="160" y="-237"/>
      <point x="207" y="-197"/>
      <point x="207" y="-128" type="curve" smooth="yes"/>
      <point x="207" y="-73"/>
      <point x="172" y="-41"/>
      <point x="124" y="-36" type="curve"/>
      <point x="130" y="9" type="line"/>
      <point x="85" y="9" type="line"/>
      <point x="70" y="-79" type="line"/>
      <point x="100" y="-84"/>
      <point x="124" y="-91"/>
      <point x="124" y="-130" type="curve" smooth="yes"/>
      <point x="124" y="-167"/>
      <point x="107" y="-177"/>
      <point x="79" y="-177" type="curve" smooth="yes"/>
      <point x="66" y="-177"/>
      <point x="49" y="-174"/>
      <point x="30" y="-169" type="curve"/>
      <point x="30" y="-226" type="line"/>
      <point x="49" y="-233"/>
      <point x="84" y="-237"/>
    </contour>
  </outline>
</glyph>
<glyph name="guillemotright" format="2">
  <advance width="421"/>
  <unicode hex="00BB"/>
  <outline>
    <contour>
      <point x="204" y="71" type="line"/>
      <point x="266" y="71" type="line"/>
      <point x="376" y="245" type="line"/>
      <point x="376" y="295" type="line"/>
      <point x="266" y="469" type="line"/>
      <point x="204" y="469" type="line"/>
      <point x="277" y="270" type="line"/>
    </contour>
    <contour>
      <point x="47" y="71" type="line"/>
      <point x="108" y="71" type="line"/>
      <point x="218" y="245" type="line"/>
      <point x="218" y="295" type="line"/>
      <point x="108" y="469" type="line"/>
      <point x="47" y="469" type="line"/>
      <point x="119" y="270" type="line"/>
    </contour>
  </outline>
</glyph>
<glyph name="multiply" format="2">
  <advance width="329"/>
  <unicode hex="00D7"/>
  <outline>
    <contour>
      <point x="58" y="167" type="line"/>
      <point x="162" y="305" type="line"/>
      <point x="263" y="172" type="line"/>
      <point x="316" y="213" type="line"/>
      <point x="203" y="361" type="line"/>
      <point x="316" y="508" type="line"/>
      <point x="262" y="547" type="line"/>
      <point x="162" y="414" type="line"/>
      <point x="59" y="552" type="line"/>
      <point x="6" y="513" type="line"/>
      <point x="123" y="361" type="line"/>
      <point x="6" y="207" type="line"/>
    </contour>
  </outline>
</glyph>
<glyph name="eth" format="2">
  <advance width="462"/>
  <unicode hex="00F0"/>
  <anchor x="232" y="0" name="bottom"/>
  <anchor x="232" y="762" name="top"/>
  <outline>
    <contour>
      <point x="229" y="-10" type="curve" smooth="yes"/>
      <point x="362" y="-10"/>
      <point x="433" y="86"/>
      <point x="433" y="288" type="curve" smooth="yes"/>
      <point x="433" y="461"/>
      <point x="387" y="583"/>
      <point x="306" y="661" type="curve"/>
      <point x="341" y="696" type="line"/>
      <point x="341" y="762" type="line"/>
      <point x="252" y="698" type="line"/>
      <point x="198" y="735"/>
      <point x="141" y="750"/>
      <point x="99" y="761" type="curve"/>
      <point x="99" y="696" type="line"/>
      <point x="123" y="689"/>
      <point x="155" y="676"/>
      <point x="178" y="654" type="curve"/>
      <point x="120" y="612" type="line"/>
      <point x="120" y="548" type="line"/>
      <point x="223" y="615" type="line"/>
      <point x="253" y="580"/>
      <point x="272" y="533"/>
      <point x="283" y="484" type="curve"/>
      <point x="269" y="503"/>
      <point x="238" y="519"/>
      <point x="199" y="519" type="curve" smooth="yes"/>
      <point x="94" y="519"/>
      <point x="29" y="431"/>
      <point x="29" y="254" type="curve" smooth="yes"/>
      <point x="29" y="80"/>
      <point x="104" y="-10"/>
    </contour>
    <contour>
      <point x="232" y="53" type="curve" smooth="yes"/>
      <point x="188" y="53"/>
      <point x="174" y="122"/>
      <point x="174" y="255" type="curve" smooth="yes"/>
      <point x="174" y="392"/>
      <point x="189" y="454"/>
      <point x="231" y="454" type="curve" smooth="yes"/>
      <point x="274" y="454"/>
      <point x="291" y="391"/>
      <point x="291" y="255" type="curve" smooth="yes"/>
      <point x="291" y="122"/>
      <point x="274" y="53"/>
    </contour>
  </outline>
</glyph>
<glyph name="kgreenlandic" format="2">
  <advance width="487"/>
  <unicode hex="0138"/>
  <anchor x="244" y="0" name="bottom"/>
  <anchor x="244" y="536" name="top"/>
  <outline>
    <contour>
      <point x="11" y="0" type="line"/>
      <point x="268" y="0" type="line"/>
      <point x="268" y="53" type="line"/>
      <point x="254" y="53" type="line" smooth="yes"/>
      <point x="242" y="53"/>
      <point x="211" y="61"/>
      <point x="211" y="118" type="curve" smooth="yes"/>
      <point x="211" y="196" type="line"/>
      <point x="219" y="233" type="line"/>
      <point x="279" y="90" type="line" smooth="yes"/>
      <point x="311" y="6"/>
      <point x="355" y="0"/>
      <point x="477" y="0" type="curve" smooth="yes"/>
      <point x="486" y="0" type="line"/>
      <point x="486" y="53" type="line"/>
      <point x="485" y="53" type="line" smooth="yes"/>
      <point x="469" y="53"/>
      <point x="439" y="78"/>
      <point x="414" y="131" type="curve" smooth="yes"/>
      <point x="318" y="331" type="line"/>
      <point x="361" y="401" type="line" smooth="yes"/>
      <point x="395" y="460"/>
      <point x="428" y="487"/>
      <point x="460" y="487" type="curve"/>
      <point x="460" y="536" type="line"/>
      <point x="262" y="536" type="line"/>
      <point x="262" y="487" type="line"/>
      <point x="285" y="487"/>
      <point x="301" y="475"/>
      <point x="301" y="458" type="curve" smooth="yes"/>
      <point x="301" y="450"/>
      <point x="306" y="435"/>
      <point x="288" y="415" type="curve" smooth="yes"/>
      <point x="206" y="269" type="line"/>
      <point x="206" y="269"/>
      <point x="211" y="338"/>
      <point x="211" y="374" type="curve" smooth="yes"/>
      <point x="211" y="536" type="line"/>
      <point x="11" y="536" type="line"/>
      <point x="11" y="483" type="line"/>
      <point x="23" y="483" type="line" smooth="yes"/>
      <point x="34" y="483"/>
      <point x="67" y="476"/>
      <point x="67" y="422" type="curve" smooth="yes"/>
      <point x="67" y="118" type="line" smooth="yes"/>
      <point x="67" y="60"/>
      <point x="35" y="53"/>
      <point x="23" y="53" type="curve" smooth="yes"/>
      <point x="11" y="53" type="line"/>
    </contour>
  </outline>
</glyph>
<glyph name="Lslash" format="2">
  <advance width="490"/>
  <unicode hex="0141"/>
  <anchor x="246" y="0" name="bottom"/>
  <anchor x="246" y="714" name="top"/>
  <outline>
    <contour>
      <point x="16" y="0" type="line"/>
      <point x="467" y="0" type="line"/>
      <point x="471" y="222" type="line"/>
      <point x="429" y="222" type="line"/>
      <point x="413" y="147" type="line" smooth="yes"/>
      <point x="400" y="87"/>
      <point x="381" y="61"/>
      <point x="357" y="61" type="curve" smooth="yes"/>
      <point x="227" y="61" type="line"/>
      <point x="227" y="370" type="line"/>
      <point x="326" y="453" type="line"/>
      <point x="326" y="520" type="line"/>
      <point x="227" y="436" type="line"/>
      <point x="227" y="606" type="line" smooth="yes"/>
      <point x="227" y="648"/>
      <point x="233" y="661"/>
      <point x="259" y="661" type="curve" smooth="yes"/>
      <point x="294" y="661" type="line"/>
      <point x="294" y="714" type="line"/>
      <point x="16" y="714" type="line"/>
      <point x="16" y="661" type="line"/>
      <point x="48" y="661" type="line" smooth="yes"/>
      <point x="67" y="661"/>
      <point x="81" y="648"/>
      <point x="81" y="602" type="curve" smooth="yes"/>
      <point x="81" y="345" type="line"/>
      <point x="28" y="296" type="line"/>
      <point x="28" y="231" type="line"/>
      <point x="81" y="279" type="line"/>
      <point x="81" y="109" type="line" smooth="yes"/>
      <point x="81" y="66"/>
      <point x="67" y="53"/>
      <point x="54" y="53" type="curve" smooth="yes"/>
      <point x="16" y="53" type="line"/>
    </contour>
  </outline>
</glyph>
<glyph name="Eng" format="2">
  <advance width="583"/>
  <unicode hex="014A"/>
  <anchor x="291" y="-240" name="bottom"/>
  <anchor x="291" y="714" name="top"/>
  <outline>
    <contour>
      <point x="347" y="-240" type="line"/>
      <point x="385" y="-240" type="line" smooth="yes"/>
      <point x="466" y="-240"/>
      <point x="511" y="-181"/>
      <point x="511" y="-3" type="curve" smooth="yes"/>
      <point x="511" y="596" type="line" smooth="yes"/>
      <point x="511" y="648"/>
      <point x="525" y="661"/>
      <point x="547" y="661" type="curve" smooth="yes"/>
      <point x="576" y="661" type="line"/>
      <point x="576" y="714" type="line"/>
      <point x="383" y="714" type="line"/>
      <point x="383" y="661" type="line"/>
      <point x="415" y="661" type="line" smooth="yes"/>
      <point x="433" y="661"/>
      <point x="449" y="649"/>
      <point x="449" y="600" type="curve" smooth="yes"/>
      <point x="449" y="210" type="line"/>
      <point x="197" y="714" type="line"/>
      <point x="16" y="714" type="line"/>
      <point x="16" y="661" type="line"/>
      <point x="46" y="661" type="line" smooth="yes"/>
      <point x="64" y="661"/>
      <point x="81" y="654"/>
      <point x="81" y="600" type="curve" smooth="yes"/>
      <point x="81" y="118" type="line" smooth="yes"/>
      <point x="81" y="60"/>
      <point x="65" y="53"/>
      <point x="39" y="53" type="curve" smooth="yes"/>
      <point x="16" y="53" type="line"/>
      <point x="16" y="0" type="line"/>
      <point x="209" y="0" type="line"/>
      <point x="209" y="53" type="line"/>
      <point x="178" y="53" type="line" smooth="yes"/>
      <point x="153" y="53"/>
      <point x="143" y="60"/>
      <point x="143" y="118" type="curve" smooth="yes"/>
      <point x="143" y="560" type="line"/>
      <point x="449" y="2" type="line"/>
      <point x="449" y="-9" type="line" smooth="yes"/>
      <point x="449" y="-132"/>
      <point x="407" y="-182"/>
      <point x="363" y="-182" type="curve" smooth="yes"/>
      <point x="347" y="-182" type="line"/>
    </contour>
  </outline>
</glyph>
<glyph name="uni0181" format="2">
  <advance width="648"/>
  <unicode hex="0181"/>
  <anchor x="313" y="0" name="bottom"/>
  <anchor x="313" y="714" name="top"/>
  <outline>
    <contour>
      <point x="143" y="0" type="line"/>
      <point x="402" y="0" type="line" smooth="yes"/>
      <point x="554" y="0"/>
      <point x="627" y="64"/>
      <point x="627" y="196" type="curve" smooth="yes"/>
      <point x="627" y="303"/>
      <point x="574" y="361"/>
      <point x="498" y="376" type="curve"/>
      <point x="498" y="381" type="line"/>
      <point x="556" y="403"/>
      <point x="606" y="450"/>
      <point x="606" y="540" type="curve" smooth="yes"/>
      <point x="606" y="664"/>
      <point x="526" y="714"/>
      <point x="381" y="714" type="curve" smooth="yes"/>
      <point x="170" y="714" type="line" smooth="yes"/>
      <point x="53" y="714"/>
      <point x="6" y="653"/>
      <point x="6" y="573" type="curve" smooth="yes"/>
      <point x="6" y="520"/>
      <point x="29" y="484"/>
      <point x="70" y="484" type="curve" smooth="yes"/>
      <point x="91" y="484"/>
      <point x="103" y="492"/>
      <point x="118" y="505" type="curve"/>
      <point x="103" y="525"/>
      <point x="93" y="544"/>
      <point x="93" y="575" type="curve" smooth="yes"/>
      <point x="93" y="640"/>
      <point x="123" y="661"/>
      <point x="158" y="661" type="curve" smooth="yes"/>
      <point x="201" y="661"/>
      <point x="210" y="635"/>
      <point x="210" y="570" type="curve" smooth="yes"/>
      <point x="210" y="114" type="line" smooth="yes"/>
      <point x="210" y="70"/>
      <point x="199" y="53"/>
      <point x="180" y="53" type="curve" smooth="yes"/>
      <point x="143" y="53" type="line"/>
    </contour>
    <contour>
      <point x="354" y="61" type="line"/>
      <point x="354" y="344" type="line"/>
      <point x="393" y="344" type="line" smooth="yes"/>
      <point x="445" y="344"/>
      <point x="472" y="297"/>
      <point x="472" y="199" type="curve" smooth="yes"/>
      <point x="472" y="96"/>
      <point x="442" y="61"/>
      <point x="391" y="61" type="curve" smooth="yes"/>
    </contour>
    <contour>
      <point x="354" y="405" type="line"/>
      <point x="354" y="653" type="line"/>
      <point x="371" y="653" type="line" smooth="yes"/>
      <point x="424" y="653"/>
      <point x="455" y="624"/>
      <point x="455" y="532" type="curve" smooth="yes"/>
      <point x="455" y="442"/>
      <point x="427" y="405"/>
      <point x="373" y="405" type="curve" smooth="yes"/>
    </contour>
  </outline>
</glyph>
<glyph name="uni0188" format="2">
  <advance width="401"/>
  <unicode hex="0188"/>
  <anchor x="200" y="0" name="bottom"/>
  <anchor x="200" y="760" name="top"/>
  <outline>
    <contour>
      <point x="221" y="-10" type="curve" smooth="yes"/>
      <point x="330" y="-10"/>
      <point x="372" y="54"/>
      <point x="372" y="102" type="curve" smooth="yes"/>
      <point x="372" y="120"/>
      <point x="367" y="137"/>
      <point x="351" y="148" type="curve"/>
      <point x="335" y="100"/>
      <point x="294" y="60"/>
      <point x="240" y="60" type="curve" smooth="yes"/>
      <point x="192" y="60"/>
      <point x="172" y="131"/>
      <point x="172" y="266" type="curve" smooth="yes"/>
      <point x="172" y="438"/>
      <point x="192" y="489"/>
      <point x="222" y="489" type="curve" smooth="yes"/>
      <point x="250" y="489"/>
      <point x="259" y="429"/>
      <point x="259" y="360" type="curve"/>
      <point x="360" y="360"/>
      <point x="375" y="401"/>
      <point x="375" y="444" type="curve" smooth="yes"/>
      <point x="375" y="566" type="line" smooth="yes"/>
      <point x="375" y="646"/>
      <point x="394" y="667"/>
      <point x="427" y="667" type="curve" smooth="yes"/>
      <point x="444" y="667"/>
      <point x="456" y="659"/>
      <point x="468" y="650" type="curve"/>
      <point x="474" y="660"/>
      <point x="480" y="676"/>
      <point x="480" y="695" type="curve" smooth="yes"/>
      <point x="480" y="735"/>
      <point x="460" y="760"/>
      <point x="417" y="760" type="curve" smooth="yes"/>
      <point x="350" y="760"/>
      <point x="315" y="693"/>
      <point x="315" y="602" type="curve" smooth="yes"/>
      <point x="315" y="528" type="line"/>
      <point x="294" y="541"/>
      <point x="263" y="549"/>
      <point x="219" y="549" type="curve" smooth="yes"/>
      <point x="113" y="549"/>
      <point x="29" y="482"/>
      <point x="29" y="265" type="curve" smooth="yes"/>
      <point x="29" y="62"/>
      <point x="104" y="-10"/>
    </contour>
  </outline>
</glyph>
<glyph name="uni0225" format="2">
  <advance width="392"/>
  <unicode hex="0225"/>
  <anchor x="196" y="0" name="bottom"/>
  <anchor x="196" y="536" name="top"/>
  <outline>
    <contour>
      <point x="298" y="-191" type="curve"/>
      <point x="356" y="-187"/>
      <point x="401" y="-147"/>
      <point x="401" y="-70" type="curve" smooth="yes"/>
      <point x="401" y="24"/>
      <point x="350" y="63"/>
      <point x="260" y="63" type="curve" smooth="yes"/>
      <point x="157" y="63" type="line"/>
      <point x="373" y="494" type="line"/>
      <point x="373" y="536" type="line"/>
      <point x="35" y="536" type="line"/>
      <point x="25" y="376" type="line"/>
      <point x="78" y="376" type="line"/>
      <point x="85" y="403" type="line" smooth="yes"/>
      <point x="97" y="458"/>
      <point x="111" y="473"/>
      <point x="138" y="473" type="curve" smooth="yes"/>
      <point x="216" y="473" type="line"/>
      <point x="0" y="40" type="line"/>
      <point x="0" y="0" type="line"/>
      <point x="229" y="0" type="line" smooth="yes"/>
      <point x="283" y="0"/>
      <point x="314" y="-24"/>
      <point x="314" y="-98" type="curve" smooth="yes"/>
      <point x="314" y="-126"/>
      <point x="310" y="-153"/>
    </contour>
  </outline>
</glyph>
<glyph name="uni0235" format="2">
  <advance width="443"/>
  <unicode hex="0235"/>
  <anchor x="221" y="0" name="bottom"/>
  <anchor x="221" y="536" name="top"/>
  <outline>
    <contour>
      <point x="338" y="-58" type="line"/>
      <point x="338" y="-27"/>
      <point x="353" y="11"/>
      <point x="359" y="28" type="curve"/>
      <point x="368" y="15"/>
      <point x="405" y="-9"/>
      <point x="463" y="-9" type="curve" smooth="yes"/>
      <point x="549" y="-9"/>
      <point x="568" y="53"/>
      <point x="568" y="95" type="curve" smooth="yes"/>
      <point x="568" y="167"/>
      <point x="524" y="195"/>
      <point x="468" y="195" type="curve" smooth="yes"/>
      <point x="452" y="195"/>
      <point x="439" y="193"/>
      <point x="431" y="192" type="curve"/>
      <point x="431" y="355" type="line" smooth="yes"/>
      <point x="431" y="491"/>
      <point x="391" y="549"/>
      <point x="314" y="549" type="curve" smooth="yes"/>
      <point x="251" y="549"/>
      <point x="223" y="516"/>
      <point x="205" y="464" type="curve"/>
      <point x="201" y="464" type="line"/>
      <point x="192" y="536" type="line"/>
      <point x="12" y="536" type="line"/>
      <point x="12" y="483" type="line"/>
      <point x="16" y="483" type="line" smooth="yes"/>
      <point x="47" y="483"/>
      <point x="62" y="474"/>
      <point x="62" y="419" type="curve" smooth="yes"/>
      <point x="62" y="121" type="line" smooth="yes"/>
      <point x="62" y="62"/>
      <point x="46" y="53"/>
      <point x="13" y="53" type="curve" smooth="yes"/>
      <point x="9" y="53" type="line"/>
      <point x="9" y="0" type="line"/>
      <point x="266" y="0" type="line"/>
      <point x="266" y="53" type="line"/>
      <point x="263" y="53" type="line" smooth="yes"/>
      <point x="222" y="53"/>
      <point x="204" y="61"/>
      <point x="204" y="118" type="curve" smooth="yes"/>
      <point x="204" y="309" type="line" smooth="yes"/>
      <point x="204" y="390"/>
      <point x="215" y="466"/>
      <point x="251" y="466" type="curve" smooth="yes"/>
      <point x="283" y="466"/>
      <point x="290" y="415"/>
      <point x="290" y="330" type="curve" smooth="yes"/>
      <point x="290" y="211" type="line" smooth="yes"/>
      <point x="290" y="167"/>
      <point x="298" y="116"/>
      <point x="309" y="89" type="curve"/>
      <point x="293" y="66"/>
      <point x="272" y="4"/>
      <point x="272" y="-50" type="curve"/>
    </contour>
    <contour>
      <point x="467" y="66" type="curve" smooth="yes"/>
      <point x="450" y="66"/>
      <point x="431" y="77"/>
      <point x="431" y="125" type="curve" smooth="yes"/>
      <point x="431" y="131" type="line"/>
      <point x="435" y="132"/>
      <point x="437" y="134"/>
      <point x="452" y="134" type="curve" smooth="yes"/>
      <point x="473" y="134"/>
      <point x="488" y="122"/>
      <point x="488" y="97" type="curve" smooth="yes"/>
      <point x="488" y="77"/>
      <point x="479" y="66"/>
    </contour>
  </outline>
</glyph>
<glyph name="uni023A" format="2">
  <advance width="570"/>
  <unicode hex="023A"/>
  <anchor x="286" y="0" name="bottom"/>
  <anchor x="286" y="714" name="top"/>
  <anchor x="466" y="714" name="topright"/>
  <outline>
    <contour>
      <point x="151" y="-91" type="line"/>
      <point x="213" y="-91" type="line"/>
      <point x="414" y="760" type="line"/>
      <point x="355" y="760" type="line"/>
    </contour>
    <component base="A"/>
  </outline>
</glyph>
<glyph name="uni023B" format="2">
  <advance width="513"/>
  <unicode hex="023B"/>
  <anchor x="291" y="0" name="bottom"/>
  <anchor x="291" y="714" name="top"/>
  <anchor x="493" y="714" name="topright"/>
  <outline>
    <contour>
      <point x="140" y="-83" type="line"/>
      <point x="202" y="-83" type="line"/>
      <point x="405" y="760" type="line"/>
      <point x="345" y="760" type="line"/>
    </contour>
    <component base="C"/>
  </outline>
</glyph>
<glyph name="uni0252" format="2">
  <advance width="487"/>
  <unicode hex="0252"/>
  <anchor x="243" y="0" name="bottom"/>
  <anchor x="243" y="536" name="top"/>
  <outline>
    <contour>
      <point x="316" y="-10" type="curve" smooth="yes"/>
      <point x="403" y="-10"/>
      <point x="459" y="78"/>
      <point x="459" y="267" type="curve"/>
      <point x="459" y="464"/>
      <point x="407" y="547"/>
      <point x="315" y="547" type="curve" smooth="yes"/>
      <point x="259" y="547"/>
      <point x="221" y="514"/>
      <point x="200" y="458" type="curve"/>
      <point x="196" y="458" type="line"/>
      <point x="179" y="516"/>
      <point x="151" y="547"/>
      <point x="91" y="547" type="curve" smooth="yes"/>
      <point x="48" y="547"/>
      <point x="24" y="542"/>
      <point x="9" y="537" type="curve"/>
      <point x="9" y="481" type="line"/>
      <point x="16" y="485"/>
      <point x="23" y="486"/>
      <point x="31" y="486" type="curve" smooth="yes"/>
      <point x="57" y="486"/>
      <point x="69" y="460"/>
      <point x="69" y="401" type="curve" smooth="yes"/>
      <point x="69" y="1" type="line"/>
      <point x="178" y="1" type="line"/>
      <point x="204" y="64" type="line"/>
      <point x="209" y="64" type="line"/>
      <point x="229" y="18"/>
      <point x="258" y="-10"/>
    </contour>
    <contour>
      <point x="267" y="59" type="curve" smooth="yes"/>
      <point x="222" y="59"/>
      <point x="211" y="135"/>
      <point x="211" y="269" type="curve"/>
      <point x="211" y="410"/>
      <point x="224" y="476"/>
      <point x="267" y="476" type="curve" smooth="yes"/>
      <point x="303" y="476"/>
      <point x="317" y="409"/>
      <point x="317" y="270" type="curve" smooth="yes"/>
      <point x="317" y="132"/>
      <point x="303" y="59"/>
    </contour>
  </outline>
</glyph>
<glyph name="uni0276" format="2">
  <advance width="632"/>
  <unicode hex="0276"/>
  <anchor x="316" y="0" name="bottom"/>
  <anchor x="316" y="536" name="top"/>
  <outline>
    <contour>
      <point x="229" y="-9" type="curve" smooth="yes"/>
      <point x="248" y="-9"/>
      <point x="268" y="-5"/>
      <point x="283" y="0" type="curve"/>
      <point x="615" y="0" type="line"/>
      <point x="618" y="152" type="line"/>
      <point x="569" y="152" type="line"/>
      <point x="565" y="118" type="line" smooth="yes"/>
      <point x="561" y="69"/>
      <point x="546" y="51"/>
      <point x="512" y="51" type="curve" smooth="yes"/>
      <point x="424" y="51" type="line"/>
      <point x="424" y="250" type="line"/>
      <point x="560" y="250" type="line"/>
      <point x="560" y="307" type="line"/>
      <point x="424" y="307" type="line"/>
      <point x="424" y="485" type="line"/>
      <point x="495" y="485" type="line" smooth="yes"/>
      <point x="522" y="485"/>
      <point x="544" y="469"/>
      <point x="547" y="417" type="curve" smooth="yes"/>
      <point x="548" y="385" type="line"/>
      <point x="598" y="385" type="line"/>
      <point x="599" y="535" type="line"/>
      <point x="288" y="535" type="line"/>
      <point x="271" y="540"/>
      <point x="250" y="543"/>
      <point x="229" y="543" type="curve" smooth="yes"/>
      <point x="97" y="543"/>
      <point x="27" y="441"/>
      <point x="27" y="269" type="curve" smooth="yes"/>
      <point x="27" y="91"/>
      <point x="97" y="-9"/>
    </contour>
    <contour>
      <point x="248" y="46" type="curve" smooth="yes"/>
      <point x="185" y="46"/>
      <point x="167" y="127"/>
      <point x="167" y="268" type="curve" smooth="yes"/>
      <point x="167" y="409"/>
      <point x="185" y="489"/>
      <point x="249" y="489" type="curve" smooth="yes"/>
      <point x="267" y="489"/>
      <point x="280" y="481"/>
      <point x="291" y="470" type="curve"/>
      <point x="291" y="65" type="line"/>
      <point x="281" y="52"/>
      <point x="266" y="46"/>
    </contour>
  </outline>
</glyph>
<glyph name="uni0290" format="2">
  <advance width="390"/>
  <unicode hex="0290"/>
  <anchor x="196" y="-197" name="bottom"/>
  <anchor x="196" y="536" name="top"/>
  <outline>
    <contour>
      <point x="421" y="-197" type="curve" smooth="yes"/>
      <point x="462" y="-197"/>
      <point x="484" y="-170"/>
      <point x="484" y="-134" type="curve" smooth="yes"/>
      <point x="484" y="-118"/>
      <point x="482" y="-105"/>
      <point x="474" y="-96" type="curve"/>
      <point x="462" y="-107"/>
      <point x="450" y="-112"/>
      <point x="434" y="-112" type="curve" smooth="yes"/>
      <point x="406" y="-112"/>
      <point x="384" y="-92"/>
      <point x="384" y="-27" type="curve" smooth="yes"/>
      <point x="384" y="0" type="line"/>
      <point x="384" y="180" type="line"/>
      <point x="332" y="180" type="line"/>
      <point x="328" y="148" type="line" smooth="yes"/>
      <point x="318" y="90"/>
      <point x="303" y="68"/>
      <point x="262" y="68" type="curve" smooth="yes"/>
      <point x="157" y="68" type="line"/>
      <point x="373" y="494" type="line"/>
      <point x="373" y="536" type="line"/>
      <point x="35" y="536" type="line"/>
      <point x="25" y="376" type="line"/>
      <point x="78" y="376" type="line"/>
      <point x="83" y="398" type="line" smooth="yes"/>
      <point x="95" y="451"/>
      <point x="110" y="468"/>
      <point x="140" y="468" type="curve" smooth="yes"/>
      <point x="214" y="468" type="line"/>
      <point x="0" y="40" type="line"/>
      <point x="0" y="0" type="line"/>
      <point x="328" y="0" type="line"/>
      <point x="328" y="-40" type="line" smooth="yes"/>
      <point x="328" y="-151"/>
      <point x="368" y="-197"/>
    </contour>
  </outline>
</glyph>
<glyph name="qhook" format="2">
  <advance width="486"/>
  <unicode hex="02A0"/>
  <anchor x="244" y="-240" name="bottom"/>
  <anchor x="244" y="766" name="top"/>
  <outline>
    <contour>
      <point x="200" y="-240" type="line"/>
      <point x="480" y="-240" type="line"/>
      <point x="480" y="-187" type="line"/>
      <point x="477" y="-187" type="line" smooth="yes"/>
      <point x="445" y="-187"/>
      <point x="419" y="-180"/>
      <point x="419" y="-124" type="curve" smooth="yes"/>
      <point x="419" y="601" type="line" smooth="yes"/>
      <point x="419" y="679"/>
      <point x="431" y="708"/>
      <point x="448" y="708" type="curve" smooth="yes"/>
      <point x="467" y="708"/>
      <point x="471" y="669"/>
      <point x="471" y="618" type="curve"/>
      <point x="550" y="618"/>
      <point x="566" y="647"/>
      <point x="566" y="683" type="curve" smooth="yes"/>
      <point x="566" y="722"/>
      <point x="547" y="766"/>
      <point x="439" y="766" type="curve" smooth="yes"/>
      <point x="320" y="766"/>
      <point x="277" y="699"/>
      <point x="277" y="570" type="curve" smooth="yes"/>
      <point x="277" y="556" type="line" smooth="yes"/>
      <point x="277" y="535"/>
      <point x="277" y="506"/>
      <point x="279" y="476" type="curve"/>
      <point x="275" y="476" type="line"/>
      <point x="253" y="520"/>
      <point x="223" y="546"/>
      <point x="183" y="546" type="curve" smooth="yes"/>
      <point x="81" y="546"/>
      <point x="27" y="460"/>
      <point x="27" y="268" type="curve" smooth="yes"/>
      <point x="27" y="75"/>
      <point x="81" y="-10"/>
      <point x="173" y="-10" type="curve" smooth="yes"/>
      <point x="225" y="-10"/>
      <point x="256" y="23"/>
      <point x="276" y="70" type="curve"/>
      <point x="282" y="70" type="line"/>
      <point x="279" y="50"/>
      <point x="277" y="-5"/>
      <point x="277" y="-48" type="curve" smooth="yes"/>
      <point x="277" y="-126" type="line" smooth="yes"/>
      <point x="277" y="-180"/>
      <point x="250" y="-187"/>
      <point x="221" y="-187" type="curve" smooth="yes"/>
      <point x="200" y="-187" type="line"/>
    </contour>
    <contour>
      <point x="220" y="59" type="curve" smooth="yes"/>
      <point x="184" y="59"/>
      <point x="170" y="131"/>
      <point x="170" y="267" type="curve" smooth="yes"/>
      <point x="170" y="410"/>
      <point x="184" y="475"/>
      <point x="221" y="475" type="curve" smooth="yes"/>
      <point x="264" y="475"/>
      <point x="277" y="407"/>
      <point x="277" y="267" type="curve" smooth="yes"/>
      <point x="277" y="132"/>
      <point x="264" y="59"/>
    </contour>
  </outline>
</glyph>
<glyph name="uni02A1" format="2">
  <advance width="416"/>
  <unicode hex="02A1"/>
  <anchor x="209" y="0" name="bottom"/>
  <anchor x="209" y="766" name="top"/>
  <outline>
    <contour>
      <point x="44" y="166" type="line"/>
      <point x="351" y="166" type="line"/>
      <point x="351" y="226" type="line"/>
      <point x="44" y="226" type="line"/>
    </contour>
    <component base="uni0294"/>
  </outline>
</glyph>
<glyph name="uni02AB" format="2">
  <advance width="585"/>
  <unicode hex="02AB"/>
  <anchor x="292" y="0" name="bottom"/>
  <anchor x="292" y="760" name="top"/>
  <outline>
    <contour>
      <point x="13" y="0" type="line"/>
      <point x="571" y="0" type="line"/>
      <point x="574" y="180" type="line"/>
      <point x="523" y="180" type="line"/>
      <point x="518" y="146" type="line" smooth="yes"/>
      <point x="508" y="82"/>
      <point x="493" y="63"/>
      <point x="453" y="63" type="curve" smooth="yes"/>
      <point x="242" y="63" type="line"/>
      <point x="564" y="494" type="line"/>
      <point x="564" y="536" type="line"/>
      <point x="209" y="536" type="line"/>
      <point x="209" y="760" type="line"/>
      <point x="13" y="760" type="line"/>
      <point x="13" y="707" type="line"/>
      <point x="23" y="707" type="line" smooth="yes"/>
      <point x="34" y="707"/>
      <point x="67" y="700"/>
      <point x="67" y="646" type="curve" smooth="yes"/>
      <point x="67" y="124" type="line" smooth="yes"/>
      <point x="67" y="66"/>
      <point x="48" y="53"/>
      <point x="23" y="53" type="curve" smooth="yes"/>
      <point x="13" y="53" type="line"/>
    </contour>
    <contour>
      <point x="207" y="216" type="line"/>
      <point x="209" y="473" type="line"/>
      <point x="409" y="473" type="line"/>
    </contour>
  </outline>
</glyph>
<glyph name="uni02C3" format="2">
  <advance width="197"/>
  <unicode hex="02C3"/>
  <outline>
    <contour>
      <point x="22" y="524" type="line"/>
      <point x="28" y="524" type="line"/>
      <point x="72" y="567"/>
      <point x="120" y="604"/>
      <point x="174" y="631" type="curve"/>
      <point x="174" y="680" type="line"/>
      <point x="118" y="710"/>
      <point x="71" y="742"/>
      <point x="28" y="786" type="curve"/>
      <point x="22" y="786" type="line"/>
      <point x="22" y="725" type="line"/>
      <point x="41" y="701"/>
      <point x="71" y="673"/>
      <point x="93" y="655" type="curve"/>
      <point x="71" y="638"/>
      <point x="40" y="611"/>
      <point x="22" y="585" type="curve"/>
    </contour>
  </outline>
</glyph>
<glyph name="ogonek" format="2">
  <advance width="362"/>
  <unicode hex="02DB"/>
  <outline>
    <contour>
      <point x="213" y="-237" type="curve" smooth="yes"/>
      <point x="228" y="-237"/>
      <point x="265" y="-231"/>
      <point x="279" y="-222" type="curve"/>
      <point x="279" y="-161" type="line"/>
      <point x="262" y="-168"/>
      <point x="246" y="-171"/>
      <point x="233" y="-171" type="curve" smooth="yes"/>
      <point x="205" y="-171"/>
      <point x="184" y="-155"/>
      <point x="184" y="-118" type="curve" smooth="yes"/>
      <point x="184" y="-55"/>
      <point x="220" y="-13"/>
      <point x="250" y="0" type="curve"/>
      <point x="183" y="0" type="line"/>
      <point x="141" y="-14"/>
      <point x="99" y="-66"/>
      <point x="99" y="-130" type="curve" smooth="yes"/>
      <point x="99" y="-204"/>
      <point x="136" y="-237"/>
    </contour>
  </outline>
</glyph>
<glyph name="uni02F8" format="2">
  <advance width="231"/>
  <unicode hex="02F8"/>
  <outline>
    <contour>
      <point x="116" y="600" type="curve" smooth="yes"/>
      <point x="153" y="600"/>
      <point x="185" y="620"/>
      <point x="185" y="679" type="curve" smooth="yes"/>
      <point x="185" y="742"/>
      <point x="153" y="760"/>
      <point x="116" y="760" type="curve" smooth="yes"/>
      <point x="77" y="760"/>
      <point x="45" y="742"/>
      <point x="45" y="679" type="curve" smooth="yes"/>
      <point x="45" y="620"/>
      <point x="77" y="600"/>
    </contour>
    <contour>
      <point x="116" y="202" type="curve" smooth="yes"/>
      <point x="153" y="202"/>
      <point x="185" y="222"/>
      <point x="185" y="281" type="curve" smooth="yes"/>
      <point x="185" y="342"/>
      <point x="153" y="361"/>
      <point x="116" y="361" type="curve" smooth="yes"/>
      <point x="77" y="361"/>
      <point x="45" y="342"/>
      <point x="45" y="281" type="curve" smooth="yes"/>
      <point x="45" y="222"/>
      <point x="77" y="202"/>
    </contour>
  </outline>
</glyph>
<glyph name="lefttackbelowcomb" format="2">
  <unicode hex="0318"/>
  <anchor x="0" y="0" name="_bottom"/>
  <anchor x="0" y="-211" name="bottom"/>
  <outline>
    <contour>
      <point x="16" y="-211" type="line"/>
      <point x="54" y="-211" type="line"/>
      <point x="54" y="-38" type="line"/>
      <point x="16" y="-38" type="line"/>
      <point x="16" y="-98" type="line"/>
      <point x="-54" y="-98" type="line"/>
      <point x="-54" y="-151" type="line"/>
      <point x="16" y="-151" type="line"/>
    </contour>
  </outline>
</glyph>
<glyph name="cedillacomb" format="2">
  <unicode hex="0327"/>
  <anchor x="0" y="0" name="_bottom"/>
  <anchor x="0" y="-240" name="bottom"/>
  <outline>
    <contour>
      <point x="-19" y="-240" type="curve" smooth="yes"/>
      <point x="43" y="-240"/>
      <point x="89" y="-197"/>
      <point x="89" y="-126" type="curve" smooth="yes"/>
      <point x="89" y="-73"/>
      <point x="53" y="-39"/>
      <point x="6" y="-34" type="curve"/>
      <point x="13" y="9" type="line"/>
      <point x="-34" y="9" type="line"/>
      <point x="-50" y="-78" type="line"/>
      <point x="-18" y="-81"/>
      <point x="5" y="-91"/>
      <point x="5" y="-130" type="curve" smooth="yes"/>
      <point x="5" y="-164"/>
      <point x="-13" y="-177"/>
      <point x="-39" y="-177" type="curve" smooth="yes"/>
      <point x="-52" y="-177"/>
      <point x="-71" y="-174"/>
      <point x="-89" y="-169" type="curve"/>
      <point x="-89" y="-229" type="line"/>
      <point x="-71" y="-236"/>
      <point x="-35" y="-240"/>
    </contour>
  </outline>
</glyph>
<glyph name="slashlongoverlaycomb" format="2">
  <unicode hex="0338"/>
  <anchor x="-8" y="344" name="_center"/>
  <outline>
    <contour>
      <point x="-101" y="-83" type="line"/>
      <point x="138" y="748" type="line"/>
      <point x="89" y="770" type="line"/>
      <point x="-153" y="-58" type="line"/>
    </contour>
  </outline>
</glyph>
<glyph name="xabovecomb" format="2">
  <unicode hex="033D"/>
  <anchor x="2" y="536" name="_top"/>
  <anchor x="2" y="753" name="top"/>
  <outline>
    <contour>
      <point x="-37" y="580" type="line"/>
      <point x="0" y="629" type="line"/>
      <point x="36" y="580" type="line"/>
      <point x="63" y="617" type="line"/>
      <point x="28" y="666" type="line"/>
      <point x="64" y="715" type="line"/>
      <point x="37" y="753" type="line"/>
      <point x="0" y="703" type="line"/>
      <point x="-37" y="753" type="line"/>
      <point x="-62" y="716" type="line"/>
      <point x="-28" y="666" type="line"/>
      <point x="-62" y="617" type="line"/>
    </contour>
  </outline>
</glyph>
<glyph name="fermatacomb" format="2">
  <unicode hex="0352"/>
  <anchor x="-2" y="536" name="_top"/>
  <anchor x="-2" y="861" name="top"/>
  <outline>
    <contour>
      <point x="-135" y="715" type="curve"/>
      <point x="-72" y="715" type="line"/>
      <point x="-63" y="763"/>
      <point x="-36" y="783"/>
      <point x="0" y="783" type="curve" smooth="yes"/>
      <point x="36" y="783"/>
      <point x="63" y="763"/>
      <point x="71" y="715" type="curve"/>
      <point x="133" y="715" type="line"/>
      <point x="133" y="790"/>
      <point x="80" y="861"/>
      <point x="0" y="861" type="curve"/>
      <point x="-83" y="861"/>
      <point x="-133" y="790"/>
    </contour>
    <contour>
      <point x="0" y="588" type="curve" smooth="yes"/>
      <point x="36" y="588"/>
      <point x="66" y="606"/>
      <point x="66" y="653" type="curve" smooth="yes"/>
      <point x="66" y="697"/>
      <point x="36" y="718"/>
      <point x="0" y="718" type="curve" smooth="yes"/>
      <point x="-41" y="718"/>
      <point x="-67" y="697"/>
      <point x="-67" y="653" type="curve"/>
      <point x="-67" y="606"/>
      <point x="-41" y="588"/>
    </contour>
  </outline>
</glyph>
<glyph name="doubleringbelowcomb" format="2">
  <unicode hex="035A"/>
  <anchor x="-2" y="0" name="_bottom"/>
  <anchor x="-2" y="-173" name="bottom"/>
  <outline>
    <contour>
      <point x="-55" y="-173" type="curve" smooth="yes"/>
      <point x="-32" y="-173"/>
      <point x="-12" y="-170"/>
      <point x="0" y="-163" type="curve"/>
      <point x="12" y="-170"/>
      <point x="30" y="-173"/>
      <point x="52" y="-173" type="curve" smooth="yes"/>
      <point x="94" y="-173"/>
      <point x="126" y="-163"/>
      <point x="126" y="-140" type="curve" smooth="yes"/>
      <point x="126" y="-116"/>
      <point x="94" y="-107"/>
      <point x="52" y="-107" type="curve" smooth="yes"/>
      <point x="30" y="-107"/>
      <point x="12" y="-110"/>
      <point x="0" y="-117" type="curve"/>
      <point x="-13" y="-109"/>
      <point x="-34" y="-107"/>
      <point x="-55" y="-107" type="curve" smooth="yes"/>
      <point x="-96" y="-107"/>
      <point x="-128" y="-116"/>
      <point x="-128" y="-140" type="curve" smooth="yes"/>
      <point x="-128" y="-163"/>
      <point x="-96" y="-173"/>
    </contour>
    <contour>
      <point x="-53" y="-157" type="curve" smooth="yes"/>
      <point x="-71" y="-157"/>
      <point x="-88" y="-152"/>
      <point x="-88" y="-140" type="curve" smooth="yes"/>
      <point x="-88" y="-127"/>
      <point x="-71" y="-123"/>
      <point x="-53" y="-123" type="curve" smooth="yes"/>
      <point x="-34" y="-123"/>
      <point x="-17" y="-127"/>
      <point x="-17" y="-140" type="curve" smooth="yes"/>
      <point x="-17" y="-152"/>
      <point x="-34" y="-157"/>
    </contour>
    <contour>
      <point x="52" y="-157" type="curve" smooth="yes"/>
      <point x="34" y="-157"/>
      <point x="16" y="-152"/>
      <point x="16" y="-140" type="curve" smooth="yes"/>
      <point x="16" y="-127"/>
      <point x="34" y="-123"/>
      <point x="52" y="-123" type="curve" smooth="yes"/>
      <point x="71" y="-123"/>
      <point x="88" y="-127"/>
      <point x="88" y="-140" type="curve" smooth="yes"/>
      <point x="88" y="-152"/>
      <point x="71" y="-157"/>
    </contour>
  </outline>
</glyph>
<glyph name="Psi" format="2">
  <advance width="787"/>
  <unicode hex="03A8"/>
  <anchor x="393" y="0" name="bottom"/>
  <anchor x="393" y="714" name="top"/>
  <outline>
    <contour>
      <point x="256" y="0" type="line"/>
      <point x="527" y="0" type="line"/>
      <point x="527" y="53" type="line"/>
      <point x="517" y="53" type="line" smooth="yes"/>
      <point x="484" y="53"/>
      <point x="459" y="60"/>
      <point x="459" y="114" type="curve" smooth="yes"/>
      <point x="459" y="238" type="line"/>
      <point x="489" y="238" type="line" smooth="yes"/>
      <point x="666" y="238"/>
      <point x="703" y="346"/>
      <point x="703" y="465" type="curve" smooth="yes"/>
      <point x="703" y="589" type="line" smooth="yes"/>
      <point x="703" y="652"/>
      <point x="730" y="661"/>
      <point x="762" y="661" type="curve"/>
      <point x="762" y="714" type="line"/>
      <point x="572" y="714" type="line"/>
      <point x="572" y="478" type="line" smooth="yes"/>
      <point x="572" y="351"/>
      <point x="552" y="296"/>
      <point x="473" y="296" type="curve" smooth="yes"/>
      <point x="459" y="296" type="line"/>
      <point x="459" y="593" type="line" smooth="yes"/>
      <point x="459" y="646"/>
      <point x="474" y="661"/>
      <point x="506" y="661" type="curve" smooth="yes"/>
      <point x="520" y="661" type="line"/>
      <point x="520" y="714" type="line"/>
      <point x="264" y="714" type="line"/>
      <point x="264" y="661" type="line"/>
      <point x="277" y="661" type="line" smooth="yes"/>
      <point x="309" y="661"/>
      <point x="326" y="646"/>
      <point x="326" y="593" type="curve" smooth="yes"/>
      <point x="326" y="296" type="line"/>
      <point x="310" y="296" type="line" smooth="yes"/>
      <point x="230" y="296"/>
      <point x="212" y="351"/>
      <point x="212" y="478" type="curve" smooth="yes"/>
      <point x="212" y="714" type="line"/>
      <point x="21" y="714" type="line"/>
      <point x="21" y="661" type="line"/>
      <point x="54" y="661"/>
      <point x="79" y="652"/>
      <point x="79" y="589" type="curve" smooth="yes"/>
      <point x="79" y="465" type="line" smooth="yes"/>
      <point x="79" y="346"/>
      <point x="117" y="238"/>
      <point x="294" y="238" type="curve" smooth="yes"/>
      <point x="326" y="238" type="line"/>
      <point x="326" y="114" type="line" smooth="yes"/>
      <point x="326" y="60"/>
      <point x="297" y="53"/>
      <point x="265" y="53" type="curve" smooth="yes"/>
      <point x="256" y="53" type="line"/>
    </contour>
  </outline>
</glyph>
<glyph name="delta" format="2">
  <advance width="463"/>
  <unicode hex="03B4"/>
  <anchor x="232" y="0" name="bottom"/>
  <anchor x="232" y="765" name="top"/>
  <outline>
    <contour>
      <point x="226" y="-10" type="curve" smooth="yes"/>
      <point x="352" y="-10"/>
      <point x="434" y="77"/>
      <point x="434" y="237" type="curve" smooth="yes"/>
      <point x="434" y="361"/>
      <point x="378" y="427"/>
      <point x="296" y="495" type="curve" smooth="yes"/>
      <point x="225" y="552"/>
      <point x="201" y="581"/>
      <point x="201" y="638" type="curve" smooth="yes"/>
      <point x="201" y="680"/>
      <point x="218" y="710"/>
      <point x="251" y="710" type="curve" smooth="yes"/>
      <point x="301" y="710"/>
      <point x="316" y="658"/>
      <point x="316" y="591" type="curve"/>
      <point x="367" y="591"/>
      <point x="401" y="615"/>
      <point x="401" y="662" type="curve" smooth="yes"/>
      <point x="401" y="707"/>
      <point x="373" y="765"/>
      <point x="255" y="765" type="curve" smooth="yes"/>
      <point x="155" y="765"/>
      <point x="88" y="709"/>
      <point x="88" y="617" type="curve" smooth="yes"/>
      <point x="88" y="537"/>
      <point x="116" y="498"/>
      <point x="175" y="445" type="curve"/>
      <point x="84" y="408"/>
      <point x="30" y="345"/>
      <point x="30" y="214" type="curve" smooth="yes"/>
      <point x="30" y="71"/>
      <point x="106" y="-10"/>
    </contour>
    <contour>
      <point x="229" y="53" type="curve" smooth="yes"/>
      <point x="193" y="53"/>
      <point x="175" y="109"/>
      <point x="175" y="216" type="curve" smooth="yes"/>
      <point x="175" y="340"/>
      <point x="200" y="389"/>
      <point x="220" y="410" type="curve"/>
      <point x="261" y="365"/>
      <point x="289" y="321"/>
      <point x="289" y="213" type="curve" smooth="yes"/>
      <point x="289" y="108"/>
      <point x="262" y="53"/>
    </contour>
  </outline>
</glyph>
<glyph name="zeta" format="2">
  <advance width="380"/>
  <unicode hex="03B6"/>
  <anchor x="190" y="-203" name="bottom"/>
  <anchor x="190" y="793" name="top"/>
  <outline>
    <contour>
      <point x="192" y="-203" type="line"/>
      <point x="312" y="-190"/>
      <point x="370" y="-126"/>
      <point x="370" y="-35" type="curve" smooth="yes"/>
      <point x="370" y="39"/>
      <point x="345" y="70"/>
      <point x="288" y="88" type="curve" smooth="yes"/>
      <point x="203" y="117"/>
      <point x="170" y="143"/>
      <point x="170" y="255" type="curve" smooth="yes"/>
      <point x="170" y="379"/>
      <point x="189" y="524"/>
      <point x="241" y="638" type="curve"/>
      <point x="253" y="636"/>
      <point x="266" y="634"/>
      <point x="275" y="634" type="curve" smooth="yes"/>
      <point x="354" y="635"/>
      <point x="385" y="672"/>
      <point x="385" y="718" type="curve" smooth="yes"/>
      <point x="385" y="749"/>
      <point x="364" y="766"/>
      <point x="335" y="766" type="curve" smooth="yes"/>
      <point x="293" y="766"/>
      <point x="256" y="732"/>
      <point x="231" y="705" type="curve"/>
      <point x="161" y="713"/>
      <point x="117" y="750"/>
      <point x="67" y="793" type="curve"/>
      <point x="37" y="742" type="line"/>
      <point x="82" y="703"/>
      <point x="140" y="663"/>
      <point x="193" y="654" type="curve"/>
      <point x="85" y="532"/>
      <point x="30" y="376"/>
      <point x="30" y="211" type="curve" smooth="yes"/>
      <point x="30" y="77"/>
      <point x="75" y="22"/>
      <point x="158" y="-2" type="curve" smooth="yes"/>
      <point x="236" y="-28"/>
      <point x="262" y="-36"/>
      <point x="262" y="-76" type="curve" smooth="yes"/>
      <point x="262" y="-117"/>
      <point x="239" y="-140"/>
      <point x="192" y="-154" type="curve"/>
    </contour>
  </outline>
</glyph>
<glyph name="upsilon" format="2">
  <advance width="479"/>
  <unicode hex="03C5"/>
  <anchor x="239" y="0" name="bottom"/>
  <anchor x="239" y="536" name="top"/>
  <outline>
    <contour>
      <point x="240" y="-10" type="curve" smooth="yes"/>
      <point x="380" y="-10"/>
      <point x="430" y="145"/>
      <point x="430" y="322" type="curve" smooth="yes"/>
      <point x="430" y="467"/>
      <point x="390" y="544"/>
      <point x="341" y="544" type="curve" smooth="yes"/>
      <point x="299" y="544"/>
      <point x="286" y="507"/>
      <point x="286" y="464" type="curve"/>
      <point x="321" y="453"/>
      <point x="370" y="415"/>
      <point x="370" y="289" type="curve" smooth="yes"/>
      <point x="370" y="152"/>
      <point x="332" y="63"/>
      <point x="273" y="63" type="curve" smooth="yes"/>
      <point x="225" y="63"/>
      <point x="203" y="103"/>
      <point x="203" y="209" type="curve" smooth="yes"/>
      <point x="203" y="536" type="line"/>
      <point x="24" y="536" type="line"/>
      <point x="24" y="483" type="line"/>
      <point x="28" y="483" type="line" smooth="yes"/>
      <point x="59" y="483"/>
      <point x="63" y="472"/>
      <point x="63" y="420" type="curve" smooth="yes"/>
      <point x="63" y="216" type="line" smooth="yes"/>
      <point x="63" y="77"/>
      <point x="112" y="-10"/>
    </contour>
  </outline>
</glyph>
<glyph name="uni03D2" format="2">
  <advance width="563"/>
  <unicode hex="03D2"/>
  <anchor x="282" y="714" name="top"/>
  <outline>
    <contour>
      <point x="121" y="0" type="line"/>
      <point x="420" y="0" type="line"/>
      <point x="420" y="53" type="line"/>
      <point x="385" y="53" type="line"/>
      <point x="363" y="53"/>
      <point x="345" y="63"/>
      <point x="345" y="121" type="curve" smooth="yes"/>
      <point x="345" y="211" type="line" smooth="yes"/>
      <point x="345" y="300"/>
      <point x="386" y="451"/>
      <point x="407" y="518" type="curve" smooth="yes"/>
      <point x="436" y="608"/>
      <point x="450" y="625"/>
      <point x="475" y="625" type="curve" smooth="yes"/>
      <point x="498" y="625"/>
      <point x="509" y="606"/>
      <point x="512" y="582" type="curve"/>
      <point x="540" y="587"/>
      <point x="560" y="608"/>
      <point x="560" y="645" type="curve" smooth="yes"/>
      <point x="560" y="685"/>
      <point x="543" y="721"/>
      <point x="492" y="721" type="curve" smooth="yes"/>
      <point x="437" y="721"/>
      <point x="398" y="687"/>
      <point x="362" y="578" type="curve" smooth="yes"/>
      <point x="341" y="513"/>
      <point x="326" y="438"/>
      <point x="313" y="358" type="curve"/>
      <point x="302" y="429"/>
      <point x="295" y="490"/>
      <point x="265" y="580" type="curve" smooth="yes"/>
      <point x="230" y="685"/>
      <point x="193" y="714"/>
      <point x="121" y="714" type="curve" smooth="yes"/>
      <point x="4" y="714" type="line"/>
      <point x="4" y="662" type="line"/>
      <point x="17" y="662" type="line" smooth="yes"/>
      <point x="46" y="662"/>
      <point x="74" y="627"/>
      <point x="94" y="569" type="curve" smooth="yes"/>
      <point x="124" y="496"/>
      <point x="198" y="313"/>
      <point x="198" y="197" type="curve" smooth="yes"/>
      <point x="198" y="121" type="line" smooth="yes"/>
      <point x="198" y="64"/>
      <point x="179" y="53"/>
      <point x="155" y="53" type="curve" smooth="yes"/>
      <point x="121" y="53" type="line"/>
    </contour>
  </outline>
</glyph>
<glyph name="uni03D8" format="2">
  <advance width="593"/>
  <unicode hex="03D8"/>
  <anchor x="297" y="0" name="bottom"/>
  <anchor x="297" y="714" name="top"/>
  <outline>
    <contour>
      <point x="158" y="0" type="line"/>
      <point x="436" y="0" type="line"/>
      <point x="436" y="53" type="line"/>
      <point x="412" y="53" type="line" smooth="yes"/>
      <point x="379" y="53"/>
      <point x="371" y="66"/>
      <point x="371" y="118" type="curve" smooth="yes"/>
      <point x="371" y="164" type="line"/>
      <point x="489" y="189"/>
      <point x="554" y="294"/>
      <point x="554" y="440" type="curve" smooth="yes"/>
      <point x="554" y="616"/>
      <point x="468" y="725"/>
      <point x="299" y="725" type="curve" smooth="yes"/>
      <point x="124" y="725"/>
      <point x="39" y="613"/>
      <point x="39" y="441" type="curve" smooth="yes"/>
      <point x="39" y="292"/>
      <point x="100" y="187"/>
      <point x="224" y="163" type="curve"/>
      <point x="224" y="118" type="line" smooth="yes"/>
      <point x="224" y="66"/>
      <point x="215" y="53"/>
      <point x="181" y="53" type="curve" smooth="yes"/>
      <point x="158" y="53" type="line"/>
    </contour>
    <contour>
      <point x="298" y="223" type="curve" smooth="yes"/>
      <point x="221" y="223"/>
      <point x="192" y="304"/>
      <point x="192" y="440" type="curve" smooth="yes"/>
      <point x="192" y="580"/>
      <point x="221" y="660"/>
      <point x="299" y="660" type="curve" smooth="yes"/>
      <point x="375" y="660"/>
      <point x="403" y="579"/>
      <point x="403" y="440" type="curve" smooth="yes"/>
      <point x="403" y="304"/>
      <point x="375" y="223"/>
    </contour>
  </outline>
</glyph>
<glyph name="uni03DB" format="2">
  <advance width="398"/>
  <unicode hex="03DB"/>
  <anchor x="200" y="-204" name="bottom"/>
  <anchor x="200" y="536" name="top"/>
  <outline>
    <contour>
      <point x="220" y="-204" type="curve" smooth="yes"/>
      <point x="293" y="-204"/>
      <point x="379" y="-130"/>
      <point x="379" y="-26" type="curve" smooth="yes"/>
      <point x="379" y="56"/>
      <point x="343" y="92"/>
      <point x="273" y="122" type="curve" smooth="yes"/>
      <point x="205" y="148"/>
      <point x="170" y="174"/>
      <point x="170" y="295" type="curve" smooth="yes"/>
      <point x="170" y="426"/>
      <point x="187" y="501"/>
      <point x="232" y="501" type="curve" smooth="yes"/>
      <point x="280" y="501"/>
      <point x="293" y="434"/>
      <point x="332" y="434" type="curve" smooth="yes"/>
      <point x="374" y="434"/>
      <point x="398" y="494"/>
      <point x="394" y="596" type="curve"/>
      <point x="338" y="596" type="line"/>
      <point x="336" y="576"/>
      <point x="321" y="547"/>
      <point x="294" y="547" type="curve" smooth="yes"/>
      <point x="276" y="547"/>
      <point x="241" y="547"/>
      <point x="222" y="547" type="curve" smooth="yes"/>
      <point x="129" y="547"/>
      <point x="29" y="496"/>
      <point x="29" y="270" type="curve" smooth="yes"/>
      <point x="29" y="106"/>
      <point x="86" y="48"/>
      <point x="200" y="8" type="curve" smooth="yes"/>
      <point x="242" y="-5"/>
      <point x="277" y="-21"/>
      <point x="277" y="-69" type="curve" smooth="yes"/>
      <point x="277" y="-112"/>
      <point x="256" y="-154"/>
      <point x="176" y="-160" type="curve"/>
      <point x="176" y="-188"/>
      <point x="189" y="-204"/>
    </contour>
  </outline>
</glyph>
<glyph name="uni03DD" format="2">
  <advance width="411"/>
  <unicode hex="03DD"/>
  <anchor x="206" y="-240" name="bottom"/>
  <anchor x="206" y="536" name="top"/>
  <outline>
    <contour>
      <point x="66" y="-240" type="line"/>
      <point x="208" y="-240" type="line"/>
      <point x="208" y="160" type="line"/>
      <point x="225" y="160" type="line" smooth="yes"/>
      <point x="277" y="160"/>
      <point x="291" y="136"/>
      <point x="299" y="67" type="curve"/>
      <point x="353" y="67" type="line"/>
      <point x="353" y="216" type="line"/>
      <point x="208" y="216" type="line"/>
      <point x="208" y="476" type="line"/>
      <point x="272" y="476" type="line" smooth="yes"/>
      <point x="313" y="476"/>
      <point x="320" y="453"/>
      <point x="327" y="401" type="curve" smooth="yes"/>
      <point x="330" y="352" type="line"/>
      <point x="387" y="352" type="line"/>
      <point x="383" y="536" type="line"/>
      <point x="17" y="536" type="line"/>
      <point x="17" y="483" type="line"/>
      <point x="28" y="483" type="line" smooth="yes"/>
      <point x="52" y="483"/>
      <point x="66" y="466"/>
      <point x="66" y="412" type="curve" smooth="yes"/>
    </contour>
  </outline>
</glyph>
<glyph name="afii10059" format="2">
  <advance width="779"/>
  <unicode hex="040A"/>
  <anchor x="389" y="0" name="bottom"/>
  <anchor x="389" y="714" name="top"/>
  <outline>
    <contour>
      <point x="16" y="0" type="line"/>
      <point x="279" y="0" type="line"/>
      <point x="279" y="53" type="line"/>
      <point x="252" y="53" type="line" smooth="yes"/>
      <point x="237" y="53"/>
      <point x="228" y="71"/>
      <point x="228" y="111" type="curve" smooth="yes"/>
      <point x="228" y="343" type="line"/>
      <point x="382" y="343" type="line"/>
      <point x="382" y="119" type="line" smooth="yes"/>
      <point x="382" y="69"/>
      <point x="372" y="53"/>
      <point x="345" y="53" type="curve" smooth="yes"/>
      <point x="330" y="53" type="line"/>
      <point x="330" y="0" type="line"/>
      <point x="565" y="0" type="line" smooth="yes"/>
      <point x="714" y="0"/>
      <point x="774" y="85"/>
      <point x="774" y="205" type="curve" smooth="yes"/>
      <point x="774" y="328"/>
      <point x="722" y="402"/>
      <point x="587" y="402" type="curve" smooth="yes"/>
      <point x="527" y="402" type="line"/>
      <point x="527" y="600" type="line" smooth="yes"/>
      <point x="527" y="648"/>
      <point x="536" y="661"/>
      <point x="558" y="661" type="curve" smooth="yes"/>
      <point x="608" y="661" type="line"/>
      <point x="608" y="714" type="line"/>
      <point x="330" y="714" type="line"/>
      <point x="330" y="661" type="line"/>
      <point x="351" y="661" type="line" smooth="yes"/>
      <point x="370" y="661"/>
      <point x="382" y="652"/>
      <point x="382" y="596" type="curve" smooth="yes"/>
      <point x="382" y="404" type="line"/>
      <point x="228" y="404" type="line"/>
      <point x="228" y="605" type="line" smooth="yes"/>
      <point x="228" y="648"/>
      <point x="235" y="661"/>
      <point x="252" y="661" type="curve" smooth="yes"/>
      <point x="279" y="661" type="line"/>
      <point x="279" y="714" type="line"/>
      <point x="16" y="714" type="line"/>
      <point x="16" y="661" type="line"/>
      <point x="47" y="661" type="line" smooth="yes"/>
      <point x="65" y="661"/>
      <point x="81" y="648"/>
      <point x="81" y="602" type="curve" smooth="yes"/>
      <point x="81" y="111" type="line" smooth="yes"/>
      <point x="81" y="71"/>
      <point x="70" y="53"/>
      <point x="54" y="53" type="curve" smooth="yes"/>
      <point x="16" y="53" type="line"/>
    </contour>
    <contour>
      <point x="526" y="59" type="line"/>
      <point x="526" y="344" type="line"/>
      <point x="549" y="344" type="line" smooth="yes"/>
      <point x="595" y="344"/>
      <point x="618" y="307"/>
      <point x="618" y="202" type="curve" smooth="yes"/>
      <point x="618" y="101"/>
      <point x="593" y="59"/>
      <point x="550" y="59" type="curve" smooth="yes"/>
    </contour>
  </outline>
</glyph>
<glyph name="afii10042" format="2">
  <advance width="853"/>
  <unicode hex="0428"/>
  <anchor x="426" y="0" name="bottom"/>
  <anchor x="426" y="714" name="top"/>
  <outline>
    <contour>
      <point x="16" y="0" type="line"/>
      <point x="839" y="0" type="line"/>
      <point x="839" y="53" type="line"/>
      <point x="812" y="53" type="line" smooth="yes"/>
      <point x="787" y="53"/>
      <point x="775" y="63"/>
      <point x="775" y="115" type="curve" smooth="yes"/>
      <point x="775" y="595" type="line" smooth="yes"/>
      <point x="775" y="651"/>
      <point x="786" y="661"/>
      <point x="812" y="661" type="curve" smooth="yes"/>
      <point x="839" y="661" type="line"/>
      <point x="839" y="714" type="line"/>
      <point x="587" y="714" type="line"/>
      <point x="587" y="661" type="line"/>
      <point x="599" y="661" type="line" smooth="yes"/>
      <point x="624" y="661"/>
      <point x="637" y="651"/>
      <point x="637" y="595" type="curve" smooth="yes"/>
      <point x="637" y="61" type="line"/>
      <point x="496" y="61" type="line"/>
      <point x="496" y="599" type="line" smooth="yes"/>
      <point x="496" y="653"/>
      <point x="513" y="661"/>
      <point x="539" y="661" type="curve" smooth="yes"/>
      <point x="549" y="661" type="line"/>
      <point x="549" y="714" type="line"/>
      <point x="304" y="714" type="line"/>
      <point x="304" y="661" type="line"/>
      <point x="316" y="661" type="line" smooth="yes"/>
      <point x="346" y="661"/>
      <point x="358" y="651"/>
      <point x="358" y="594" type="curve" smooth="yes"/>
      <point x="358" y="61" type="line"/>
      <point x="219" y="61" type="line"/>
      <point x="219" y="595" type="line" smooth="yes"/>
      <point x="219" y="651"/>
      <point x="232" y="661"/>
      <point x="256" y="661" type="curve" smooth="yes"/>
      <point x="269" y="661" type="line"/>
      <point x="269" y="714" type="line"/>
      <point x="16" y="714" type="line"/>
      <point x="16" y="661" type="line"/>
      <point x="44" y="661" type="line" smooth="yes"/>
      <point x="70" y="661"/>
      <point x="81" y="651"/>
      <point x="81" y="595" type="curve" smooth="yes"/>
      <point x="81" y="115" type="line" smooth="yes"/>
      <point x="81" y="63"/>
      <point x="69" y="53"/>
      <point x="44" y="53" type="curve" smooth="yes"/>
      <point x="16" y="53" type="line"/>
    </contour>
  </outline>
</glyph>
<glyph name="afii10046" format="2">
  <advance width="480"/>
  <unicode hex="042C"/>
  <anchor x="240" y="0" name="bottom"/>
  <anchor x="240" y="714" name="top"/>
  <outline>
    <contour>
      <point x="16" y="0" type="line"/>
      <point x="264" y="0" type="line"/>
      <point x="415" y="0"/>
      <point x="475" y="86"/>
      <point x="475" y="207" type="curve" smooth="yes"/>
      <point x="475" y="328"/>
      <point x="423" y="402"/>
      <point x="288" y="402" type="curve" smooth="yes"/>
      <point x="228" y="402" type="line"/>
      <point x="228" y="601" type="line" smooth="yes"/>
      <point x="228" y="648"/>
      <point x="237" y="661"/>
      <point x="259" y="661" type="curve" smooth="yes"/>
      <point x="308" y="661" type="line"/>
      <point x="308" y="714" type="line"/>
      <point x="16" y="714" type="line"/>
      <point x="16" y="661" type="line"/>
      <point x="50" y="661" type="line" smooth="yes"/>
      <point x="69" y="661"/>
      <point x="81" y="652"/>
      <point x="81" y="596" type="curve"/>
      <point x="81" y="119" type="line" smooth="yes"/>
      <point x="81" y="67"/>
      <point x="73" y="53"/>
      <point x="46" y="53" type="curve" smooth="yes"/>
      <point x="16" y="53" type="line"/>
    </contour>
    <contour>
      <point x="228" y="59" type="line"/>
      <point x="228" y="344" type="line"/>
      <point x="250" y="344" type="line" smooth="yes"/>
      <point x="296" y="344"/>
      <point x="318" y="307"/>
      <point x="318" y="204" type="curve" smooth="yes"/>
      <point x="318" y="103"/>
      <point x="294" y="59"/>
      <point x="251" y="59" type="curve" smooth="yes"/>
    </contour>
  </outline>
</glyph>
<glyph name="afii10049" format="2">
  <advance width="538"/>
  <unicode hex="042F"/>
  <anchor x="269" y="0" name="bottom"/>
  <anchor x="269" y="714" name="top"/>
  <outline>
    <contour>
      <point x="-3" y="0" type="line"/>
      <point x="38" y="0" type="line" smooth="yes"/>
      <point x="122" y="0"/>
      <point x="175" y="16"/>
      <point x="201" y="98" type="curve" smooth="yes"/>
      <point x="273" y="306" type="line"/>
      <point x="311" y="306" type="line"/>
      <point x="311" y="113" type="line" smooth="yes"/>
      <point x="311" y="61"/>
      <point x="293" y="53"/>
      <point x="275" y="53" type="curve" smooth="yes"/>
      <point x="249" y="53" type="line"/>
      <point x="249" y="0" type="line"/>
      <point x="521" y="0" type="line"/>
      <point x="521" y="53" type="line"/>
      <point x="486" y="53" type="line" smooth="yes"/>
      <point x="470" y="53"/>
      <point x="456" y="59"/>
      <point x="456" y="113" type="curve" smooth="yes"/>
      <point x="456" y="600" type="line" smooth="yes"/>
      <point x="456" y="648"/>
      <point x="467" y="661"/>
      <point x="492" y="661" type="curve" smooth="yes"/>
      <point x="521" y="661" type="line"/>
      <point x="521" y="714" type="line"/>
      <point x="260" y="714" type="line" smooth="yes"/>
      <point x="114" y="714"/>
      <point x="51" y="640"/>
      <point x="51" y="519" type="curve" smooth="yes"/>
      <point x="51" y="406"/>
      <point x="99" y="362"/>
      <point x="146" y="334" type="curve"/>
      <point x="68" y="135" type="line" smooth="yes"/>
      <point x="45" y="75"/>
      <point x="26" y="53"/>
      <point x="-1" y="53" type="curve" smooth="yes"/>
      <point x="-3" y="53" type="line"/>
    </contour>
    <contour>
      <point x="282" y="364" type="line" smooth="yes"/>
      <point x="230" y="364"/>
      <point x="209" y="415"/>
      <point x="209" y="509" type="curve" smooth="yes"/>
      <point x="209" y="612"/>
      <point x="230" y="655"/>
      <point x="281" y="655" type="curve" smooth="yes"/>
      <point x="312" y="655" type="line"/>
      <point x="312" y="364" type="line"/>
    </contour>
  </outline>
</glyph>
<glyph name="afii10074" format="2">
  <advance width="514"/>
  <unicode hex="0438"/>
  <anchor x="258" y="0" name="bottom"/>
  <anchor x="258" y="536" name="top"/>
  <outline>
    <contour>
      <point x="10" y="0" type="line"/>
      <point x="236" y="0" type="line"/>
      <point x="236" y="53" type="line"/>
      <point x="230" y="53" type="line" smooth="yes"/>
      <point x="212" y="53"/>
      <point x="205" y="64"/>
      <point x="205" y="107" type="curve" smooth="yes"/>
      <point x="205" y="116" type="line"/>
      <point x="310" y="335" type="line"/>
      <point x="310" y="112" type="line" smooth="yes"/>
      <point x="310" y="67"/>
      <point x="303" y="53"/>
      <point x="286" y="53" type="curve" smooth="yes"/>
      <point x="278" y="53" type="line"/>
      <point x="278" y="0" type="line"/>
      <point x="506" y="0" type="line"/>
      <point x="506" y="53" type="line"/>
      <point x="496" y="53" type="line" smooth="yes"/>
      <point x="470" y="53"/>
      <point x="452" y="67"/>
      <point x="452" y="125" type="curve" smooth="yes"/>
      <point x="452" y="415" type="line" smooth="yes"/>
      <point x="452" y="471"/>
      <point x="470" y="483"/>
      <point x="496" y="483" type="curve" smooth="yes"/>
      <point x="506" y="483" type="line"/>
      <point x="506" y="536" type="line"/>
      <point x="278" y="536" type="line"/>
      <point x="278" y="483" type="line"/>
      <point x="285" y="483" type="line" smooth="yes"/>
      <point x="302" y="483"/>
      <point x="310" y="470"/>
      <point x="310" y="434" type="curve" smooth="yes"/>
      <point x="310" y="423" type="line"/>
      <point x="205" y="204" type="line"/>
      <point x="205" y="431" type="line" smooth="yes"/>
      <point x="205" y="474"/>
      <point x="214" y="483"/>
      <point x="232" y="483" type="curve" smooth="yes"/>
      <point x="238" y="483" type="line"/>
      <point x="238" y="536" type="line"/>
      <point x="10" y="536" type="line"/>
      <point x="10" y="483" type="line"/>
      <point x="17" y="483" type="line" smooth="yes"/>
      <point x="45" y="483"/>
      <point x="62" y="473"/>
      <point x="62" y="415" type="curve" smooth="yes"/>
      <point x="62" y="121" type="line" smooth="yes"/>
      <point x="62" y="63"/>
      <point x="45" y="53"/>
      <point x="17" y="53" type="curve" smooth="yes"/>
      <point x="10" y="53" type="line"/>
    </contour>
  </outline>
</glyph>
<glyph name="afii10086" format="2">
  <advance width="650"/>
  <unicode hex="0444"/>
  <anchor x="326" y="-241" name="bottom"/>
  <anchor x="326" y="760" name="top"/>
  <outline>
    <contour>
      <point x="205" y="-241" type="line"/>
      <point x="448" y="-241" type="line"/>
      <point x="448" y="-188" type="line"/>
      <point x="440" y="-188" type="line" smooth="yes"/>
      <point x="410" y="-188"/>
      <point x="394" y="-175"/>
      <point x="394" y="-117" type="curve" smooth="yes"/>
      <point x="394" y="-5" type="line"/>
      <point x="535" y="4"/>
      <point x="619" y="104"/>
      <point x="619" y="269" type="curve" smooth="yes"/>
      <point x="619" y="430"/>
      <point x="530" y="530"/>
      <point x="394" y="540" type="curve"/>
      <point x="394" y="760" type="line"/>
      <point x="205" y="760" type="line"/>
      <point x="205" y="707" type="line"/>
      <point x="213" y="707" type="line" smooth="yes"/>
      <point x="239" y="707"/>
      <point x="258" y="694"/>
      <point x="258" y="640" type="curve" smooth="yes"/>
      <point x="258" y="541" type="line"/>
      <point x="115" y="532"/>
      <point x="29" y="433"/>
      <point x="29" y="269" type="curve" smooth="yes"/>
      <point x="29" y="104"/>
      <point x="121" y="4"/>
      <point x="258" y="-5" type="curve"/>
      <point x="258" y="-117" type="line" smooth="yes"/>
      <point x="258" y="-175"/>
      <point x="243" y="-188"/>
      <point x="213" y="-188" type="curve" smooth="yes"/>
      <point x="205" y="-188" type="line"/>
    </contour>
    <contour>
      <point x="260" y="56" type="line"/>
      <point x="198" y="71"/>
      <point x="165" y="146"/>
      <point x="165" y="269" type="curve" smooth="yes"/>
      <point x="165" y="392"/>
      <point x="198" y="466"/>
      <point x="260" y="477" type="curve"/>
    </contour>
    <contour>
      <point x="394" y="58" type="curve"/>
      <point x="394" y="477" type="line"/>
      <point x="449" y="465"/>
      <point x="484" y="391"/>
      <point x="484" y="269" type="curve" smooth="yes"/>
      <point x="484" y="146"/>
      <point x="450" y="70"/>
    </contour>
  </outline>
</glyph>
<glyph name="afii10088" format="2">
  <advance width="523"/>
  <unicode hex="0446"/>
  <anchor x="262" y="0" name="bottom"/>
  <anchor x="262" y="536" name="top"/>
  <outline>
    <contour>
      <point x="454" y="-210" type="line"/>
      <point x="516" y="-210" type="line"/>
      <point x="516" y="51" type="line"/>
      <point x="498" y="51" type="line" smooth="yes"/>
      <point x="473" y="51"/>
      <point x="448" y="62"/>
      <point x="448" y="111" type="curve" smooth="yes"/>
      <point x="448" y="418" type="line" smooth="yes"/>
      <point x="448" y="472"/>
      <point x="462" y="483"/>
      <point x="491" y="483" type="curve" smooth="yes"/>
      <point x="498" y="483" type="line"/>
      <point x="498" y="536" type="line"/>
      <point x="267" y="536" type="line"/>
      <point x="267" y="483" type="line"/>
      <point x="271" y="483" type="line" smooth="yes"/>
      <point x="296" y="483"/>
      <point x="305" y="472"/>
      <point x="305" y="418" type="curve" smooth="yes"/>
      <point x="305" y="65" type="line"/>
      <point x="205" y="65" type="line"/>
      <point x="205" y="418" type="line" smooth="yes"/>
      <point x="205" y="472"/>
      <point x="214" y="483"/>
      <point x="238" y="483" type="curve" smooth="yes"/>
      <point x="241" y="483" type="line"/>
      <point x="241" y="536" type="line"/>
      <point x="9" y="536" type="line"/>
      <point x="9" y="483" type="line"/>
      <point x="18" y="483" type="line" smooth="yes"/>
      <point x="45" y="483"/>
      <point x="63" y="469"/>
      <point x="63" y="418" type="curve" smooth="yes"/>
      <point x="63" y="118" type="line" smooth="yes"/>
      <point x="63" y="66"/>
      <point x="45" y="53"/>
      <point x="18" y="53" type="curve" smooth="yes"/>
      <point x="9" y="53" type="line"/>
      <point x="9" y="0" type="line"/>
      <point x="384" y="0" type="line" smooth="yes"/>
      <point x="430" y="0"/>
      <point x="444" y="-30"/>
      <point x="451" y="-130" type="curve" smooth="yes"/>
    </contour>
  </outline>
</glyph>
<glyph name="afii10094" format="2">
  <advance width="444"/>
  <unicode hex="044C"/>
  <anchor x="222" y="0" name="bottom"/>
  <anchor x="222" y="536" name="top"/>
  <outline>
    <contour>
      <point x="10" y="0" type="line"/>
      <point x="266" y="0" type="line" smooth="yes"/>
      <point x="382" y="0"/>
      <point x="439" y="60"/>
      <point x="439" y="158" type="curve" smooth="yes"/>
      <point x="439" y="281"/>
      <point x="362" y="305"/>
      <point x="274" y="305" type="curve" smooth="yes"/>
      <point x="205" y="305" type="line"/>
      <point x="205" y="412" type="line" smooth="yes"/>
      <point x="205" y="460"/>
      <point x="217" y="480"/>
      <point x="256" y="480" type="curve" smooth="yes"/>
      <point x="265" y="480" type="line"/>
      <point x="265" y="536" type="line"/>
      <point x="10" y="536" type="line"/>
      <point x="10" y="483" type="line"/>
      <point x="16" y="483" type="line" smooth="yes"/>
      <point x="52" y="483"/>
      <point x="62" y="466"/>
      <point x="62" y="412" type="curve" smooth="yes"/>
      <point x="62" y="116" type="line" smooth="yes"/>
      <point x="62" y="70"/>
      <point x="53" y="53"/>
      <point x="16" y="53" type="curve" smooth="yes"/>
      <point x="10" y="53" type="line"/>
    </contour>
    <contour>
      <point x="204" y="57" type="line"/>
      <point x="204" y="246" type="line"/>
      <point x="227" y="246" type="line" smooth="yes"/>
      <point x="265" y="246"/>
      <point x="293" y="223"/>
      <point x="293" y="159" type="curve" smooth="yes"/>
      <point x="293" y="86"/>
      <point x="270" y="57"/>
      <point x="228" y="57" type="curve" smooth="yes"/>
    </contour>
  </outline>
</glyph>
<glyph name="afii10095" format="2">
  <advance width="390"/>
  <unicode hex="044D"/>
  <anchor x="195" y="0" name="bottom"/>
  <anchor x="195" y="536" name="top"/>
  <outline>
    <contour>
      <point x="175" y="-8" type="curve" smooth="yes"/>
      <point x="288" y="-8"/>
      <point x="370" y="77"/>
      <point x="370" y="281" type="curve" smooth="yes"/>
      <point x="370" y="464"/>
      <point x="302" y="547"/>
      <point x="187" y="547" type="curve" smooth="yes"/>
      <point x="82" y="547"/>
      <point x="38" y="493"/>
      <point x="38" y="441" type="curve" smooth="yes"/>
      <point x="38" y="395"/>
      <point x="61" y="378"/>
      <point x="123" y="378" type="curve"/>
      <point x="123" y="447"/>
      <point x="139" y="490"/>
      <point x="173" y="490" type="curve"/>
      <point x="221" y="490"/>
      <point x="229" y="436"/>
      <point x="232" y="311" type="curve"/>
      <point x="120" y="311" type="line"/>
      <point x="120" y="247" type="line"/>
      <point x="232" y="247" type="line"/>
      <point x="229" y="104"/>
      <point x="204" y="49"/>
      <point x="161" y="49" type="curve" smooth="yes"/>
      <point x="125" y="49"/>
      <point x="107" y="103"/>
      <point x="107" y="179" type="curve"/>
      <point x="53" y="179"/>
      <point x="22" y="152"/>
      <point x="22" y="103" type="curve" smooth="yes"/>
      <point x="22" y="49"/>
      <point x="61" y="-8"/>
    </contour>
  </outline>
</glyph>
<glyph name="afii10096" format="2">
  <advance width="702"/>
  <unicode hex="044E"/>
  <anchor x="352" y="0" name="bottom"/>
  <anchor x="352" y="536" name="top"/>
  <outline>
    <contour>
      <point x="454" y="-10" type="curve" smooth="yes"/>
      <point x="588" y="-10"/>
      <point x="657" y="83"/>
      <point x="657" y="269" type="curve" smooth="yes"/>
      <point x="657" y="456"/>
      <point x="581" y="549"/>
      <point x="457" y="549" type="curve" smooth="yes"/>
      <point x="333" y="549"/>
      <point x="263" y="466"/>
      <point x="255" y="303" type="curve"/>
      <point x="205" y="303" type="line"/>
      <point x="205" y="418" type="line" smooth="yes"/>
      <point x="205" y="472"/>
      <point x="212" y="483"/>
      <point x="236" y="483" type="curve" smooth="yes"/>
      <point x="241" y="483" type="line"/>
      <point x="241" y="536" type="line"/>
      <point x="10" y="536" type="line"/>
      <point x="10" y="483" type="line"/>
      <point x="19" y="483" type="line" smooth="yes"/>
      <point x="46" y="483"/>
      <point x="62" y="471"/>
      <point x="62" y="419" type="curve" smooth="yes"/>
      <point x="62" y="118" type="line" smooth="yes"/>
      <point x="62" y="64"/>
      <point x="47" y="53"/>
      <point x="19" y="53" type="curve" smooth="yes"/>
      <point x="10" y="53" type="line"/>
      <point x="10" y="0" type="line"/>
      <point x="241" y="0" type="line"/>
      <point x="241" y="53" type="line"/>
      <point x="237" y="53" type="line" smooth="yes"/>
      <point x="214" y="53"/>
      <point x="205" y="64"/>
      <point x="205" y="118" type="curve" smooth="yes"/>
      <point x="205" y="246" type="line"/>
      <point x="255" y="246" type="line"/>
      <point x="261" y="76"/>
      <point x="336" y="-10"/>
    </contour>
    <contour>
      <point x="456" y="53" type="curve" smooth="yes"/>
      <point x="413" y="53"/>
      <point x="398" y="129"/>
      <point x="398" y="269" type="curve" smooth="yes"/>
      <point x="398" y="412"/>
      <point x="412" y="486"/>
      <point x="455" y="486" type="curve" smooth="yes"/>
      <point x="498" y="486"/>
      <point x="514" y="412"/>
      <point x="514" y="269" type="curve" smooth="yes"/>
      <point x="514" y="129"/>
      <point x="499" y="53"/>
    </contour>
  </outline>
</glyph>
<glyph name="afii10106" format="2">
  <advance width="666"/>
  <unicode hex="0459"/>
  <anchor x="333" y="0" name="bottom"/>
  <anchor x="333" y="536" name="top"/>
  <outline>
    <contour>
      <point x="64" y="-7" type="curve" smooth="yes"/>
      <point x="117" y="-7"/>
      <point x="149" y="33"/>
      <point x="176" y="155" type="curve" smooth="yes"/>
      <point x="196" y="249"/>
      <point x="211" y="363"/>
      <point x="220" y="479" type="curve"/>
      <point x="292" y="479" type="line"/>
      <point x="292" y="120" type="line" smooth="yes"/>
      <point x="292" y="57"/>
      <point x="262" y="53"/>
      <point x="253" y="53" type="curve" smooth="yes"/>
      <point x="239" y="53" type="line"/>
      <point x="239" y="0" type="line"/>
      <point x="494" y="0" type="line" smooth="yes"/>
      <point x="612" y="0"/>
      <point x="667" y="65"/>
      <point x="667" y="158" type="curve" smooth="yes"/>
      <point x="667" y="283"/>
      <point x="591" y="305"/>
      <point x="501" y="305" type="curve" smooth="yes"/>
      <point x="433" y="305" type="line"/>
      <point x="433" y="412" type="line" smooth="yes"/>
      <point x="433" y="460"/>
      <point x="446" y="480"/>
      <point x="485" y="480" type="curve" smooth="yes"/>
      <point x="495" y="480" type="line"/>
      <point x="495" y="536" type="line"/>
      <point x="102" y="536" type="line"/>
      <point x="102" y="483" type="line"/>
      <point x="112" y="483" type="line" smooth="yes"/>
      <point x="144" y="483"/>
      <point x="167" y="474"/>
      <point x="167" y="421" type="curve" smooth="yes"/>
      <point x="167" y="371"/>
      <point x="150" y="273"/>
      <point x="140" y="218" type="curve" smooth="yes"/>
      <point x="114" y="92"/>
      <point x="92" y="84"/>
      <point x="72" y="84" type="curve" smooth="yes"/>
      <point x="57" y="84"/>
      <point x="45" y="103"/>
      <point x="45" y="126" type="curve"/>
      <point x="29" y="126"/>
      <point x="0" y="106"/>
      <point x="0" y="63" type="curve" smooth="yes"/>
      <point x="0" y="19"/>
      <point x="26" y="-7"/>
    </contour>
    <contour>
      <point x="432" y="57" type="line"/>
      <point x="432" y="246" type="line"/>
      <point x="455" y="246" type="line" smooth="yes"/>
      <point x="494" y="246"/>
      <point x="522" y="223"/>
      <point x="522" y="159" type="curve" smooth="yes"/>
      <point x="522" y="86"/>
      <point x="499" y="57"/>
      <point x="457" y="57" type="curve" smooth="yes"/>
    </contour>
  </outline>
</glyph>
<glyph name="uni047C" format="2">
  <advance width="828"/>
  <unicode hex="047C"/>
  <outline>
    <contour>
      <point x="274" y="910" type="curve"/>
      <point x="333" y="910" type="line"/>
      <point x="335" y="920" type="line" smooth="yes"/>
      <point x="340" y="949"/>
      <point x="354" y="965"/>
      <point x="373" y="965" type="curve" smooth="yes"/>
      <point x="422" y="965"/>
      <point x="470" y="910"/>
      <point x="551" y="910" type="curve" smooth="yes"/>
      <point x="564" y="910" type="line"/>
      <point x="564" y="1002" type="line"/>
      <point x="559" y="1002" type="line"/>
      <point x="487" y="1002"/>
      <point x="438" y="1057"/>
      <point x="383" y="1057" type="curve" smooth="yes"/>
      <point x="322" y="1057"/>
      <point x="280" y="993"/>
    </contour>
    <contour>
      <point x="381" y="755" type="line"/>
      <point x="443" y="776"/>
      <point x="466" y="816"/>
      <point x="466" y="865" type="curve" smooth="yes"/>
      <point x="466" y="902"/>
      <point x="449" y="926"/>
      <point x="419" y="926" type="curve" smooth="yes"/>
      <point x="400" y="926"/>
      <point x="385" y="914"/>
      <point x="385" y="887" type="curve" smooth="yes"/>
      <point x="385" y="843"/>
      <point x="420" y="850"/>
      <point x="420" y="828" type="curve"/>
      <point x="420" y="807"/>
      <point x="407" y="798"/>
      <point x="381" y="786" type="curve"/>
    </contour>
    <component base="uniA64C"/>
  </outline>
</glyph>
<glyph name="uni0480" format="2">
  <advance width="513"/>
  <unicode hex="0480"/>
  <anchor x="257" y="-239" name="bottom"/>
  <anchor x="257" y="714" name="top"/>
  <outline>
    <contour>
      <point x="192" y="-239" type="line"/>
      <point x="472" y="-239" type="line"/>
      <point x="472" y="-186" type="line"/>
      <point x="424" y="-186" type="line" smooth="yes"/>
      <point x="412" y="-186"/>
      <point x="405" y="-179"/>
      <point x="405" y="-121" type="curve" smooth="yes"/>
      <point x="405" y="85" type="line"/>
      <point x="401" y="85" type="line"/>
      <point x="385" y="74"/>
      <point x="358" y="67"/>
      <point x="335" y="67" type="curve" smooth="yes"/>
      <point x="228" y="67"/>
      <point x="192" y="158"/>
      <point x="192" y="358" type="curve" smooth="yes"/>
      <point x="192" y="551"/>
      <point x="215" y="660"/>
      <point x="294" y="660" type="curve" smooth="yes"/>
      <point x="351" y="660"/>
      <point x="369" y="591"/>
      <point x="369" y="523" type="curve"/>
      <point x="445" y="523"/>
      <point x="481" y="558"/>
      <point x="481" y="607" type="curve" smooth="yes"/>
      <point x="481" y="669"/>
      <point x="422" y="724"/>
      <point x="302" y="724" type="curve" smooth="yes"/>
      <point x="130" y="724"/>
      <point x="39" y="574"/>
      <point x="39" y="358" type="curve" smooth="yes"/>
      <point x="39" y="149"/>
      <point x="112" y="10"/>
      <point x="259" y="-9" type="curve"/>
      <point x="259" y="-121" type="line" smooth="yes"/>
      <point x="259" y="-179"/>
      <point x="249" y="-186"/>
      <point x="238" y="-186" type="curve" smooth="yes"/>
      <point x="192" y="-186" type="line"/>
    </contour>
  </outline>
</glyph>
<glyph name="uni0482" format="2">
  <advance width="439"/>
  <unicode hex="0482"/>
  <outline>
    <contour>
      <point x="117" y="0" type="line"/>
      <point x="182" y="157" type="line"/>
      <point x="283" y="75" type="line"/>
      <point x="308" y="125" type="line"/>
      <point x="207" y="209" type="line"/>
      <point x="278" y="387" type="line"/>
      <point x="376" y="305" type="line"/>
      <point x="404" y="355" type="line"/>
      <point x="302" y="438" type="line"/>
      <point x="366" y="597" type="line"/>
      <point x="321" y="627" type="line"/>
      <point x="259" y="470" type="line"/>
      <point x="158" y="552" type="line"/>
      <point x="131" y="501" type="line"/>
      <point x="232" y="418" type="line"/>
      <point x="162" y="240" type="line"/>
      <point x="62" y="322" type="line"/>
      <point x="36" y="272" type="line"/>
      <point x="137" y="189" type="line"/>
      <point x="73" y="30" type="line"/>
    </contour>
  </outline>
</glyph>
<glyph name="uni0494" format="2">
  <advance width="543"/>
  <unicode hex="0494"/>
  <anchor x="271" y="-248" name="bottom"/>
  <anchor x="271" y="714" name="top"/>
  <outline>
    <contour>
      <point x="287" y="-248" type="curve" smooth="yes"/>
      <point x="446" y="-248"/>
      <point x="523" y="-130"/>
      <point x="523" y="83" type="curve" smooth="yes"/>
      <point x="523" y="278"/>
      <point x="431" y="395"/>
      <point x="287" y="395" type="curve" smooth="yes"/>
      <point x="268" y="395"/>
      <point x="240" y="389"/>
      <point x="227" y="386" type="curve"/>
      <point x="227" y="653" type="line"/>
      <point x="309" y="653" type="line" smooth="yes"/>
      <point x="347" y="653"/>
      <point x="370" y="626"/>
      <point x="378" y="567" type="curve" smooth="yes"/>
      <point x="385" y="519" type="line"/>
      <point x="441" y="519" type="line"/>
      <point x="436" y="714" type="line"/>
      <point x="16" y="714" type="line"/>
      <point x="16" y="661" type="line"/>
      <point x="46" y="661" type="line" smooth="yes"/>
      <point x="65" y="661"/>
      <point x="81" y="654"/>
      <point x="81" y="596" type="curve" smooth="yes"/>
      <point x="81" y="118" type="line" smooth="yes"/>
      <point x="81" y="60"/>
      <point x="68" y="53"/>
      <point x="46" y="53" type="curve" smooth="yes"/>
      <point x="16" y="53" type="line"/>
      <point x="16" y="0" type="line"/>
      <point x="308" y="0" type="line"/>
      <point x="308" y="53" type="line"/>
      <point x="262" y="53" type="line" smooth="yes"/>
      <point x="236" y="53"/>
      <point x="227" y="60"/>
      <point x="227" y="114" type="curve" smooth="yes"/>
      <point x="227" y="326" type="line"/>
      <point x="235" y="329"/>
      <point x="242" y="333"/>
      <point x="252" y="333" type="curve" smooth="yes"/>
      <point x="343" y="333"/>
      <point x="365" y="245"/>
      <point x="365" y="84" type="curve" smooth="yes"/>
      <point x="365" y="-101"/>
      <point x="350" y="-186"/>
      <point x="289" y="-186" type="curve" smooth="yes"/>
      <point x="240" y="-186"/>
      <point x="228" y="-139"/>
      <point x="222" y="-66" type="curve"/>
      <point x="163" y="-66"/>
      <point x="137" y="-96"/>
      <point x="137" y="-136" type="curve" smooth="yes"/>
      <point x="137" y="-202"/>
      <point x="183" y="-248"/>
    </contour>
  </outline>
</glyph>
<glyph name="uni0497" format="2">
  <advance width="703"/>
  <unicode hex="0497"/>
  <anchor x="351" y="0" name="bottom"/>
  <anchor x="351" y="536" name="top"/>
  <outline>
    <contour>
      <point x="653" y="-203" type="line"/>
      <point x="697" y="-203" type="line"/>
      <point x="697" y="53" type="line"/>
      <point x="669" y="53" type="line" smooth="yes"/>
      <point x="655" y="53"/>
      <point x="649" y="62"/>
      <point x="626" y="119" type="curve" smooth="yes"/>
      <point x="586" y="214" type="line" smooth="yes"/>
      <point x="562" y="276"/>
      <point x="527" y="290"/>
      <point x="474" y="294" type="curve"/>
      <point x="493" y="309"/>
      <point x="515" y="343"/>
      <point x="537" y="386" type="curve" smooth="yes"/>
      <point x="555" y="424"/>
      <point x="566" y="432"/>
      <point x="587" y="432" type="curve" smooth="yes"/>
      <point x="612" y="432"/>
      <point x="621" y="411"/>
      <point x="621" y="388" type="curve"/>
      <point x="649" y="392"/>
      <point x="671" y="423"/>
      <point x="671" y="464" type="curve" smooth="yes"/>
      <point x="671" y="509"/>
      <point x="645" y="542"/>
      <point x="605" y="542" type="curve" smooth="yes"/>
      <point x="540" y="542"/>
      <point x="519" y="496"/>
      <point x="489" y="428" type="curve" smooth="yes"/>
      <point x="465" y="377"/>
      <point x="453" y="344"/>
      <point x="441" y="328" type="curve" smooth="yes"/>
      <point x="431" y="313"/>
      <point x="418" y="305"/>
      <point x="404" y="305" type="curve"/>
      <point x="404" y="418" type="line" smooth="yes"/>
      <point x="404" y="467"/>
      <point x="397" y="483"/>
      <point x="428" y="483" type="curve" smooth="yes"/>
      <point x="438" y="483" type="line"/>
      <point x="438" y="536" type="line"/>
      <point x="240" y="536" type="line"/>
      <point x="240" y="483" type="line"/>
      <point x="250" y="483" type="line" smooth="yes"/>
      <point x="279" y="483"/>
      <point x="272" y="466"/>
      <point x="272" y="414" type="curve" smooth="yes"/>
      <point x="272" y="305" type="line"/>
      <point x="258" y="305"/>
      <point x="242" y="313"/>
      <point x="232" y="328" type="curve" smooth="yes"/>
      <point x="222" y="344"/>
      <point x="208" y="377"/>
      <point x="186" y="428" type="curve" smooth="yes"/>
      <point x="156" y="496"/>
      <point x="134" y="542"/>
      <point x="71" y="542" type="curve" smooth="yes"/>
      <point x="29" y="542"/>
      <point x="4" y="509"/>
      <point x="4" y="464" type="curve" smooth="yes"/>
      <point x="4" y="423"/>
      <point x="26" y="392"/>
      <point x="55" y="388" type="curve"/>
      <point x="55" y="411"/>
      <point x="65" y="432"/>
      <point x="86" y="432" type="curve" smooth="yes"/>
      <point x="109" y="432"/>
      <point x="120" y="424"/>
      <point x="139" y="386" type="curve" smooth="yes"/>
      <point x="160" y="343"/>
      <point x="183" y="308"/>
      <point x="200" y="294" type="curve"/>
      <point x="147" y="290"/>
      <point x="113" y="276"/>
      <point x="89" y="214" type="curve" smooth="yes"/>
      <point x="49" y="119" type="line" smooth="yes"/>
      <point x="24" y="62"/>
      <point x="19" y="53"/>
      <point x="6" y="53" type="curve" smooth="yes"/>
      <point x="-10" y="53" type="line"/>
      <point x="-10" y="0" type="line"/>
      <point x="45" y="0" type="line" smooth="yes"/>
      <point x="129" y="0"/>
      <point x="164" y="16"/>
      <point x="191" y="101" type="curve" smooth="yes"/>
      <point x="220" y="192" type="line" smooth="yes"/>
      <point x="236" y="245"/>
      <point x="260" y="252"/>
      <point x="272" y="252" type="curve"/>
      <point x="272" y="123" type="line" smooth="yes"/>
      <point x="272" y="70"/>
      <point x="270" y="53"/>
      <point x="250" y="53" type="curve" smooth="yes"/>
      <point x="240" y="53" type="line"/>
      <point x="240" y="0" type="line"/>
      <point x="438" y="0" type="line"/>
      <point x="438" y="53" type="line"/>
      <point x="429" y="53" type="line" smooth="yes"/>
      <point x="405" y="53"/>
      <point x="404" y="67"/>
      <point x="404" y="120" type="curve" smooth="yes"/>
      <point x="404" y="252" type="line"/>
      <point x="416" y="252"/>
      <point x="438" y="245"/>
      <point x="454" y="192" type="curve" smooth="yes"/>
      <point x="484" y="101" type="line" smooth="yes"/>
      <point x="501" y="46"/>
      <point x="523" y="18"/>
      <point x="558" y="7" type="curve" smooth="yes"/>
      <point x="618" y="-8"/>
      <point x="637" y="-27"/>
      <point x="647" y="-150" type="curve" smooth="yes"/>
    </contour>
  </outline>
</glyph>
<glyph name="uni0498" format="2">
  <advance width="454"/>
  <unicode hex="0498"/>
  <anchor x="227" y="-218" name="bottom"/>
  <anchor x="227" y="714" name="top"/>
  <outline>
    <contour>
      <point x="212" y="-218" type="curve" smooth="yes"/>
      <point x="271" y="-218"/>
      <point x="299" y="-181"/>
      <point x="299" y="-123" type="curve" smooth="yes"/>
      <point x="299" y="-74"/>
      <point x="277" y="-39"/>
      <point x="248" y="-9" type="curve"/>
      <point x="357" y="0"/>
      <point x="441" y="63"/>
      <point x="441" y="202" type="curve" smooth="yes"/>
      <point x="441" y="327"/>
      <point x="354" y="369"/>
      <point x="299" y="375" type="curve"/>
      <point x="365" y="396"/>
      <point x="421" y="452"/>
      <point x="421" y="550" type="curve" smooth="yes"/>
      <point x="421" y="666"/>
      <point x="351" y="724"/>
      <point x="223" y="724" type="curve" smooth="yes"/>
      <point x="96" y="724"/>
      <point x="40" y="659"/>
      <point x="40" y="592" type="curve" smooth="yes"/>
      <point x="40" y="524"/>
      <point x="92" y="510"/>
      <point x="155" y="510" type="curve"/>
      <point x="155" y="600"/>
      <point x="170" y="663"/>
      <point x="222" y="663" type="curve" smooth="yes"/>
      <point x="263" y="663"/>
      <point x="284" y="621"/>
      <point x="284" y="545" type="curve" smooth="yes"/>
      <point x="284" y="445"/>
      <point x="253" y="401"/>
      <point x="174" y="401" type="curve" smooth="yes"/>
      <point x="108" y="401" type="line"/>
      <point x="108" y="339" type="line"/>
      <point x="179" y="339" type="line" smooth="yes"/>
      <point x="274" y="339"/>
      <point x="306" y="291"/>
      <point x="306" y="198" type="curve" smooth="yes"/>
      <point x="306" y="98"/>
      <point x="274" y="52"/>
      <point x="214" y="52" type="curve" smooth="yes"/>
      <point x="147" y="52"/>
      <point x="115" y="118"/>
      <point x="105" y="223" type="curve"/>
      <point x="47" y="223"/>
      <point x="14" y="190"/>
      <point x="14" y="133" type="curve" smooth="yes"/>
      <point x="14" y="63"/>
      <point x="65" y="-3"/>
      <point x="180" y="-10" type="curve"/>
      <point x="209" y="-47"/>
      <point x="220" y="-84"/>
      <point x="220" y="-116" type="curve" smooth="yes"/>
      <point x="220" y="-145"/>
      <point x="207" y="-159"/>
      <point x="190" y="-159" type="curve" smooth="yes"/>
      <point x="176" y="-159"/>
      <point x="169" y="-155"/>
      <point x="160" y="-151" type="curve"/>
      <point x="157" y="-160"/>
      <point x="155" y="-167"/>
      <point x="155" y="-177" type="curve" smooth="yes"/>
      <point x="155" y="-203"/>
      <point x="177" y="-218"/>
    </contour>
  </outline>
</glyph>
<glyph name="uni049B" format="2">
  <advance width="511"/>
  <unicode hex="049B"/>
  <anchor x="256" y="0" name="bottom"/>
  <anchor x="256" y="536" name="top"/>
  <outline>
    <contour>
      <point x="456" y="-203" type="curve"/>
      <point x="500" y="-203" type="line"/>
      <point x="500" y="53" type="line"/>
      <point x="483" y="53" type="line" smooth="yes"/>
      <point x="452" y="53"/>
      <point x="441" y="61"/>
      <point x="416" y="117" type="curve" smooth="yes"/>
      <point x="376" y="212" type="line" smooth="yes"/>
      <point x="349" y="273"/>
      <point x="307" y="292"/>
      <point x="283" y="298" type="curve"/>
      <point x="300" y="316"/>
      <point x="312" y="343"/>
      <point x="338" y="392" type="curve" smooth="yes"/>
      <point x="364" y="449"/>
      <point x="376" y="468"/>
      <point x="396" y="468" type="curve" smooth="yes"/>
      <point x="413" y="468"/>
      <point x="418" y="450"/>
      <point x="423" y="420" type="curve"/>
      <point x="450" y="423"/>
      <point x="473" y="441"/>
      <point x="473" y="478" type="curve" smooth="yes"/>
      <point x="473" y="515"/>
      <point x="451" y="542"/>
      <point x="409" y="542" type="curve" smooth="yes"/>
      <point x="343" y="542"/>
      <point x="325" y="496"/>
      <point x="295" y="428" type="curve" smooth="yes"/>
      <point x="273" y="377"/>
      <point x="259" y="344"/>
      <point x="249" y="328" type="curve" smooth="yes"/>
      <point x="239" y="313"/>
      <point x="223" y="305"/>
      <point x="204" y="305" type="curve"/>
      <point x="204" y="418" type="line" smooth="yes"/>
      <point x="204" y="471"/>
      <point x="212" y="483"/>
      <point x="235" y="483" type="curve" smooth="yes"/>
      <point x="244" y="483" type="line"/>
      <point x="244" y="536" type="line"/>
      <point x="11" y="536" type="line"/>
      <point x="11" y="483" type="line"/>
      <point x="24" y="483" type="line" smooth="yes"/>
      <point x="49" y="483"/>
      <point x="61" y="470"/>
      <point x="61" y="419" type="curve" smooth="yes"/>
      <point x="61" y="122" type="line" smooth="yes"/>
      <point x="61" y="64"/>
      <point x="49" y="53"/>
      <point x="22" y="53" type="curve" smooth="yes"/>
      <point x="11" y="53" type="line"/>
      <point x="11" y="0" type="line"/>
      <point x="244" y="0" type="line"/>
      <point x="244" y="53" type="line"/>
      <point x="235" y="53" type="line" smooth="yes"/>
      <point x="211" y="53"/>
      <point x="204" y="67"/>
      <point x="204" y="120" type="curve" smooth="yes"/>
      <point x="204" y="252" type="line"/>
      <point x="210" y="252"/>
      <point x="215" y="245"/>
      <point x="235" y="192" type="curve" smooth="yes"/>
      <point x="273" y="98" type="line" smooth="yes"/>
      <point x="296" y="38"/>
      <point x="338" y="17"/>
      <point x="390" y="5" type="curve" smooth="yes"/>
      <point x="447" y="-11"/>
      <point x="454" y="-38"/>
    </contour>
  </outline>
</glyph>
<glyph name="uni04AF" format="2">
  <advance width="453"/>
  <unicode hex="04AF"/>
  <anchor x="226" y="-239" name="bottom"/>
  <anchor x="226" y="536" name="top"/>
  <outline>
    <contour>
      <point x="115" y="-239" type="line"/>
      <point x="359" y="-239" type="line"/>
      <point x="359" y="-186" type="line"/>
      <point x="353" y="-186" type="line" smooth="yes"/>
      <point x="326" y="-186"/>
      <point x="306" y="-173"/>
      <point x="306" y="-115" type="curve" smooth="yes"/>
      <point x="306" y="8" type="line"/>
      <point x="394" y="405" type="line" smooth="yes"/>
      <point x="409" y="469"/>
      <point x="418" y="483"/>
      <point x="439" y="483" type="curve" smooth="yes"/>
      <point x="452" y="483" type="line"/>
      <point x="452" y="536" type="line"/>
      <point x="292" y="536" type="line"/>
      <point x="292" y="483" type="line"/>
      <point x="309" y="483" type="line" smooth="yes"/>
      <point x="326" y="483"/>
      <point x="338" y="471"/>
      <point x="338" y="452" type="curve" smooth="yes"/>
      <point x="338" y="432"/>
      <point x="334" y="414"/>
      <point x="327" y="389" type="curve" smooth="yes"/>
      <point x="287" y="199" type="line" smooth="yes"/>
      <point x="277" y="151"/>
      <point x="274" y="121"/>
      <point x="272" y="91" type="curve"/>
      <point x="268" y="123"/>
      <point x="266" y="160"/>
      <point x="256" y="202" type="curve" smooth="yes"/>
      <point x="207" y="400" type="line"/>
      <point x="206" y="412"/>
      <point x="199" y="433"/>
      <point x="199" y="453" type="curve" smooth="yes"/>
      <point x="199" y="471"/>
      <point x="207" y="483"/>
      <point x="227" y="483" type="curve" smooth="yes"/>
      <point x="254" y="483" type="line"/>
      <point x="254" y="536" type="line"/>
      <point x="5" y="536" type="line"/>
      <point x="5" y="483" type="line"/>
      <point x="39" y="483"/>
      <point x="49" y="474"/>
      <point x="60" y="436" type="curve" smooth="yes"/>
      <point x="169" y="5" type="line"/>
      <point x="169" y="-113" type="line" smooth="yes"/>
      <point x="169" y="-173"/>
      <point x="151" y="-186"/>
      <point x="124" y="-186" type="curve" smooth="yes"/>
      <point x="115" y="-186" type="line"/>
    </contour>
  </outline>
</glyph>
<glyph name="uni04B7" format="2">
  <advance width="489"/>
  <unicode hex="04B7"/>
  <anchor x="244" y="0" name="bottom"/>
  <anchor x="244" y="536" name="top"/>
  <outline>
    <contour>
      <point x="436" y="-203" type="line"/>
      <point x="480" y="-203" type="line"/>
      <point x="480" y="54" type="line"/>
      <point x="471" y="54" type="line" smooth="yes"/>
      <point x="444" y="54"/>
      <point x="427" y="72"/>
      <point x="427" y="123" type="curve" smooth="yes"/>
      <point x="427" y="414" type="line" smooth="yes"/>
      <point x="427" y="467"/>
      <point x="443" y="483"/>
      <point x="466" y="483" type="curve" smooth="yes"/>
      <point x="478" y="483" type="line"/>
      <point x="478" y="536" type="line"/>
      <point x="249" y="536" type="line"/>
      <point x="249" y="483" type="line"/>
      <point x="256" y="483" type="line" smooth="yes"/>
      <point x="277" y="483"/>
      <point x="285" y="472"/>
      <point x="285" y="419" type="curve" smooth="yes"/>
      <point x="285" y="289" type="line"/>
      <point x="268" y="269"/>
      <point x="249" y="259"/>
      <point x="232" y="259" type="curve" smooth="yes"/>
      <point x="210" y="259"/>
      <point x="195" y="277"/>
      <point x="195" y="328" type="curve" smooth="yes"/>
      <point x="195" y="421" type="line" smooth="yes"/>
      <point x="195" y="473"/>
      <point x="201" y="483"/>
      <point x="224" y="483" type="curve" smooth="yes"/>
      <point x="229" y="483" type="line"/>
      <point x="229" y="536" type="line"/>
      <point x="5" y="536" type="line"/>
      <point x="5" y="483" type="line"/>
      <point x="11" y="483" type="line" smooth="yes"/>
      <point x="41" y="483"/>
      <point x="53" y="464"/>
      <point x="53" y="415" type="curve" smooth="yes"/>
      <point x="53" y="312" type="line" smooth="yes"/>
      <point x="53" y="227"/>
      <point x="93" y="180"/>
      <point x="168" y="180" type="curve" smooth="yes"/>
      <point x="226" y="180"/>
      <point x="260" y="205"/>
      <point x="285" y="229" type="curve"/>
      <point x="285" y="120" type="line" smooth="yes"/>
      <point x="285" y="61"/>
      <point x="265" y="53"/>
      <point x="232" y="53" type="curve" smooth="yes"/>
      <point x="219" y="53" type="line"/>
      <point x="219" y="0" type="line"/>
      <point x="357" y="0" type="line" smooth="yes"/>
      <point x="408" y="0"/>
      <point x="424" y="-26"/>
      <point x="431" y="-144" type="curve" smooth="yes"/>
    </contour>
  </outline>
</glyph>
<glyph name="uni04CA" format="2">
  <advance width="511"/>
  <unicode hex="04CA"/>
  <anchor x="256" y="0" name="bottom"/>
  <anchor x="256" y="536" name="top"/>
  <outline>
    <contour>
      <point x="373" y="-210" type="line"/>
      <point x="467" y="-210" type="line"/>
      <point x="509" y="34" type="line"/>
      <point x="509" y="53" type="line"/>
      <point x="444" y="53" type="line"/>
      <point x="440" y="0" type="line"/>
    </contour>
    <component base="afii10079"/>
  </outline>
</glyph>
<glyph name="uni04E1" format="2">
  <advance width="411"/>
  <unicode hex="04E1"/>
  <anchor x="206" y="-240" name="bottom"/>
  <anchor x="206" y="536" name="top"/>
  <outline>
    <contour>
      <point x="176" y="-240" type="curve" smooth="yes"/>
      <point x="283" y="-240"/>
      <point x="389" y="-176"/>
      <point x="389" y="-2" type="curve" smooth="yes"/>
      <point x="389" y="150"/>
      <point x="315" y="211"/>
      <point x="219" y="219" type="curve"/>
      <point x="375" y="462" type="line"/>
      <point x="375" y="536" type="line"/>
      <point x="47" y="536" type="line"/>
      <point x="34" y="341" type="line"/>
      <point x="77" y="341" type="line"/>
      <point x="86" y="370" type="line" smooth="yes"/>
      <point x="97" y="419"/>
      <point x="103" y="434"/>
      <point x="136" y="434" type="curve" smooth="yes"/>
      <point x="278" y="434" type="line"/>
      <point x="125" y="199" type="line"/>
      <point x="125" y="158" type="line"/>
      <point x="151" y="158" type="line" smooth="yes"/>
      <point x="210" y="158"/>
      <point x="248" y="106"/>
      <point x="248" y="-7" type="curve" smooth="yes"/>
      <point x="248" y="-139"/>
      <point x="217" y="-183"/>
      <point x="171" y="-183" type="curve" smooth="yes"/>
      <point x="111" y="-183"/>
      <point x="94" y="-115"/>
      <point x="94" y="-45" type="curve"/>
      <point x="32" y="-45"/>
      <point x="9" y="-72"/>
      <point x="9" y="-117" type="curve" smooth="yes"/>
      <point x="9" y="-170"/>
      <point x="45" y="-240"/>
    </contour>
  </outline>
</glyph>
<glyph name="uni04E8" format="2">
  <advance width="593"/>
  <unicode hex="04E8"/>
  <anchor x="297" y="0" name="bottom"/>
  <anchor x="297" y="714" name="top"/>
  <outline>
    <contour>
      <point x="298" y="-10" type="curve" smooth="yes"/>
      <point x="462" y="-10"/>
      <point x="554" y="137"/>
      <point x="554" y="358" type="curve" smooth="yes"/>
      <point x="554" y="580"/>
      <point x="462" y="725"/>
      <point x="299" y="725" type="curve" smooth="yes"/>
      <point x="123" y="725"/>
      <point x="39" y="580"/>
      <point x="39" y="359" type="curve" smooth="yes"/>
      <point x="39" y="137"/>
      <point x="123" y="-10"/>
    </contour>
    <contour>
      <point x="298" y="55" type="curve" smooth="yes"/>
      <point x="223" y="55"/>
      <point x="194" y="162"/>
      <point x="193" y="343" type="curve"/>
      <point x="401" y="343" type="line"/>
      <point x="400" y="162"/>
      <point x="372" y="55"/>
    </contour>
    <contour>
      <point x="194" y="404" type="line"/>
      <point x="198" y="565"/>
      <point x="228" y="660"/>
      <point x="299" y="660" type="curve" smooth="yes"/>
      <point x="367" y="660"/>
      <point x="396" y="565"/>
      <point x="400" y="404" type="curve"/>
    </contour>
  </outline>
</glyph>
<glyph name="uni0518" format="2">
  <advance width="719"/>
  <unicode hex="0518"/>
  <anchor x="359" y="0" name="bottom"/>
  <anchor x="359" y="714" name="top"/>
  <outline>
    <contour>
      <point x="-3" y="0" type="line"/>
      <point x="38" y="0" type="line" smooth="yes"/>
      <point x="122" y="0"/>
      <point x="175" y="14"/>
      <point x="201" y="98" type="curve" smooth="yes"/>
      <point x="273" y="306" type="line"/>
      <point x="311" y="306" type="line"/>
      <point x="311" y="113" type="line" smooth="yes"/>
      <point x="311" y="61"/>
      <point x="294" y="53"/>
      <point x="275" y="53" type="curve" smooth="yes"/>
      <point x="249" y="53" type="line"/>
      <point x="249" y="0" type="line"/>
      <point x="696" y="0" type="line"/>
      <point x="701" y="184" type="line"/>
      <point x="639" y="184" type="line"/>
      <point x="635" y="138" type="line" smooth="yes"/>
      <point x="629" y="94"/>
      <point x="616" y="61"/>
      <point x="585" y="61" type="curve" smooth="yes"/>
      <point x="456" y="61" type="line"/>
      <point x="456" y="344" type="line"/>
      <point x="625" y="344" type="line"/>
      <point x="625" y="404" type="line"/>
      <point x="456" y="404" type="line"/>
      <point x="456" y="653" type="line"/>
      <point x="564" y="653" type="line" smooth="yes"/>
      <point x="598" y="653"/>
      <point x="609" y="626"/>
      <point x="613" y="576" type="curve" smooth="yes"/>
      <point x="614" y="530" type="line"/>
      <point x="676" y="530" type="line"/>
      <point x="674" y="714" type="line"/>
      <point x="260" y="714" type="line" smooth="yes"/>
      <point x="114" y="714"/>
      <point x="51" y="640"/>
      <point x="51" y="519" type="curve" smooth="yes"/>
      <point x="51" y="406"/>
      <point x="99" y="362"/>
      <point x="146" y="334" type="curve"/>
      <point x="68" y="135" type="line" smooth="yes"/>
      <point x="45" y="75"/>
      <point x="26" y="53"/>
      <point x="-1" y="53" type="curve" smooth="yes"/>
      <point x="-3" y="53" type="line"/>
    </contour>
    <contour>
      <point x="282" y="364" type="line" smooth="yes"/>
      <point x="230" y="364"/>
      <point x="209" y="415"/>
      <point x="209" y="509" type="curve" smooth="yes"/>
      <point x="209" y="612"/>
      <point x="230" y="655"/>
      <point x="281" y="655" type="curve" smooth="yes"/>
      <point x="312" y="655" type="line"/>
      <point x="312" y="364" type="line"/>
    </contour>
  </outline>
</glyph>
<glyph name="uni0519" format="2">
  <advance width="659"/>
  <unicode hex="0519"/>
  <anchor x="329" y="0" name="bottom"/>
  <anchor x="329" y="536" name="top"/>
  <outline>
    <contour>
      <point x="466" y="-10" type="curve" smooth="yes"/>
      <point x="582" y="-10"/>
      <point x="626" y="53"/>
      <point x="626" y="105" type="curve" smooth="yes"/>
      <point x="626" y="128"/>
      <point x="612" y="142"/>
      <point x="594" y="148" type="curve"/>
      <point x="578" y="100"/>
      <point x="550" y="62"/>
      <point x="502" y="62" type="curve" smooth="yes"/>
      <point x="440" y="62"/>
      <point x="409" y="122"/>
      <point x="406" y="259" type="curve"/>
      <point x="640" y="259" type="line"/>
      <point x="640" y="307" type="line" smooth="yes"/>
      <point x="640" y="465"/>
      <point x="571" y="549"/>
      <point x="466" y="549" type="curve" smooth="yes"/>
      <point x="428" y="549"/>
      <point x="397" y="534"/>
      <point x="373" y="504" type="curve"/>
      <point x="373" y="536" type="line"/>
      <point x="207" y="536" type="line" smooth="yes"/>
      <point x="84" y="536"/>
      <point x="39" y="475"/>
      <point x="39" y="386" type="curve" smooth="yes"/>
      <point x="39" y="302"/>
      <point x="81" y="262"/>
      <point x="120" y="248" type="curve"/>
      <point x="56" y="113" type="line" smooth="yes"/>
      <point x="36" y="72"/>
      <point x="23" y="53"/>
      <point x="-3" y="53" type="curve" smooth="yes"/>
      <point x="-4" y="53" type="line"/>
      <point x="-4" y="0" type="line"/>
      <point x="99" y="0"/>
      <point x="154" y="12"/>
      <point x="186" y="92" type="curve" smooth="yes"/>
      <point x="243" y="232" type="line"/>
      <point x="264" y="232" type="line"/>
      <point x="273" y="77"/>
      <point x="338" y="-10"/>
    </contour>
    <contour>
      <point x="246" y="290" type="line" smooth="yes"/>
      <point x="201" y="290"/>
      <point x="183" y="331"/>
      <point x="183" y="388" type="curve" smooth="yes"/>
      <point x="183" y="442"/>
      <point x="200" y="479"/>
      <point x="246" y="479" type="curve" smooth="yes"/>
      <point x="264" y="479" type="line"/>
      <point x="264" y="290" type="line"/>
    </contour>
    <contour>
      <point x="408" y="320" type="line"/>
      <point x="406" y="427"/>
      <point x="429" y="486"/>
      <point x="460" y="486" type="curve" smooth="yes"/>
      <point x="489" y="486"/>
      <point x="501" y="422"/>
      <point x="501" y="320" type="curve"/>
    </contour>
  </outline>
</glyph>
<glyph name="uni0528" format="2">
  <advance width="605"/>
  <unicode hex="0528"/>
  <anchor x="302" y="-240" name="bottom"/>
  <anchor x="302" y="714" name="top"/>
  <outline>
    <contour>
      <point x="-1" y="-240" type="line"/>
      <point x="36" y="-240" type="line" smooth="yes"/>
      <point x="139" y="-240"/>
      <point x="226" y="-177"/>
      <point x="226" y="4" type="curve" smooth="yes"/>
      <point x="226" y="343" type="line"/>
      <point x="379" y="343" type="line"/>
      <point x="379" y="115" type="line" smooth="yes"/>
      <point x="379" y="71"/>
      <point x="371" y="53"/>
      <point x="350" y="53" type="curve" smooth="yes"/>
      <point x="328" y="53" type="line"/>
      <point x="328" y="0" type="line"/>
      <point x="591" y="0" type="line"/>
      <point x="591" y="53" type="line"/>
      <point x="553" y="53" type="line" smooth="yes"/>
      <point x="537" y="53"/>
      <point x="524" y="70"/>
      <point x="524" y="111" type="curve" smooth="yes"/>
      <point x="524" y="602" type="line" smooth="yes"/>
      <point x="524" y="648"/>
      <point x="536" y="661"/>
      <point x="553" y="661" type="curve" smooth="yes"/>
      <point x="591" y="661" type="line"/>
      <point x="591" y="714" type="line"/>
      <point x="328" y="714" type="line"/>
      <point x="328" y="661" type="line"/>
      <point x="351" y="661" type="line" smooth="yes"/>
      <point x="372" y="661"/>
      <point x="379" y="648"/>
      <point x="379" y="602" type="curve" smooth="yes"/>
      <point x="379" y="404" type="line"/>
      <point x="226" y="404" type="line"/>
      <point x="226" y="605" type="line" smooth="yes"/>
      <point x="226" y="648"/>
      <point x="235" y="661"/>
      <point x="252" y="661" type="curve" smooth="yes"/>
      <point x="279" y="661" type="line"/>
      <point x="279" y="714" type="line"/>
      <point x="16" y="714" type="line"/>
      <point x="16" y="661" type="line"/>
      <point x="47" y="661" type="line" smooth="yes"/>
      <point x="65" y="661"/>
      <point x="81" y="648"/>
      <point x="81" y="602" type="curve" smooth="yes"/>
      <point x="81" y="-11" type="line"/>
      <point x="81" y="-141"/>
      <point x="54" y="-182"/>
      <point x="10" y="-182" type="curve" smooth="yes"/>
      <point x="-1" y="-182" type="line"/>
    </contour>
  </outline>
</glyph>
<glyph name="uni1D00" format="2">
  <advance width="481"/>
  <unicode hex="1D00"/>
  <anchor x="240" y="0" name="bottom"/>
  <anchor x="240" y="536" name="top"/>
  <outline>
    <contour>
      <point x="4" y="0" type="line"/>
      <point x="168" y="0" type="line"/>
      <point x="168" y="54" type="line"/>
      <point x="147" y="54" type="line" smooth="yes"/>
      <point x="131" y="54"/>
      <point x="121" y="65"/>
      <point x="121" y="85" type="curve" smooth="yes"/>
      <point x="121" y="95"/>
      <point x="125" y="105"/>
      <point x="128" y="121" type="curve" smooth="yes"/>
      <point x="140" y="178" type="line"/>
      <point x="269" y="178" type="line"/>
      <point x="281" y="121" type="line" smooth="yes"/>
      <point x="285" y="107"/>
      <point x="288" y="94"/>
      <point x="288" y="81" type="curve" smooth="yes"/>
      <point x="288" y="64"/>
      <point x="279" y="54"/>
      <point x="262" y="54" type="curve" smooth="yes"/>
      <point x="241" y="54" type="line"/>
      <point x="241" y="0" type="line"/>
      <point x="476" y="0" type="line"/>
      <point x="476" y="54" type="line"/>
      <point x="467" y="54" type="line" smooth="yes"/>
      <point x="449" y="54"/>
      <point x="429" y="68"/>
      <point x="419" y="107" type="curve" smooth="yes"/>
      <point x="304" y="536" type="line"/>
      <point x="180" y="536" type="line"/>
      <point x="56" y="107" type="line" smooth="yes"/>
      <point x="44" y="64"/>
      <point x="28" y="54"/>
      <point x="7" y="54" type="curve" smooth="yes"/>
      <point x="4" y="54" type="line"/>
    </contour>
    <contour>
      <point x="152" y="226" type="line"/>
      <point x="185" y="356" type="line" smooth="yes"/>
      <point x="192" y="386"/>
      <point x="199" y="416"/>
      <point x="204" y="446" type="curve"/>
      <point x="208" y="446" type="line"/>
      <point x="211" y="416"/>
      <point x="218" y="384"/>
      <point x="223" y="353" type="curve" smooth="yes"/>
      <point x="258" y="226" type="line"/>
    </contour>
  </outline>
</glyph>
<glyph name="uni1D0D" format="2">
  <advance width="570"/>
  <unicode hex="1D0D"/>
  <anchor x="286" y="0" name="bottom"/>
  <anchor x="286" y="536" name="top"/>
  <outline>
    <contour>
      <point x="9" y="0" type="line"/>
      <point x="163" y="0" type="line"/>
      <point x="163" y="54" type="line"/>
      <point x="158" y="54" type="line" smooth="yes"/>
      <point x="129" y="54"/>
      <point x="117" y="61"/>
      <point x="117" y="100" type="curve" smooth="yes"/>
      <point x="117" y="434" type="line"/>
      <point x="119" y="434" type="line"/>
      <point x="224" y="0" type="line"/>
      <point x="273" y="0" type="line"/>
      <point x="371" y="434" type="line"/>
      <point x="373" y="434" type="line"/>
      <point x="373" y="94" type="line" smooth="yes"/>
      <point x="373" y="63"/>
      <point x="367" y="54"/>
      <point x="343" y="54" type="curve" smooth="yes"/>
      <point x="338" y="54" type="line"/>
      <point x="338" y="0" type="line"/>
      <point x="559" y="0" type="line"/>
      <point x="559" y="54" type="line"/>
      <point x="532" y="54" type="line" smooth="yes"/>
      <point x="515" y="54"/>
      <point x="506" y="63"/>
      <point x="506" y="95" type="curve" smooth="yes"/>
      <point x="506" y="440" type="line" smooth="yes"/>
      <point x="506" y="472"/>
      <point x="517" y="481"/>
      <point x="530" y="481" type="curve" smooth="yes"/>
      <point x="559" y="481" type="line"/>
      <point x="559" y="536" type="line"/>
      <point x="347" y="536" type="line"/>
      <point x="289" y="204" type="line"/>
      <point x="287" y="204" type="line"/>
      <point x="223" y="536" type="line"/>
      <point x="9" y="536" type="line"/>
      <point x="9" y="481" type="line"/>
      <point x="38" y="481" type="line" smooth="yes"/>
      <point x="50" y="481"/>
      <point x="62" y="472"/>
      <point x="62" y="439" type="curve" smooth="yes"/>
      <point x="62" y="102" type="line" smooth="yes"/>
      <point x="62" y="67"/>
      <point x="50" y="54"/>
      <point x="33" y="54" type="curve" smooth="yes"/>
      <point x="9" y="54" type="line"/>
    </contour>
  </outline>
</glyph>
<glyph name="uni1D1C" format="2">
  <advance width="459"/>
  <unicode hex="1D1C"/>
  <anchor x="230" y="0" name="bottom"/>
  <anchor x="230" y="536" name="top"/>
  <outline>
    <contour>
      <point x="242" y="-8" type="curve" smooth="yes"/>
      <point x="356" y="-8"/>
      <point x="395" y="61"/>
      <point x="395" y="166" type="curve" smooth="yes"/>
      <point x="395" y="431" type="line" smooth="yes"/>
      <point x="395" y="473"/>
      <point x="412" y="481"/>
      <point x="423" y="481" type="curve" smooth="yes"/>
      <point x="450" y="481" type="line"/>
      <point x="450" y="536" type="line"/>
      <point x="289" y="536" type="line"/>
      <point x="289" y="481" type="line"/>
      <point x="312" y="481" type="line" smooth="yes"/>
      <point x="327" y="481"/>
      <point x="342" y="473"/>
      <point x="342" y="434" type="curve" smooth="yes"/>
      <point x="342" y="168" type="line" smooth="yes"/>
      <point x="342" y="90"/>
      <point x="306" y="59"/>
      <point x="273" y="59" type="curve" smooth="yes"/>
      <point x="224" y="59"/>
      <point x="200" y="88"/>
      <point x="200" y="170" type="curve" smooth="yes"/>
      <point x="200" y="431" type="line" smooth="yes"/>
      <point x="200" y="473"/>
      <point x="218" y="481"/>
      <point x="229" y="481" type="curve" smooth="yes"/>
      <point x="252" y="481" type="line"/>
      <point x="252" y="536" type="line"/>
      <point x="12" y="536" type="line"/>
      <point x="12" y="481" type="line"/>
      <point x="39" y="481" type="line" smooth="yes"/>
      <point x="49" y="481"/>
      <point x="64" y="473"/>
      <point x="64" y="434" type="curve" smooth="yes"/>
      <point x="64" y="170" type="line" smooth="yes"/>
      <point x="64" y="39"/>
      <point x="135" y="-8"/>
    </contour>
  </outline>
</glyph>
<glyph name="uni1D21" format="2">
  <advance width="666"/>
  <unicode hex="1D21"/>
  <anchor x="333" y="0" name="bottom"/>
  <anchor x="333" y="536" name="top"/>
  <outline>
    <contour>
      <point x="147" y="0" type="line"/>
      <point x="251" y="0" type="line"/>
      <point x="327" y="355" type="line"/>
      <point x="331" y="355" type="line"/>
      <point x="398" y="0" type="line"/>
      <point x="501" y="0" type="line"/>
      <point x="598" y="413" type="line" smooth="yes"/>
      <point x="610" y="467"/>
      <point x="622" y="481"/>
      <point x="652" y="481" type="curve" smooth="yes"/>
      <point x="661" y="481" type="line"/>
      <point x="661" y="536" type="line"/>
      <point x="485" y="536" type="line"/>
      <point x="485" y="481" type="line"/>
      <point x="496" y="481" type="line" smooth="yes"/>
      <point x="524" y="482"/>
      <point x="537" y="470"/>
      <point x="537" y="442" type="curve" smooth="yes"/>
      <point x="537" y="426"/>
      <point x="532" y="407"/>
      <point x="526" y="379" type="curve" smooth="yes"/>
      <point x="498" y="219" type="line" smooth="yes"/>
      <point x="495" y="197"/>
      <point x="490" y="181"/>
      <point x="487" y="159" type="curve"/>
      <point x="482" y="159" type="line"/>
      <point x="480" y="181"/>
      <point x="475" y="201"/>
      <point x="470" y="227" type="curve" smooth="yes"/>
      <point x="402" y="530" type="line"/>
      <point x="323" y="530" type="line"/>
      <point x="257" y="241" type="line" smooth="yes"/>
      <point x="250" y="214"/>
      <point x="245" y="188"/>
      <point x="240" y="160" type="curve"/>
      <point x="236" y="160" type="line"/>
      <point x="233" y="177"/>
      <point x="228" y="205"/>
      <point x="224" y="236" type="curve" smooth="yes"/>
      <point x="199" y="409" type="line" smooth="yes"/>
      <point x="199" y="422"/>
      <point x="194" y="437"/>
      <point x="194" y="449" type="curve" smooth="yes"/>
      <point x="194" y="474"/>
      <point x="209" y="481"/>
      <point x="231" y="481" type="curve" smooth="yes"/>
      <point x="242" y="481" type="line"/>
      <point x="242" y="536" type="line"/>
      <point x="4" y="536" type="line"/>
      <point x="4" y="481" type="line"/>
      <point x="10" y="481" type="line" smooth="yes"/>
      <point x="34" y="481"/>
      <point x="44" y="474"/>
      <point x="52" y="437" type="curve" smooth="yes"/>
    </contour>
  </outline>
</glyph>
<glyph name="uni1D2A" format="2">
  <advance width="608"/>
  <unicode hex="1D2A"/>
  <outline>
    <contour>
      <point x="191" y="0" type="line"/>
      <point x="416" y="0" type="line"/>
      <point x="416" y="54" type="line"/>
      <point x="401" y="54" type="line" smooth="yes"/>
      <point x="379" y="54"/>
      <point x="367" y="69"/>
      <point x="367" y="113" type="curve" smooth="yes"/>
      <point x="367" y="175" type="line"/>
      <point x="384" y="175" type="line" smooth="yes"/>
      <point x="537" y="175"/>
      <point x="557" y="256"/>
      <point x="557" y="347" type="curve" smooth="yes"/>
      <point x="557" y="431" type="line" smooth="yes"/>
      <point x="557" y="471"/>
      <point x="570" y="481"/>
      <point x="597" y="481" type="curve"/>
      <point x="597" y="536" type="line"/>
      <point x="433" y="536" type="line"/>
      <point x="433" y="343" type="line" smooth="yes"/>
      <point x="433" y="268"/>
      <point x="425" y="229"/>
      <point x="373" y="229" type="curve" smooth="yes"/>
      <point x="367" y="229" type="line"/>
      <point x="367" y="429" type="line"/>
      <point x="367" y="463"/>
      <point x="374" y="481"/>
      <point x="394" y="481" type="curve" smooth="yes"/>
      <point x="409" y="481" type="line"/>
      <point x="409" y="536" type="line"/>
      <point x="197" y="536" type="line"/>
      <point x="197" y="481" type="line"/>
      <point x="216" y="481" type="line" smooth="yes"/>
      <point x="236" y="481"/>
      <point x="243" y="463"/>
      <point x="243" y="429" type="curve" smooth="yes"/>
      <point x="243" y="229" type="line"/>
      <point x="235" y="229" type="line" smooth="yes"/>
      <point x="185" y="229"/>
      <point x="176" y="268"/>
      <point x="176" y="343" type="curve" smooth="yes"/>
      <point x="176" y="536" type="line"/>
      <point x="10" y="536" type="line"/>
      <point x="10" y="481" type="line"/>
      <point x="35" y="481"/>
      <point x="48" y="471"/>
      <point x="48" y="431" type="curve" smooth="yes"/>
      <point x="48" y="347" type="line" smooth="yes"/>
      <point x="48" y="256"/>
      <point x="69" y="175"/>
      <point x="222" y="175" type="curve" smooth="yes"/>
      <point x="243" y="175" type="line"/>
      <point x="243" y="113" type="line" smooth="yes"/>
      <point x="243" y="69"/>
      <point x="230" y="54"/>
      <point x="208" y="54" type="curve" smooth="yes"/>
      <point x="191" y="54" type="line"/>
    </contour>
  </outline>
</glyph>
<glyph name="uni1D7E" format="2">
  <advance width="474"/>
  <unicode hex="1D7E"/>
  <outline>
    <contour>
      <point x="246" y="-9" type="curve" smooth="yes"/>
      <point x="363" y="-9"/>
      <point x="406" y="71"/>
      <point x="406" y="178" type="curve" smooth="yes"/>
      <point x="406" y="263" type="line"/>
      <point x="468" y="263" type="line"/>
      <point x="468" y="319" type="line"/>
      <point x="406" y="319" type="line"/>
      <point x="406" y="432" type="line" smooth="yes"/>
      <point x="406" y="476"/>
      <point x="418" y="484"/>
      <point x="437" y="484" type="curve" smooth="yes"/>
      <point x="463" y="484" type="line"/>
      <point x="463" y="536" type="line"/>
      <point x="281" y="536" type="line"/>
      <point x="281" y="484" type="line"/>
      <point x="304" y="484" type="line" smooth="yes"/>
      <point x="326" y="484"/>
      <point x="336" y="474"/>
      <point x="336" y="433" type="curve" smooth="yes"/>
      <point x="336" y="319" type="line"/>
      <point x="195" y="319" type="line"/>
      <point x="195" y="536" type="line"/>
      <point x="3" y="536" type="line"/>
      <point x="3" y="482" type="line"/>
      <point x="27" y="482" type="line" smooth="yes"/>
      <point x="47" y="482"/>
      <point x="59" y="469"/>
      <point x="59" y="428" type="curve" smooth="yes"/>
      <point x="59" y="319" type="line"/>
      <point x="3" y="319" type="line"/>
      <point x="3" y="263" type="line"/>
      <point x="59" y="263" type="line"/>
      <point x="59" y="183" type="line" smooth="yes"/>
      <point x="59" y="45"/>
      <point x="129" y="-9"/>
    </contour>
    <contour>
      <point x="266" y="58" type="curve" smooth="yes"/>
      <point x="221" y="58"/>
      <point x="194" y="85"/>
      <point x="194" y="178" type="curve" smooth="yes"/>
      <point x="194" y="263" type="line"/>
      <point x="335" y="263" type="line"/>
      <point x="335" y="177" type="line" smooth="yes"/>
      <point x="335" y="95"/>
      <point x="305" y="58"/>
    </contour>
  </outline>
</glyph>
<glyph name="uni1D83" format="2">
  <advance width="624"/>
  <unicode hex="1D83"/>
  <anchor x="244" y="536" name="top"/>
  <anchor x="244" y="-233" name="bottom"/>
  <outline>
    <contour>
      <point x="519" y="-204" type="curve" smooth="yes"/>
      <point x="578" y="-204"/>
      <point x="609" y="-144"/>
      <point x="609" y="-34" type="curve" smooth="yes"/>
      <point x="609" y="135" type="line"/>
      <point x="404" y="135" type="line"/>
      <point x="404" y="75" type="line"/>
      <point x="555" y="75" type="line"/>
      <point x="555" y="-37" type="line" smooth="yes"/>
      <point x="555" y="-95"/>
      <point x="538" y="-117"/>
      <point x="507" y="-117" type="curve" smooth="yes"/>
      <point x="492" y="-117"/>
      <point x="481" y="-110"/>
      <point x="473" y="-101" type="curve"/>
      <point x="466" y="-110"/>
      <point x="462" y="-123"/>
      <point x="462" y="-139" type="curve" smooth="yes"/>
      <point x="462" y="-181"/>
      <point x="484" y="-204"/>
    </contour>
    <component base="uni0261"/>
  </outline>
</glyph>
<glyph name="uni1D88" format="2">
  <advance width="483"/>
  <unicode hex="1D88"/>
  <anchor x="242" y="536" name="top"/>
  <anchor x="480" y="536" name="topright"/>
  <anchor x="242" y="-228" name="bottom"/>
  <outline>
    <contour>
      <point x="339" y="-204" type="curve" smooth="yes"/>
      <point x="396" y="-204"/>
      <point x="429" y="-144"/>
      <point x="429" y="-34" type="curve" smooth="yes"/>
      <point x="429" y="111" type="line"/>
      <point x="375" y="111" type="line"/>
      <point x="375" y="-37" type="line" smooth="yes"/>
      <point x="375" y="-94"/>
      <point x="358" y="-117"/>
      <point x="325" y="-117" type="curve" smooth="yes"/>
      <point x="312" y="-117"/>
      <point x="301" y="-110"/>
      <point x="291" y="-101" type="curve"/>
      <point x="284" y="-110"/>
      <point x="281" y="-123"/>
      <point x="281" y="-139" type="curve" smooth="yes"/>
      <point x="281" y="-181"/>
      <point x="304" y="-204"/>
    </contour>
    <component base="p"/>
  </outline>
</glyph>
<glyph name="uni1D8B" format="2">
  <advance width="480"/>
  <unicode hex="1D8B"/>
  <anchor x="210" y="764" name="top"/>
  <anchor x="210" y="-235" name="bottom"/>
  <outline>
    <contour>
      <point x="383" y="-204" type="curve" smooth="yes"/>
      <point x="440" y="-204"/>
      <point x="473" y="-144"/>
      <point x="473" y="-34" type="curve" smooth="yes"/>
      <point x="473" y="135" type="line"/>
      <point x="268" y="135" type="line"/>
      <point x="268" y="75" type="line"/>
      <point x="419" y="75" type="line"/>
      <point x="419" y="-37" type="line" smooth="yes"/>
      <point x="419" y="-95"/>
      <point x="402" y="-117"/>
      <point x="371" y="-117" type="curve" smooth="yes"/>
      <point x="356" y="-117"/>
      <point x="345" y="-110"/>
      <point x="335" y="-101" type="curve"/>
      <point x="328" y="-110"/>
      <point x="325" y="-123"/>
      <point x="325" y="-139" type="curve" smooth="yes"/>
      <point x="325" y="-181"/>
      <point x="346" y="-204"/>
    </contour>
    <component base="uni0283"/>
  </outline>
</glyph>
<glyph name="uni1D90" format="2">
  <advance width="487"/>
  <unicode hex="1D90"/>
  <anchor x="243" y="536" name="top"/>
  <anchor x="243" y="0" name="bottom"/>
  <outline>
    <contour>
      <point x="513" y="-204" type="curve" smooth="yes"/>
      <point x="550" y="-204"/>
      <point x="572" y="-181"/>
      <point x="572" y="-139" type="curve" smooth="yes"/>
      <point x="572" y="-123"/>
      <point x="568" y="-110"/>
      <point x="563" y="-101" type="curve"/>
      <point x="553" y="-110"/>
      <point x="542" y="-117"/>
      <point x="527" y="-117" type="curve" smooth="yes"/>
      <point x="496" y="-117"/>
      <point x="478" y="-93"/>
      <point x="478" y="-37" type="curve" smooth="yes"/>
      <point x="478" y="53" type="line"/>
      <point x="425" y="53" type="line"/>
      <point x="425" y="-34" type="line" smooth="yes"/>
      <point x="425" y="-144"/>
      <point x="456" y="-204"/>
    </contour>
    <component base="uni0251"/>
  </outline>
</glyph>
<glyph name="uni1D92" format="2">
  <advance width="433"/>
  <unicode hex="1D92"/>
  <anchor x="227" y="536" name="top"/>
  <anchor x="413" y="536" name="topright"/>
  <anchor x="227" y="0" name="bottom"/>
  <outline>
    <contour>
      <point x="428" y="-204" type="curve" smooth="yes"/>
      <point x="464" y="-204"/>
      <point x="486" y="-179"/>
      <point x="486" y="-139" type="curve" smooth="yes"/>
      <point x="486" y="-123"/>
      <point x="483" y="-110"/>
      <point x="475" y="-101" type="curve"/>
      <point x="466" y="-111"/>
      <point x="457" y="-117"/>
      <point x="440" y="-117" type="curve" smooth="yes"/>
      <point x="408" y="-117"/>
      <point x="392" y="-96"/>
      <point x="392" y="-37" type="curve" smooth="yes"/>
      <point x="392" y="104" type="line"/>
      <point x="338" y="64" type="line"/>
      <point x="338" y="-34" type="line" smooth="yes"/>
      <point x="338" y="-144"/>
      <point x="370" y="-204"/>
    </contour>
    <component base="e"/>
  </outline>
</glyph>
<glyph name="acutemacron" format="2">
  <unicode hex="1DC7"/>
  <anchor x="-5" y="536" name="_top"/>
  <anchor x="-5" y="729" name="top"/>
  <outline>
    <contour>
      <point x="-92" y="591" type="line"/>
      <point x="-3" y="656" type="line"/>
      <point x="111" y="656" type="line"/>
      <point x="111" y="729" type="line"/>
      <point x="-19" y="729" type="line"/>
      <point x="-120" y="654" type="line"/>
    </contour>
  </outline>
</glyph>
<glyph name="Germandbls" format="2">
  <advance width="567"/>
  <unicode hex="1E9E"/>
  <anchor x="284" y="0" name="bottom"/>
  <anchor x="284" y="714" name="top"/>
  <outline>
    <contour>
      <point x="367" y="-10" type="curve" smooth="yes"/>
      <point x="458" y="-10"/>
      <point x="535" y="61"/>
      <point x="535" y="206" type="curve" smooth="yes"/>
      <point x="535" y="354"/>
      <point x="457" y="413"/>
      <point x="349" y="421" type="curve"/>
      <point x="476" y="518" type="line"/>
      <point x="476" y="651"/>
      <point x="426" y="724"/>
      <point x="289" y="724" type="curve" smooth="yes"/>
      <point x="157" y="724"/>
      <point x="84" y="667"/>
      <point x="84" y="495" type="curve" smooth="yes"/>
      <point x="84" y="120" type="line"/>
      <point x="84" y="62"/>
      <point x="69" y="53"/>
      <point x="43" y="53" type="curve" smooth="yes"/>
      <point x="18" y="53" type="line"/>
      <point x="18" y="0" type="line"/>
      <point x="229" y="0" type="line"/>
      <point x="229" y="511" type="line" smooth="yes"/>
      <point x="229" y="622"/>
      <point x="251" y="663"/>
      <point x="283" y="663" type="curve" smooth="yes"/>
      <point x="321" y="663"/>
      <point x="338" y="614"/>
      <point x="336" y="499" type="curve"/>
      <point x="264" y="416" type="line"/>
      <point x="264" y="363" type="line"/>
      <point x="287" y="363" type="line" smooth="yes"/>
      <point x="349" y="363"/>
      <point x="388" y="305"/>
      <point x="388" y="185" type="curve" smooth="yes"/>
      <point x="388" y="83"/>
      <point x="371" y="48"/>
      <point x="355" y="48" type="curve" smooth="yes"/>
      <point x="331" y="48"/>
      <point x="326" y="94"/>
      <point x="326" y="162" type="curve"/>
      <point x="264" y="162"/>
      <point x="242" y="135"/>
      <point x="242" y="94" type="curve" smooth="yes"/>
      <point x="242" y="39"/>
      <point x="271" y="-10"/>
    </contour>
  </outline>
</glyph>
<glyph name="LL.middleWelsh" format="2">
  <advance width="763"/>
  <unicode hex="1EFA"/>
  <anchor x="383" y="0" name="bottom"/>
  <anchor x="383" y="714" name="top"/>
  <outline>
    <contour>
      <point x="16" y="0" type="line"/>
      <point x="741" y="0" type="line"/>
      <point x="745" y="222" type="line"/>
      <point x="703" y="222" type="line"/>
      <point x="688" y="147" type="line" smooth="yes"/>
      <point x="675" y="87"/>
      <point x="657" y="61"/>
      <point x="631" y="61" type="curve" smooth="yes"/>
      <point x="501" y="61" type="line"/>
      <point x="501" y="606" type="line" smooth="yes"/>
      <point x="501" y="648"/>
      <point x="507" y="661"/>
      <point x="533" y="661" type="curve" smooth="yes"/>
      <point x="568" y="661" type="line"/>
      <point x="568" y="714" type="line"/>
      <point x="16" y="714" type="line"/>
      <point x="16" y="661" type="line"/>
      <point x="54" y="661" type="line" smooth="yes"/>
      <point x="65" y="661"/>
      <point x="81" y="648"/>
      <point x="81" y="602" type="curve" smooth="yes"/>
      <point x="81" y="110" type="line" smooth="yes"/>
      <point x="81" y="66"/>
      <point x="65" y="53"/>
      <point x="54" y="53" type="curve" smooth="yes"/>
      <point x="16" y="53" type="line"/>
    </contour>
    <contour>
      <point x="254" y="53" type="line" smooth="yes"/>
      <point x="241" y="53"/>
      <point x="226" y="69"/>
      <point x="226" y="110" type="curve" smooth="yes"/>
      <point x="226" y="601" type="line" smooth="yes"/>
      <point x="226" y="648"/>
      <point x="237" y="661"/>
      <point x="254" y="661" type="curve" smooth="yes"/>
      <point x="322" y="661" type="line" smooth="yes"/>
      <point x="343" y="661"/>
      <point x="357" y="648"/>
      <point x="357" y="602" type="curve" smooth="yes"/>
      <point x="357" y="109" type="line" smooth="yes"/>
      <point x="357" y="66"/>
      <point x="343" y="53"/>
      <point x="328" y="53" type="curve" smooth="yes"/>
    </contour>
  </outline>
</glyph>
<glyph name="uni1FC1" format="2">
  <advance width="195"/>
  <unicode hex="1FC1"/>
  <anchor x="99" y="536" name="_top"/>
  <outline>
    <contour>
      <point x="-31" y="757" type="curve"/>
      <point x="18" y="757" type="line"/>
      <point x="18" y="780"/>
      <point x="28" y="805"/>
      <point x="44" y="805" type="curve" smooth="yes"/>
      <point x="71" y="805"/>
      <point x="103" y="759"/>
      <point x="146" y="759" type="curve" smooth="yes"/>
      <point x="195" y="759"/>
      <point x="224" y="804"/>
      <point x="228" y="874" type="curve"/>
      <point x="178" y="874" type="line"/>
      <point x="176" y="850"/>
      <point x="166" y="826"/>
      <point x="151" y="826" type="curve" smooth="yes"/>
      <point x="128" y="826"/>
      <point x="96" y="874"/>
      <point x="53" y="874" type="curve" smooth="yes"/>
      <point x="4" y="874"/>
      <point x="-27" y="827"/>
    </contour>
    <contour>
      <point x="19" y="600" type="curve" smooth="yes"/>
      <point x="43" y="600"/>
      <point x="66" y="617"/>
      <point x="66" y="662" type="curve" smooth="yes"/>
      <point x="66" y="706"/>
      <point x="43" y="723"/>
      <point x="19" y="723" type="curve" smooth="yes"/>
      <point x="-4" y="723"/>
      <point x="-28" y="706"/>
      <point x="-28" y="662" type="curve" smooth="yes"/>
      <point x="-28" y="617"/>
      <point x="-4" y="600"/>
    </contour>
    <contour>
      <point x="177" y="600" type="curve" smooth="yes"/>
      <point x="198" y="600"/>
      <point x="224" y="617"/>
      <point x="224" y="662" type="curve" smooth="yes"/>
      <point x="224" y="706"/>
      <point x="198" y="723"/>
      <point x="177" y="723" type="curve" smooth="yes"/>
      <point x="151" y="723"/>
      <point x="127" y="706"/>
      <point x="127" y="662" type="curve" smooth="yes"/>
      <point x="127" y="617"/>
      <point x="151" y="600"/>
    </contour>
  </outline>
</glyph>
<glyph name="uni1FCE" format="2">
  <advance width="288"/>
  <unicode hex="1FCE"/>
  <anchor x="140" y="536" name="_top"/>
  <anchor x="140" y="724" name="top"/>
  <outline>
    <contour>
      <point x="28" y="547" type="line"/>
      <point x="111" y="560"/>
      <point x="130" y="610"/>
      <point x="130" y="656" type="curve" smooth="yes"/>
      <point x="130" y="700"/>
      <point x="106" y="724"/>
      <point x="78" y="724" type="curve" smooth="yes"/>
      <point x="40" y="724"/>
      <point x="28" y="698"/>
      <point x="28" y="681" type="curve" smooth="yes"/>
      <point x="28" y="632"/>
      <point x="68" y="645"/>
      <point x="68" y="623" type="curve" smooth="yes"/>
      <point x="68" y="605"/>
      <point x="64" y="592"/>
      <point x="28" y="583" type="curve"/>
    </contour>
    <contour>
      <point x="137" y="557" type="line"/>
      <point x="188" y="557" type="line"/>
      <point x="210" y="599"/>
      <point x="232" y="663"/>
      <point x="251" y="704" type="curve"/>
      <point x="251" y="714" type="line"/>
      <point x="164" y="714" type="line"/>
      <point x="157" y="671"/>
      <point x="146" y="609"/>
      <point x="137" y="570" type="curve"/>
    </contour>
  </outline>
</glyph>
<glyph name="uni1FED" format="2">
  <advance width="417"/>
  <unicode hex="1FED"/>
  <anchor x="209" y="536" name="_top"/>
  <outline>
    <contour>
      <point x="205" y="625" type="curve"/>
      <point x="274" y="625" type="line"/>
      <point x="274" y="638" type="line"/>
      <point x="259" y="679"/>
      <point x="244" y="745"/>
      <point x="237" y="791" type="curve"/>
      <point x="113" y="791" type="line"/>
      <point x="113" y="780" type="line"/>
      <point x="139" y="736"/>
      <point x="174" y="668"/>
    </contour>
    <contour>
      <point x="80" y="613" type="curve" smooth="yes"/>
      <point x="103" y="613"/>
      <point x="129" y="629"/>
      <point x="129" y="674" type="curve" smooth="yes"/>
      <point x="129" y="719"/>
      <point x="103" y="735"/>
      <point x="80" y="735" type="curve" smooth="yes"/>
      <point x="53" y="735"/>
      <point x="30" y="719"/>
      <point x="30" y="674" type="curve" smooth="yes"/>
      <point x="30" y="629"/>
      <point x="53" y="613"/>
    </contour>
    <contour>
      <point x="338" y="613" type="curve" smooth="yes"/>
      <point x="363" y="613"/>
      <point x="388" y="629"/>
      <point x="388" y="674" type="curve" smooth="yes"/>
      <point x="388" y="719"/>
      <point x="363" y="735"/>
      <point x="338" y="735" type="curve" smooth="yes"/>
      <point x="311" y="735"/>
      <point x="288" y="719"/>
      <point x="288" y="674" type="curve" smooth="yes"/>
      <point x="288" y="629"/>
      <point x="311" y="613"/>
    </contour>
  </outline>
</glyph>
<glyph name="underscoredbl" format="2">
  <advance width="296"/>
  <unicode hex="2017"/>
  <outline>
    <contour>
      <point x="-5" y="-83" type="line"/>
      <point x="301" y="-83" type="line"/>
      <point x="301" y="-24" type="line"/>
      <point x="-5" y="-24" type="line"/>
    </contour>
    <contour>
      <point x="-5" y="-201" type="line"/>
      <point x="301" y="-201" type="line"/>
      <point x="301" y="-142" type="line"/>
      <point x="-5" y="-142" type="line"/>
    </contour>
  </outline>
</glyph>
<glyph name="quotesinglbase" format="2">
  <advance width="238"/>
  <unicode hex="201A"/>
  <outline>
    <contour>
      <point x="41" y="-154" type="line"/>
      <point x="141" y="-119"/>
      <point x="178" y="-43"/>
      <point x="178" y="42" type="curve" smooth="yes"/>
      <point x="178" y="109"/>
      <point x="152" y="151"/>
      <point x="103" y="151" type="curve" smooth="yes"/>
      <point x="72" y="151"/>
      <point x="48" y="126"/>
      <point x="48" y="83" type="curve" smooth="yes"/>
      <point x="48" y="4"/>
      <point x="101" y="14"/>
      <point x="101" y="-23" type="curve"/>
      <point x="101" y="-62"/>
      <point x="79" y="-82"/>
      <point x="41" y="-103" type="curve"/>
    </contour>
  </outline>
</glyph>
<glyph name="quotedblleft" format="2">
  <advance width="375"/>
  <unicode hex="201C"/>
  <outline>
    <contour>
      <point x="273" y="408" type="curve" smooth="yes"/>
      <point x="306" y="408"/>
      <point x="329" y="434"/>
      <point x="329" y="479" type="curve" smooth="yes"/>
      <point x="329" y="558"/>
      <point x="276" y="546"/>
      <point x="276" y="583" type="curve"/>
      <point x="276" y="622"/>
      <point x="297" y="641"/>
      <point x="337" y="662" type="curve"/>
      <point x="337" y="715" type="line"/>
      <point x="236" y="680"/>
      <point x="199" y="604"/>
      <point x="199" y="519" type="curve" smooth="yes"/>
      <point x="199" y="450"/>
      <point x="225" y="408"/>
    </contour>
    <contour>
      <point x="114" y="408" type="curve" smooth="yes"/>
      <point x="146" y="408"/>
      <point x="171" y="434"/>
      <point x="171" y="479" type="curve" smooth="yes"/>
      <point x="171" y="558"/>
      <point x="118" y="546"/>
      <point x="118" y="583" type="curve"/>
      <point x="118" y="622"/>
      <point x="140" y="641"/>
      <point x="178" y="662" type="curve"/>
      <point x="178" y="715" type="line"/>
      <point x="78" y="680"/>
      <point x="39" y="604"/>
      <point x="39" y="519" type="curve" smooth="yes"/>
      <point x="39" y="450"/>
      <point x="65" y="408"/>
    </contour>
  </outline>
</glyph>
<glyph name="quotedblright" format="2">
  <advance width="375"/>
  <unicode hex="201D"/>
  <outline>
    <contour>
      <point x="199" y="409" type="line"/>
      <point x="298" y="444"/>
      <point x="337" y="520"/>
      <point x="337" y="605" type="curve" smooth="yes"/>
      <point x="337" y="672"/>
      <point x="309" y="714"/>
      <point x="262" y="714" type="curve" smooth="yes"/>
      <point x="230" y="714"/>
      <point x="205" y="690"/>
      <point x="205" y="646" type="curve" smooth="yes"/>
      <point x="205" y="566"/>
      <point x="258" y="578"/>
      <point x="258" y="540" type="curve"/>
      <point x="258" y="501"/>
      <point x="237" y="481"/>
      <point x="199" y="460" type="curve"/>
    </contour>
    <contour>
      <point x="39" y="409" type="line"/>
      <point x="141" y="444"/>
      <point x="178" y="520"/>
      <point x="178" y="605" type="curve" smooth="yes"/>
      <point x="178" y="672"/>
      <point x="152" y="714"/>
      <point x="103" y="714" type="curve" smooth="yes"/>
      <point x="71" y="714"/>
      <point x="48" y="690"/>
      <point x="48" y="646" type="curve" smooth="yes"/>
      <point x="48" y="566"/>
      <point x="101" y="578"/>
      <point x="101" y="540" type="curve"/>
      <point x="101" y="501"/>
      <point x="79" y="481"/>
      <point x="39" y="460" type="curve"/>
    </contour>
  </outline>
</glyph>
<glyph name="twodotenleader" format="2">
  <advance width="437"/>
  <unicode hex="2025"/>
  <outline>
    <contour>
      <point x="320" y="275" type="curve" smooth="yes"/>
      <point x="358" y="275"/>
      <point x="391" y="296"/>
      <point x="391" y="356" type="curve" smooth="yes"/>
      <point x="391" y="417"/>
      <point x="358" y="435"/>
      <point x="320" y="435" type="curve" smooth="yes"/>
      <point x="281" y="435"/>
      <point x="251" y="417"/>
      <point x="251" y="356" type="curve" smooth="yes"/>
      <point x="251" y="296"/>
      <point x="281" y="275"/>
    </contour>
    <contour>
      <point x="116" y="275" type="curve" smooth="yes"/>
      <point x="152" y="275"/>
      <point x="186" y="296"/>
      <point x="186" y="356" type="curve" smooth="yes"/>
      <point x="186" y="414"/>
      <point x="152" y="435"/>
      <point x="116" y="435" type="curve" smooth="yes"/>
      <point x="76" y="435"/>
      <point x="45" y="414"/>
      <point x="45" y="356" type="curve" smooth="yes"/>
      <point x="45" y="296"/>
      <point x="76" y="275"/>
    </contour>
  </outline>
</glyph>
<glyph name="pertenthousand" format="2">
  <advance width="1274"/>
  <unicode hex="2031"/>
  <outline>
    <contour>
      <point x="177" y="0" type="line"/>
      <point x="239" y="0" type="line"/>
      <point x="481" y="714" type="line"/>
      <point x="418" y="714" type="line"/>
    </contour>
    <contour>
      <point x="156" y="280" type="curve" smooth="yes"/>
      <point x="251" y="280"/>
      <point x="297" y="369"/>
      <point x="297" y="503" type="curve" smooth="yes"/>
      <point x="297" y="637"/>
      <point x="252" y="724"/>
      <point x="157" y="724" type="curve" smooth="yes"/>
      <point x="59" y="724"/>
      <point x="18" y="637"/>
      <point x="18" y="503" type="curve" smooth="yes"/>
      <point x="18" y="369"/>
      <point x="59" y="280"/>
    </contour>
    <contour>
      <point x="158" y="330" type="curve" smooth="yes"/>
      <point x="125" y="330"/>
      <point x="113" y="393"/>
      <point x="113" y="503" type="curve" smooth="yes"/>
      <point x="113" y="611"/>
      <point x="125" y="673"/>
      <point x="157" y="673" type="curve" smooth="yes"/>
      <point x="191" y="673"/>
      <point x="202" y="611"/>
      <point x="202" y="503" type="curve" smooth="yes"/>
      <point x="202" y="393"/>
      <point x="191" y="330"/>
    </contour>
    <contour>
      <point x="503" y="-10" type="curve" smooth="yes"/>
      <point x="598" y="-10"/>
      <point x="641" y="79"/>
      <point x="641" y="213" type="curve" smooth="yes"/>
      <point x="641" y="347"/>
      <point x="597" y="434"/>
      <point x="504" y="434" type="curve" smooth="yes"/>
      <point x="405" y="434"/>
      <point x="364" y="347"/>
      <point x="364" y="213" type="curve" smooth="yes"/>
      <point x="364" y="79"/>
      <point x="405" y="-10"/>
    </contour>
    <contour>
      <point x="503" y="40" type="curve" smooth="yes"/>
      <point x="469" y="40"/>
      <point x="457" y="103"/>
      <point x="457" y="213" type="curve" smooth="yes"/>
      <point x="457" y="321"/>
      <point x="471" y="383"/>
      <point x="504" y="383" type="curve" smooth="yes"/>
      <point x="535" y="383"/>
      <point x="547" y="321"/>
      <point x="547" y="213" type="curve" smooth="yes"/>
      <point x="547" y="103"/>
      <point x="535" y="40"/>
    </contour>
    <contour>
      <point x="810" y="-10" type="curve" smooth="yes"/>
      <point x="903" y="-10"/>
      <point x="949" y="79"/>
      <point x="949" y="213" type="curve" smooth="yes"/>
      <point x="949" y="347"/>
      <point x="902" y="434"/>
      <point x="809" y="434" type="curve" smooth="yes"/>
      <point x="711" y="434"/>
      <point x="670" y="347"/>
      <point x="670" y="213" type="curve" smooth="yes"/>
      <point x="670" y="79"/>
      <point x="711" y="-10"/>
    </contour>
    <contour>
      <point x="810" y="40" type="curve" smooth="yes"/>
      <point x="777" y="40"/>
      <point x="765" y="103"/>
      <point x="765" y="213" type="curve" smooth="yes"/>
      <point x="765" y="321"/>
      <point x="777" y="383"/>
      <point x="809" y="383" type="curve" smooth="yes"/>
      <point x="843" y="383"/>
      <point x="853" y="321"/>
      <point x="853" y="213" type="curve" smooth="yes"/>
      <point x="853" y="103"/>
      <point x="843" y="40"/>
    </contour>
    <contour>
      <point x="1117" y="-10" type="curve" smooth="yes"/>
      <point x="1212" y="-10"/>
      <point x="1255" y="79"/>
      <point x="1255" y="213" type="curve" smooth="yes"/>
      <point x="1255" y="347"/>
      <point x="1211" y="434"/>
      <point x="1118" y="434" type="curve" smooth="yes"/>
      <point x="1017" y="434"/>
      <point x="978" y="347"/>
      <point x="978" y="213" type="curve" smooth="yes"/>
      <point x="978" y="79"/>
      <point x="1017" y="-10"/>
    </contour>
    <contour>
      <point x="1117" y="40" type="curve" smooth="yes"/>
      <point x="1085" y="40"/>
      <point x="1071" y="103"/>
      <point x="1071" y="213" type="curve" smooth="yes"/>
      <point x="1071" y="321"/>
      <point x="1085" y="383"/>
      <point x="1118" y="383" type="curve" smooth="yes"/>
      <point x="1149" y="383"/>
      <point x="1161" y="321"/>
      <point x="1161" y="213" type="curve" smooth="yes"/>
      <point x="1161" y="103"/>
      <point x="1149" y="40"/>
    </contour>
  </outline>
</glyph>
<glyph name="second" format="2">
  <advance width="407"/>
  <unicode hex="2033"/>
  <outline>
    <contour>
      <point x="191" y="479" type="line"/>
      <point x="270" y="479" type="line"/>
      <point x="387" y="714" type="line"/>
      <point x="233" y="714" type="line"/>
    </contour>
    <contour>
      <point x="20" y="479" type="line"/>
      <point x="99" y="479" type="line"/>
      <point x="216" y="714" type="line"/>
      <point x="62" y="714" type="line"/>
    </contour>
  </outline>
</glyph>
<glyph name="reversedparagraph" format="2">
  <advance width="457"/>
  <unicode hex="204B"/>
  <outline>
    <contour>
      <point x="27" y="-111" type="line"/>
      <point x="154" y="-111" type="line"/>
      <point x="154" y="698" type="line"/>
      <point x="210" y="698" type="line"/>
      <point x="210" y="-111" type="line"/>
      <point x="335" y="-111" type="line"/>
      <point x="335" y="-58" type="line"/>
      <point x="327" y="-58" type="line" smooth="yes"/>
      <point x="294" y="-58"/>
      <point x="268" y="-51"/>
      <point x="268" y="12" type="curve" smooth="yes"/>
      <point x="268" y="386" type="line"/>
      <point x="318" y="386" type="line" smooth="yes"/>
      <point x="403" y="386"/>
      <point x="429" y="478"/>
      <point x="429" y="582" type="curve" smooth="yes"/>
      <point x="429" y="689"/>
      <point x="399" y="760"/>
      <point x="317" y="760" type="curve" smooth="yes"/>
      <point x="27" y="760" type="line"/>
      <point x="27" y="707" type="line"/>
      <point x="37" y="707" type="line" smooth="yes"/>
      <point x="70" y="707"/>
      <point x="96" y="699"/>
      <point x="96" y="635" type="curve" smooth="yes"/>
      <point x="96" y="12" type="line" smooth="yes"/>
      <point x="96" y="-51"/>
      <point x="70" y="-58"/>
      <point x="37" y="-58" type="curve" smooth="yes"/>
      <point x="27" y="-58" type="line"/>
    </contour>
  </outline>
</glyph>
<glyph name="commercialMinusSign" format="2">
  <advance width="329"/>
  <unicode hex="2052"/>
  <outline>
    <contour>
      <point x="53" y="0" type="line"/>
      <point x="120" y="0" type="line"/>
      <point x="277" y="714" type="line"/>
      <point x="211" y="714" type="line"/>
    </contour>
    <contour>
      <point x="258" y="-8" type="curve" smooth="yes"/>
      <point x="297" y="-8"/>
      <point x="332" y="11"/>
      <point x="332" y="71" type="curve" smooth="yes"/>
      <point x="332" y="132"/>
      <point x="297" y="151"/>
      <point x="258" y="151" type="curve" smooth="yes"/>
      <point x="217" y="151"/>
      <point x="184" y="132"/>
      <point x="184" y="71" type="curve" smooth="yes"/>
      <point x="184" y="11"/>
      <point x="217" y="-8"/>
    </contour>
    <contour>
      <point x="72" y="561" type="curve" smooth="yes"/>
      <point x="111" y="561"/>
      <point x="144" y="580"/>
      <point x="144" y="640" type="curve" smooth="yes"/>
      <point x="144" y="699"/>
      <point x="111" y="719"/>
      <point x="72" y="719" type="curve" smooth="yes"/>
      <point x="31" y="719"/>
      <point x="-2" y="699"/>
      <point x="-2" y="640" type="curve" smooth="yes"/>
      <point x="-2" y="580"/>
      <point x="31" y="561"/>
    </contour>
  </outline>
</glyph>
<glyph name="uni205E" format="2">
  <advance width="230"/>
  <unicode hex="205E"/>
  <outline>
    <contour>
      <point x="115" y="574" type="curve" smooth="yes"/>
      <point x="147" y="574"/>
      <point x="178" y="593"/>
      <point x="178" y="650" type="curve" smooth="yes"/>
      <point x="178" y="707"/>
      <point x="147" y="725"/>
      <point x="115" y="725" type="curve" smooth="yes"/>
      <point x="79" y="725"/>
      <point x="51" y="707"/>
      <point x="51" y="650" type="curve" smooth="yes"/>
      <point x="51" y="593"/>
      <point x="79" y="574"/>
    </contour>
    <contour>
      <point x="115" y="-9" type="curve" smooth="yes"/>
      <point x="147" y="-9"/>
      <point x="178" y="10"/>
      <point x="178" y="67" type="curve" smooth="yes"/>
      <point x="178" y="122"/>
      <point x="147" y="141"/>
      <point x="115" y="141" type="curve" smooth="yes"/>
      <point x="79" y="141"/>
      <point x="51" y="122"/>
      <point x="51" y="67" type="curve" smooth="yes"/>
      <point x="51" y="10"/>
      <point x="79" y="-9"/>
    </contour>
    <contour>
      <point x="115" y="186" type="curve" smooth="yes"/>
      <point x="147" y="186"/>
      <point x="178" y="205"/>
      <point x="178" y="261" type="curve" smooth="yes"/>
      <point x="178" y="318"/>
      <point x="147" y="336"/>
      <point x="115" y="336" type="curve" smooth="yes"/>
      <point x="79" y="336"/>
      <point x="51" y="318"/>
      <point x="51" y="261" type="curve" smooth="yes"/>
      <point x="51" y="205"/>
      <point x="79" y="186"/>
    </contour>
    <contour>
      <point x="115" y="381" type="curve" smooth="yes"/>
      <point x="147" y="381"/>
      <point x="178" y="399"/>
      <point x="178" y="454" type="curve" smooth="yes"/>
      <point x="178" y="513"/>
      <point x="147" y="529"/>
      <point x="115" y="529" type="curve" smooth="yes"/>
      <point x="79" y="529"/>
      <point x="51" y="513"/>
      <point x="51" y="454" type="curve" smooth="yes"/>
      <point x="51" y="399"/>
      <point x="79" y="381"/>
    </contour>
  </outline>
</glyph>
<glyph name="imod" format="2">
  <advance width="176"/>
  <unicode hex="2071"/>
  <anchor x="89" y="287" name="bottom"/>
  <anchor x="85" y="747" name="top"/>
  <anchor x="165" y="747" name="topright"/>
  <outline>
    <contour>
      <point x="6" y="287" type="line"/>
      <point x="167" y="287" type="line"/>
      <point x="167" y="319" type="line"/>
      <point x="162" y="319" type="line" smooth="yes"/>
      <point x="144" y="319"/>
      <point x="132" y="327"/>
      <point x="132" y="362" type="curve" smooth="yes"/>
      <point x="132" y="609" type="line"/>
      <point x="2" y="609" type="line"/>
      <point x="2" y="577" type="line"/>
      <point x="10" y="577" type="line" smooth="yes"/>
      <point x="27" y="577"/>
      <point x="40" y="569"/>
      <point x="40" y="536" type="curve" smooth="yes"/>
      <point x="40" y="362" type="line" smooth="yes"/>
      <point x="40" y="327"/>
      <point x="28" y="319"/>
      <point x="10" y="319" type="curve" smooth="yes"/>
      <point x="6" y="319" type="line"/>
    </contour>
    <contour>
      <point x="84" y="664" type="curve" smooth="yes"/>
      <point x="111" y="664"/>
      <point x="134" y="677"/>
      <point x="134" y="706" type="curve" smooth="yes"/>
      <point x="134" y="735"/>
      <point x="111" y="747"/>
      <point x="84" y="747" type="curve" smooth="yes"/>
      <point x="56" y="747"/>
      <point x="34" y="735"/>
      <point x="34" y="706" type="curve" smooth="yes"/>
      <point x="34" y="677"/>
      <point x="56" y="664"/>
    </contour>
  </outline>
</glyph>
<glyph name="foursuperior" format="2">
  <advance width="288"/>
  <unicode hex="2074"/>
  <outline>
    <contour>
      <point x="78" y="387" type="line"/>
      <point x="277" y="387" type="line"/>
      <point x="277" y="434" type="line"/>
      <point x="258" y="434" type="line"/>
      <point x="242" y="434"/>
      <point x="227" y="438"/>
      <point x="227" y="468" type="curve"/>
      <point x="227" y="511" type="line"/>
      <point x="278" y="511" type="line"/>
      <point x="278" y="566" type="line"/>
      <point x="227" y="566" type="line"/>
      <point x="227" y="819" type="line"/>
      <point x="138" y="819" type="line"/>
      <point x="2" y="553" type="line"/>
      <point x="2" y="511" type="line"/>
      <point x="137" y="511" type="line"/>
      <point x="137" y="468" type="line"/>
      <point x="137" y="438"/>
      <point x="122" y="434"/>
      <point x="106" y="434" type="curve"/>
      <point x="78" y="434" type="line"/>
    </contour>
    <contour>
      <point x="55" y="566" type="line"/>
      <point x="122" y="712" type="line"/>
      <point x="129" y="720"/>
      <point x="133" y="737"/>
      <point x="139" y="753" type="curve"/>
      <point x="136" y="728"/>
      <point x="136" y="703"/>
      <point x="136" y="682" type="curve"/>
      <point x="136" y="566" type="line"/>
    </contour>
  </outline>
</glyph>
<glyph name="eightsuperior" format="2">
  <advance width="288"/>
  <unicode hex="2078"/>
  <outline>
    <contour>
      <point x="143" y="380" type="curve" smooth="yes"/>
      <point x="238" y="380"/>
      <point x="283" y="431"/>
      <point x="283" y="505" type="curve" smooth="yes"/>
      <point x="283" y="562"/>
      <point x="255" y="598"/>
      <point x="201" y="623" type="curve"/>
      <point x="237" y="638"/>
      <point x="271" y="670"/>
      <point x="271" y="725" type="curve" smooth="yes"/>
      <point x="271" y="786"/>
      <point x="226" y="824"/>
      <point x="152" y="824" type="curve" smooth="yes"/>
      <point x="57" y="824"/>
      <point x="23" y="770"/>
      <point x="23" y="709" type="curve" smooth="yes"/>
      <point x="23" y="655"/>
      <point x="54" y="625"/>
      <point x="89" y="602" type="curve"/>
      <point x="38" y="580"/>
      <point x="12" y="553"/>
      <point x="12" y="497" type="curve" smooth="yes"/>
      <point x="12" y="432"/>
      <point x="53" y="380"/>
    </contour>
    <contour>
      <point x="142" y="427" type="curve" smooth="yes"/>
      <point x="113" y="427"/>
      <point x="95" y="457"/>
      <point x="95" y="496" type="curve" smooth="yes"/>
      <point x="95" y="535"/>
      <point x="111" y="557"/>
      <point x="130" y="578" type="curve"/>
      <point x="169" y="549"/>
      <point x="191" y="527"/>
      <point x="191" y="489" type="curve" smooth="yes"/>
      <point x="191" y="451"/>
      <point x="172" y="427"/>
    </contour>
    <contour>
      <point x="158" y="647" type="curve"/>
      <point x="133" y="667"/>
      <point x="116" y="688"/>
      <point x="114" y="726" type="curve"/>
      <point x="113" y="762"/>
      <point x="128" y="781"/>
      <point x="149" y="781" type="curve" smooth="yes"/>
      <point x="173" y="781"/>
      <point x="185" y="756"/>
      <point x="185" y="723" type="curve" smooth="yes"/>
      <point x="185" y="689"/>
      <point x="172" y="662"/>
    </contour>
  </outline>
</glyph>
<glyph name="Euro" format="2">
  <advance width="397"/>
  <unicode hex="20AC"/>
  <outline>
    <contour>
      <point x="246" y="-10" type="curve" smooth="yes"/>
      <point x="356" y="-10"/>
      <point x="392" y="49"/>
      <point x="392" y="98" type="curve" smooth="yes"/>
      <point x="392" y="115"/>
      <point x="386" y="133"/>
      <point x="373" y="145" type="curve"/>
      <point x="356" y="99"/>
      <point x="315" y="64"/>
      <point x="271" y="64" type="curve" smooth="yes"/>
      <point x="208" y="64"/>
      <point x="181" y="127"/>
      <point x="176" y="254" type="curve"/>
      <point x="273" y="254" type="line"/>
      <point x="273" y="314" type="line"/>
      <point x="172" y="314" type="line"/>
      <point x="172" y="378" type="line"/>
      <point x="301" y="378" type="line"/>
      <point x="301" y="440" type="line"/>
      <point x="175" y="440" type="line"/>
      <point x="182" y="607"/>
      <point x="204" y="661"/>
      <point x="240" y="661" type="curve" smooth="yes"/>
      <point x="276" y="661"/>
      <point x="285" y="608"/>
      <point x="285" y="539" type="curve"/>
      <point x="356" y="539"/>
      <point x="394" y="558"/>
      <point x="394" y="609" type="curve" smooth="yes"/>
      <point x="394" y="671"/>
      <point x="343" y="722"/>
      <point x="247" y="722" type="curve" smooth="yes"/>
      <point x="133" y="722"/>
      <point x="60" y="644"/>
      <point x="43" y="440" type="curve"/>
      <point x="9" y="440" type="line"/>
      <point x="9" y="378" type="line"/>
      <point x="38" y="378" type="line"/>
      <point x="38" y="314" type="line"/>
      <point x="9" y="314" type="line"/>
      <point x="9" y="254" type="line"/>
      <point x="44" y="254" type="line"/>
      <point x="63" y="56"/>
      <point x="140" y="-10"/>
    </contour>
  </outline>
</glyph>
<glyph name="uni20AD" format="2">
  <advance width="566"/>
  <unicode hex="20AD"/>
  <anchor x="283" y="714" name="top"/>
  <anchor x="546" y="714" name="topright"/>
  <anchor x="283" y="0" name="bottom"/>
  <outline>
    <contour>
      <point x="5" y="342" type="line"/>
      <point x="508" y="342" type="line"/>
      <point x="508" y="402" type="line"/>
      <point x="5" y="402" type="line"/>
    </contour>
    <component base="K"/>
  </outline>
</glyph>
<glyph name="uni20AE" format="2">
  <advance width="494"/>
  <unicode hex="20AE"/>
  <anchor x="248" y="714" name="top"/>
  <anchor x="248" y="357" name="center"/>
  <anchor x="474" y="714" name="topright"/>
  <anchor x="248" y="0" name="bottom"/>
  <outline>
    <contour>
      <point x="90" y="270" type="line"/>
      <point x="421" y="421" type="line"/>
      <point x="391" y="484" type="line"/>
      <point x="62" y="334" type="line"/>
    </contour>
    <contour>
      <point x="90" y="114" type="line"/>
      <point x="421" y="265" type="line"/>
      <point x="391" y="328" type="line"/>
      <point x="62" y="178" type="line"/>
    </contour>
    <component base="T"/>
  </outline>
</glyph>
<glyph name="uni20B1" format="2">
  <advance width="480"/>
  <unicode hex="20B1"/>
  <outline>
    <contour>
      <point x="16" y="0" type="line"/>
      <point x="309" y="0" type="line"/>
      <point x="309" y="53" type="line"/>
      <point x="261" y="53" type="line" smooth="yes"/>
      <point x="242" y="53"/>
      <point x="226" y="59"/>
      <point x="226" y="113" type="curve" smooth="yes"/>
      <point x="226" y="272" type="line"/>
      <point x="238" y="272" type="line" smooth="yes"/>
      <point x="400" y="272"/>
      <point x="463" y="374"/>
      <point x="463" y="502" type="curve" smooth="yes"/>
      <point x="463" y="641"/>
      <point x="395" y="714"/>
      <point x="255" y="714" type="curve" smooth="yes"/>
      <point x="16" y="714" type="line"/>
      <point x="16" y="661" type="line"/>
      <point x="48" y="661" type="line" smooth="yes"/>
      <point x="65" y="661"/>
      <point x="81" y="654"/>
      <point x="81" y="600" type="curve" smooth="yes"/>
      <point x="81" y="118" type="line" smooth="yes"/>
      <point x="81" y="60"/>
      <point x="64" y="53"/>
      <point x="44" y="53" type="curve" smooth="yes"/>
      <point x="16" y="53" type="line"/>
    </contour>
    <contour>
      <point x="19" y="405" type="line"/>
      <point x="509" y="405" type="line"/>
      <point x="509" y="465" type="line"/>
      <point x="19" y="465" type="line"/>
    </contour>
    <contour>
      <point x="227" y="330" type="line"/>
      <point x="227" y="655" type="line"/>
      <point x="243" y="655" type="line" smooth="yes"/>
      <point x="286" y="655"/>
      <point x="312" y="606"/>
      <point x="312" y="498" type="curve" smooth="yes"/>
      <point x="312" y="378"/>
      <point x="283" y="330"/>
      <point x="233" y="330" type="curve" smooth="yes"/>
    </contour>
    <contour>
      <point x="19" y="526" type="line"/>
      <point x="509" y="526" type="line"/>
      <point x="509" y="586" type="line"/>
      <point x="19" y="586" type="line"/>
    </contour>
  </outline>
</glyph>
<glyph name="NDoubleStruck" format="2">
  <advance width="778"/>
  <unicode hex="2115"/>
  <outline>
    <contour>
      <point x="681" y="0" type="line"/>
      <point x="681" y="714" type="line"/>
      <point x="628" y="714" type="line"/>
      <point x="628" y="224" type="line"/>
      <point x="173" y="714" type="line"/>
      <point x="97" y="714" type="line"/>
      <point x="97" y="0" type="line"/>
      <point x="150" y="0" type="line"/>
      <point x="150" y="491" type="line"/>
      <point x="604" y="0" type="line"/>
    </contour>
    <contour>
      <point x="628" y="53" type="line"/>
      <point x="150" y="562" type="line"/>
      <point x="150" y="661" type="line"/>
      <point x="628" y="151" type="line"/>
    </contour>
  </outline>
</glyph>
<glyph name="betsymbol" format="2">
  <advance width="420"/>
  <unicode hex="2136"/>
  <outline>
    <contour>
      <point x="8" y="0" type="line"/>
      <point x="416" y="0" type="line"/>
      <point x="416" y="117" type="line"/>
      <point x="355" y="117" type="line"/>
      <point x="355" y="293" type="line"/>
      <point x="355" y="503"/>
      <point x="297" y="585"/>
      <point x="134" y="585" type="curve"/>
      <point x="25" y="585" type="line"/>
      <point x="25" y="471" type="line"/>
      <point x="136" y="471" type="line"/>
      <point x="183" y="471"/>
      <point x="217" y="416"/>
      <point x="217" y="312" type="curve"/>
      <point x="217" y="117" type="line"/>
      <point x="8" y="117" type="line"/>
    </contour>
  </outline>
</glyph>
<glyph name="uni2C64" format="2">
  <advance width="545"/>
  <unicode hex="2C64"/>
  <anchor x="272" y="-232" name="bottom"/>
  <anchor x="272" y="714" name="top"/>
  <outline>
    <contour>
      <point x="217" y="-232" type="curve" smooth="yes"/>
      <point x="271" y="-232"/>
      <point x="303" y="-225"/>
      <point x="326" y="-218" type="curve"/>
      <point x="326" y="-164" type="line"/>
      <point x="312" y="-169"/>
      <point x="298" y="-172"/>
      <point x="280" y="-172" type="curve" smooth="yes"/>
      <point x="243" y="-172"/>
      <point x="226" y="-146"/>
      <point x="226" y="-85" type="curve" smooth="yes"/>
      <point x="226" y="309" type="line"/>
      <point x="264" y="309" type="line"/>
      <point x="341" y="90" type="line" smooth="yes"/>
      <point x="365" y="15"/>
      <point x="427" y="0"/>
      <point x="511" y="0" type="curve" smooth="yes"/>
      <point x="545" y="0" type="line"/>
      <point x="545" y="53" type="line"/>
      <point x="539" y="53" type="line" smooth="yes"/>
      <point x="515" y="53"/>
      <point x="499" y="78"/>
      <point x="477" y="136" type="curve" smooth="yes"/>
      <point x="391" y="339" type="line"/>
      <point x="448" y="360"/>
      <point x="495" y="412"/>
      <point x="495" y="525" type="curve" smooth="yes"/>
      <point x="495" y="646"/>
      <point x="438" y="714"/>
      <point x="277" y="714" type="curve" smooth="yes"/>
      <point x="14" y="714" type="line"/>
      <point x="14" y="661" type="line"/>
      <point x="42" y="661" type="line" smooth="yes"/>
      <point x="57" y="661"/>
      <point x="81" y="654"/>
      <point x="81" y="600" type="curve" smooth="yes"/>
      <point x="81" y="-66" type="line" smooth="yes"/>
      <point x="81" y="-175"/>
      <point x="115" y="-232"/>
    </contour>
    <contour>
      <point x="226" y="367" type="line"/>
      <point x="226" y="655" type="line"/>
      <point x="258" y="655" type="line" smooth="yes"/>
      <point x="312" y="655"/>
      <point x="338" y="612"/>
      <point x="338" y="516" type="curve" smooth="yes"/>
      <point x="338" y="419"/>
      <point x="316" y="367"/>
      <point x="260" y="367" type="curve" smooth="yes"/>
    </contour>
  </outline>
</glyph>
<glyph name="uni2C65" format="2">
  <advance width="454"/>
  <unicode hex="2C65"/>
  <anchor x="228" y="-188" name="bottom"/>
  <anchor x="228" y="714" name="top"/>
  <anchor x="434" y="536" name="topright"/>
  <outline>
    <contour>
      <point x="83" y="-188" type="line"/>
      <point x="147" y="-188" type="line"/>
      <point x="333" y="714" type="line"/>
      <point x="273" y="714" type="line"/>
    </contour>
    <component base="a"/>
  </outline>
</glyph>
<glyph name="uni2C6A" format="2">
  <advance width="501"/>
  <unicode hex="2C6A"/>
  <anchor x="250" y="0" name="bottom"/>
  <anchor x="250" y="760" name="top"/>
  <outline>
    <contour>
      <point x="449" y="-203" type="line"/>
      <point x="493" y="-203" type="line"/>
      <point x="493" y="53" type="line"/>
      <point x="465" y="53" type="line" smooth="yes"/>
      <point x="451" y="53"/>
      <point x="443" y="61"/>
      <point x="415" y="121" type="curve" smooth="yes"/>
      <point x="324" y="337" type="line"/>
      <point x="361" y="399" type="line" smooth="yes"/>
      <point x="395" y="460"/>
      <point x="428" y="487"/>
      <point x="460" y="487" type="curve"/>
      <point x="460" y="536" type="line"/>
      <point x="262" y="536" type="line"/>
      <point x="262" y="487" type="line"/>
      <point x="282" y="487"/>
      <point x="301" y="473"/>
      <point x="301" y="456" type="curve" smooth="yes"/>
      <point x="301" y="454"/>
      <point x="311" y="440"/>
      <point x="300" y="428" type="curve"/>
      <point x="206" y="269" type="line"/>
      <point x="208" y="301"/>
      <point x="211" y="343"/>
      <point x="211" y="377" type="curve" smooth="yes"/>
      <point x="211" y="760" type="line"/>
      <point x="11" y="760" type="line"/>
      <point x="11" y="707" type="line"/>
      <point x="23" y="707" type="line" smooth="yes"/>
      <point x="34" y="707"/>
      <point x="67" y="700"/>
      <point x="67" y="646" type="curve" smooth="yes"/>
      <point x="67" y="118" type="line" smooth="yes"/>
      <point x="67" y="60"/>
      <point x="35" y="53"/>
      <point x="23" y="53" type="curve" smooth="yes"/>
      <point x="11" y="53" type="line"/>
      <point x="11" y="0" type="line"/>
      <point x="268" y="0" type="line"/>
      <point x="268" y="53" type="line"/>
      <point x="254" y="53" type="line" smooth="yes"/>
      <point x="242" y="53"/>
      <point x="211" y="61"/>
      <point x="211" y="118" type="curve" smooth="yes"/>
      <point x="211" y="196" type="line"/>
      <point x="229" y="242" type="line"/>
      <point x="282" y="101" type="line" smooth="yes"/>
      <point x="298" y="54"/>
      <point x="321" y="20"/>
      <point x="351" y="8" type="curve" smooth="yes"/>
      <point x="412" y="-10"/>
      <point x="434" y="-24"/>
      <point x="444" y="-152" type="curve" smooth="yes"/>
    </contour>
  </outline>
</glyph>
<glyph name="uni2C6C" format="2">
  <advance width="390"/>
  <unicode hex="2C6C"/>
  <anchor x="196" y="0" name="bottom"/>
  <anchor x="196" y="536" name="top"/>
  <outline>
    <contour>
      <point x="329" y="-200" type="line"/>
      <point x="391" y="-200" type="line"/>
      <point x="391" y="63" type="line"/>
      <point x="157" y="63" type="line"/>
      <point x="373" y="494" type="line"/>
      <point x="373" y="536" type="line"/>
      <point x="35" y="536" type="line"/>
      <point x="25" y="376" type="line"/>
      <point x="78" y="376" type="line"/>
      <point x="85" y="403" type="line" smooth="yes"/>
      <point x="97" y="458"/>
      <point x="110" y="473"/>
      <point x="142" y="473" type="curve" smooth="yes"/>
      <point x="216" y="473" type="line"/>
      <point x="0" y="40" type="line"/>
      <point x="0" y="0" type="line"/>
      <point x="238" y="0" type="line" smooth="yes"/>
      <point x="292" y="0"/>
      <point x="315" y="-20"/>
      <point x="324" y="-136" type="curve" smooth="yes"/>
    </contour>
  </outline>
</glyph>
<glyph name="rightangledottedsubstitutionmarker" format="2">
  <advance width="247"/>
  <unicode hex="2E01"/>
  <outline>
    <contour>
      <point x="38" y="246" type="line"/>
      <point x="89" y="246" type="line"/>
      <point x="89" y="644" type="line"/>
      <point x="211" y="644" type="line"/>
      <point x="211" y="714" type="line"/>
      <point x="38" y="714" type="line"/>
    </contour>
    <contour>
      <point x="174" y="459" type="curve" smooth="yes"/>
      <point x="196" y="459"/>
      <point x="212" y="475"/>
      <point x="212" y="515" type="curve" smooth="yes"/>
      <point x="212" y="552"/>
      <point x="199" y="571"/>
      <point x="174" y="571" type="curve" smooth="yes"/>
      <point x="149" y="571"/>
      <point x="137" y="551"/>
      <point x="137" y="515" type="curve" smooth="yes"/>
      <point x="137" y="475"/>
      <point x="154" y="459"/>
    </contour>
  </outline>
</glyph>
<glyph name="rightdottedsubstitutionbracket" format="2">
  <advance width="247"/>
  <unicode hex="2E05"/>
  <outline>
    <contour>
      <point x="158" y="246" type="line"/>
      <point x="211" y="246" type="line"/>
      <point x="211" y="597" type="line"/>
      <point x="62" y="724" type="line"/>
      <point x="37" y="662" type="line"/>
      <point x="158" y="558" type="line"/>
    </contour>
    <contour>
      <point x="73" y="419" type="curve" smooth="yes"/>
      <point x="92" y="419"/>
      <point x="109" y="435"/>
      <point x="109" y="475" type="curve" smooth="yes"/>
      <point x="109" y="512"/>
      <point x="97" y="531"/>
      <point x="73" y="531" type="curve" smooth="yes"/>
      <point x="48" y="531"/>
      <point x="37" y="511"/>
      <point x="37" y="475" type="curve" smooth="yes"/>
      <point x="37" y="435"/>
      <point x="52" y="419"/>
    </contour>
  </outline>
</glyph>
<glyph name="raiseddottedinterpolationmarker" format="2">
  <advance width="369"/>
  <unicode hex="2E07"/>
  <outline>
    <contour>
      <point x="158" y="246" type="line"/>
      <point x="211" y="246" type="line"/>
      <point x="211" y="644" type="line"/>
      <point x="332" y="644" type="line"/>
      <point x="332" y="714" type="line"/>
      <point x="38" y="714" type="line"/>
      <point x="38" y="644" type="line"/>
      <point x="158" y="644" type="line"/>
    </contour>
    <contour>
      <point x="297" y="459" type="curve" smooth="yes"/>
      <point x="316" y="459"/>
      <point x="333" y="475"/>
      <point x="333" y="515" type="curve" smooth="yes"/>
      <point x="333" y="552"/>
      <point x="320" y="571"/>
      <point x="297" y="571" type="curve" smooth="yes"/>
      <point x="272" y="571"/>
      <point x="261" y="551"/>
      <point x="261" y="515" type="curve" smooth="yes"/>
      <point x="261" y="475"/>
      <point x="276" y="459"/>
    </contour>
  </outline>
</glyph>
<glyph name="raisedsquare" format="2">
  <advance width="369"/>
  <unicode hex="2E0B"/>
  <outline>
    <contour>
      <point x="38" y="305" type="line"/>
      <point x="332" y="305" type="line"/>
      <point x="332" y="714" type="line"/>
      <point x="38" y="714" type="line"/>
    </contour>
    <contour>
      <point x="89" y="375" type="line"/>
      <point x="89" y="644" type="line"/>
      <point x="282" y="644" type="line"/>
      <point x="282" y="375" type="line"/>
    </contour>
  </outline>
</glyph>
<glyph name="rightraisedomissionbracket" format="2">
  <advance width="369"/>
  <unicode hex="2E0D"/>
  <outline>
    <contour>
      <point x="38" y="346" type="line"/>
      <point x="76" y="295" type="line"/>
      <point x="332" y="672" type="line"/>
      <point x="295" y="724" type="line"/>
    </contour>
  </outline>
</glyph>
<glyph name="dottedrightpointingangle" format="2">
  <advance width="414"/>
  <unicode hex="2E16"/>
  <outline>
    <contour>
      <point x="38" y="139" type="line"/>
      <point x="376" y="360" type="line"/>
      <point x="376" y="410" type="line"/>
      <point x="38" y="631" type="line"/>
      <point x="38" y="553" type="line"/>
      <point x="302" y="385" type="line"/>
      <point x="38" y="217" type="line"/>
    </contour>
    <contour>
      <point x="191" y="42" type="curve" smooth="yes"/>
      <point x="215" y="42"/>
      <point x="234" y="69"/>
      <point x="234" y="102" type="curve" smooth="yes"/>
      <point x="234" y="135"/>
      <point x="215" y="162"/>
      <point x="191" y="162" type="curve" smooth="yes"/>
      <point x="168" y="162"/>
      <point x="147" y="135"/>
      <point x="147" y="102" type="curve" smooth="yes"/>
      <point x="147" y="69"/>
      <point x="168" y="42"/>
    </contour>
    <contour>
      <point x="191" y="608" type="curve" smooth="yes"/>
      <point x="215" y="608"/>
      <point x="234" y="635"/>
      <point x="234" y="668" type="curve" smooth="yes"/>
      <point x="234" y="701"/>
      <point x="215" y="728"/>
      <point x="191" y="728" type="curve" smooth="yes"/>
      <point x="168" y="728"/>
      <point x="147" y="701"/>
      <point x="147" y="668" type="curve" smooth="yes"/>
      <point x="147" y="635"/>
      <point x="168" y="608"/>
    </contour>
  </outline>
</glyph>
<glyph name="tilderingabove" format="2">
  <advance width="414"/>
  <unicode hex="2E1B"/>
  <outline>
    <contour>
      <point x="37" y="272" type="line"/>
      <point x="59" y="305"/>
      <point x="92" y="331"/>
      <point x="119" y="331" type="curve" smooth="yes"/>
      <point x="140" y="331"/>
      <point x="159" y="325"/>
      <point x="194" y="304" type="curve" smooth="yes"/>
      <point x="237" y="278"/>
      <point x="263" y="272"/>
      <point x="289" y="272" type="curve" smooth="yes"/>
      <point x="324" y="272"/>
      <point x="352" y="291"/>
      <point x="376" y="326" type="curve"/>
      <point x="376" y="418" type="line"/>
      <point x="352" y="385"/>
      <point x="322" y="359"/>
      <point x="293" y="359" type="curve" smooth="yes"/>
      <point x="273" y="359"/>
      <point x="253" y="365"/>
      <point x="217" y="386" type="curve" smooth="yes"/>
      <point x="173" y="412"/>
      <point x="151" y="418"/>
      <point x="123" y="418" type="curve" smooth="yes"/>
      <point x="87" y="418"/>
      <point x="59" y="400"/>
      <point x="37" y="365" type="curve"/>
    </contour>
    <contour>
      <point x="208" y="466" type="curve" smooth="yes"/>
      <point x="259" y="466"/>
      <point x="300" y="505"/>
      <point x="300" y="574" type="curve" smooth="yes"/>
      <point x="300" y="645"/>
      <point x="258" y="684"/>
      <point x="208" y="684" type="curve" smooth="yes"/>
      <point x="158" y="684"/>
      <point x="115" y="645"/>
      <point x="115" y="575" type="curve" smooth="yes"/>
      <point x="115" y="505"/>
      <point x="158" y="466"/>
    </contour>
    <contour>
      <point x="208" y="522" type="curve" smooth="yes"/>
      <point x="187" y="522"/>
      <point x="164" y="537"/>
      <point x="164" y="575" type="curve" smooth="yes"/>
      <point x="164" y="614"/>
      <point x="186" y="628"/>
      <point x="208" y="628" type="curve" smooth="yes"/>
      <point x="232" y="628"/>
      <point x="252" y="614"/>
      <point x="252" y="575" type="curve" smooth="yes"/>
      <point x="252" y="537"/>
      <point x="231" y="522"/>
    </contour>
  </outline>
</glyph>
<glyph name="rightlowparaphrasebracket" format="2">
  <advance width="360"/>
  <unicode hex="2E1D"/>
  <outline>
    <contour>
      <point x="78" y="-82" type="line"/>
      <point x="318" y="251" type="line"/>
      <point x="284" y="299" type="line"/>
      <point x="42" y="-34" type="line"/>
    </contour>
  </outline>
</glyph>
<glyph name="brackhalfbottomleft" format="2">
  <advance width="329"/>
  <unicode hex="2E24"/>
  <outline>
    <contour>
      <point x="72" y="-128" type="line"/>
      <point x="302" y="-128" type="line"/>
      <point x="302" y="-75" type="line"/>
      <point x="272" y="-75" type="line"/>
      <point x="239" y="-75"/>
      <point x="212" y="-66"/>
      <point x="212" y="-3" type="curve"/>
      <point x="212" y="316" type="line"/>
      <point x="72" y="316" type="line"/>
    </contour>
  </outline>
</glyph>
<glyph name="rightsidewaysubracket" format="2">
  <advance width="722"/>
  <unicode hex="2E27"/>
  <outline>
    <contour>
      <point x="152" y="193" type="line"/>
      <point x="358" y="193" type="line" smooth="yes"/>
      <point x="460" y="193"/>
      <point x="569" y="195"/>
      <point x="569" y="354" type="curve" smooth="yes"/>
      <point x="569" y="513"/>
      <point x="461" y="515"/>
      <point x="358" y="515" type="curve" smooth="yes"/>
      <point x="152" y="515" type="line"/>
      <point x="152" y="467" type="line"/>
      <point x="358" y="467" type="line" smooth="yes"/>
      <point x="449" y="467"/>
      <point x="536" y="471"/>
      <point x="536" y="354" type="curve" smooth="yes"/>
      <point x="536" y="237"/>
      <point x="449" y="241"/>
      <point x="358" y="241" type="curve" smooth="yes"/>
      <point x="152" y="241" type="line"/>
    </contour>
  </outline>
</glyph>
